<svg xmlns="http://www.w3.org/2000/svg" viewBox="0 0 46 46"><defs><style>.cls-1{fill:#f8f9f9;}.cls-2{fill:#bec6c6;}.cls-3{fill:#94c748;}.cls-4{fill:#0d1419;}</style></defs><g id="Camada_2" data-name="Camada 2"><g id="Time_Management" data-name="Time Management"><circle class="cls-1" cx="23" cy="14" r="13"></circle><rect class="cls-1" x="1" y="33" width="10" height="12"></rect><rect class="cls-2" x="16" y="33" width="14" height="12"></rect><rect class="cls-1" x="35" y="33" width="10" height="12" transform="translate(80 78) rotate(-180)"></rect><path class="cls-3" d="M23,26A12,12,0,1,1,35,14,12,12,0,0,1,23,26ZM23,4A10,10,0,1,0,33,14,10,10,0,0,0,23,4Z"></path><path class="cls-2" d="M7,38H5a1,1,0,0,1,0-2H7a1,1,0,0,1,0,2Z"></path><path class="cls-2" d="M7,42H5a1,1,0,0,1,0-2H7a1,1,0,0,1,0,2Z"></path><path class="cls-2" d="M41,38H39a1,1,0,0,1,0-2h2a1,1,0,0,1,0,2Z"></path><path class="cls-2" d="M41,42H39a1,1,0,0,1,0-2h2a1,1,0,0,1,0,2Z"></path><path class="cls-1" d="M26,38H20a1,1,0,0,1,0-2h6a1,1,0,0,1,0,2Z"></path><path class="cls-1" d="M26,42H20a1,1,0,0,1,0-2h6a1,1,0,0,1,0,2Z"></path><path class="cls-4" d="M45,32H41V14a1,1,0,0,0-1-1H37a14,14,0,0,0-27.9,0H6a1,1,0,0,0-1,1V32H1a1,1,0,0,0-1,1V45a1,1,0,0,0,1,1H11a1,1,0,0,0,1-1V33a1,1,0,0,0-1-1H7V15H9.05A14,14,0,0,0,22,28V32H16a1,1,0,0,0-1,1V45a1,1,0,0,0,1,1H30a1,1,0,0,0,1-1V33a1,1,0,0,0-1-1H24V28A14,14,0,0,0,37,15h2V32H35a1,1,0,0,0-1,1V45a1,1,0,0,0,1,1H45a1,1,0,0,0,1-1V33A1,1,0,0,0,45,32ZM10,44H2V34h8Zm19,0H17V34H29ZM23,26A12,12,0,1,1,35,14,12,12,0,0,1,23,26ZM44,44H36V34h8Z"></path><path class="cls-2" d="M25,17c-.54,0-.57-.15-2.71-2.29A1,1,0,0,1,22,14V9a1,1,0,0,1,2,0v4.59l1.71,1.7A1,1,0,0,1,25,17Z"></path><path class="cls-3" d="M23,6a1,1,0,0,1-1-1V3a1,1,0,0,1,2,0V5A1,1,0,0,1,23,6Z"></path><path class="cls-3" d="M16.64,8.64a1,1,0,0,1-.71-.3L14.51,6.93a1,1,0,1,1,1.42-1.42l1.41,1.42A1,1,0,0,1,16.64,8.64Z"></path><path class="cls-3" d="M14,15H12a1,1,0,0,1,0-2h2a1,1,0,0,1,0,2Z"></path><path class="cls-3" d="M15.22,22.78a1,1,0,0,1-.71-1.71l1.42-1.41a1,1,0,0,1,1.41,1.41C15.8,22.61,15.75,22.78,15.22,22.78Z"></path><path class="cls-3" d="M23,26a1,1,0,0,1-1-1V23a1,1,0,0,1,2,0v2A1,1,0,0,1,23,26Z"></path><path class="cls-3" d="M30.78,22.78a1,1,0,0,1-.71-.29l-1.41-1.42a1,1,0,0,1,1.41-1.41l1.42,1.41A1,1,0,0,1,30.78,22.78Z"></path><path class="cls-3" d="M34,15H32a1,1,0,0,1,0-2h2a1,1,0,0,1,0,2Z"></path><path class="cls-3" d="M29.36,8.64a1,1,0,0,1-.7-1.71l1.41-1.42a1,1,0,1,1,1.42,1.42C30,8.47,29.89,8.64,29.36,8.64Z"></path></g></g></svg>