<svg xmlns="http://www.w3.org/2000/svg" xmlns:xlink="http://www.w3.org/1999/xlink" id="Camada_1" x="0px" y="0px" viewBox="0 0 1109.9 203.7" style="enable-background:new 0 0 1109.9 203.7;" xml:space="preserve"><style type="text/css">	.st0{fill:#94C748;}</style><g id="Camada_2_1_">	<g id="ELEMENTS">		<g id="lines">			<path class="st0" d="M324.1,22l-0.4-0.3c-1-0.7-2.4-0.5-3.2,0.6c-0.7,1-0.5,2.4,0.6,3.2l0.4,0.3c1,0.7,2.4,0.5,3.2-0.5    C325.4,24.2,325.2,22.8,324.1,22z"></path>			<path class="st0" d="M313.8,15.7l-0.5-0.2c-1.1-0.7-2.5-0.4-3.1,0.7c-0.7,1.1-0.4,2.5,0.7,3.1c0.1,0.1,0.2,0.1,0.3,0.2l0.4,0.2    c1.1,0.5,2.5,0.1,3-1.1C315.2,17.6,314.8,16.3,313.8,15.7L313.8,15.7z"></path>			<path class="st0" d="M291.2,7l-0.5-0.1c-1.2-0.3-2.4,0.5-2.7,1.7c-0.3,1.2,0.5,2.4,1.7,2.7l0,0l0.5,0.1c0.2,0,0.4,0.1,0.5,0.1    c1.3,0,2.3-1,2.3-2.2C292.9,8.2,292.2,7.2,291.2,7z"></path>			<path class="st0" d="M333.2,29.3c-0.9-0.8-2.4-0.8-3.2,0.2c-0.8,0.9-0.8,2.4,0.2,3.2l0.4,0.3c0.9,0.8,2.4,0.8,3.2-0.2    c0.8-0.9,0.8-2.4-0.1-3.2l0,0L333.2,29.3z"></path>			<path class="st0" d="M302.8,10.6l-0.5-0.2c-1.2-0.4-2.5,0.2-2.9,1.3c-0.4,1.2,0.2,2.5,1.3,2.9l0.5,0.2c0.3,0.1,0.6,0.1,0.9,0.1    c1.3,0,2.3-1,2.3-2.3C304.2,11.8,303.7,10.9,302.8,10.6L302.8,10.6z"></path>			<path class="st0" d="M279.2,4.8l-0.5-0.1c-1.2-0.1-2.4,0.8-2.5,2s0.8,2.4,2,2.5l0.5,0.1h0.3c1.3,0,2.3-1,2.3-2.2    C281.3,6,280.4,4.9,279.2,4.8L279.2,4.8z"></path>			<path class="st0" d="M341.7,38c-0.8-0.9-2.3-1-3.2-0.2s-1,2.3-0.2,3.2l0,0l0.3,0.4c0.8,1,2.2,1.1,3.2,0.3l0,0    c1-0.8,1.1-2.2,0.2-3.2L341.7,38z"></path>			<path class="st0" d="M360.1,69.8l-0.2-0.5c-0.4-1.2-1.7-1.8-2.9-1.4c-1.2,0.4-1.8,1.7-1.4,2.9l0,0l0.2,0.5    c0.3,0.9,1.2,1.5,2.2,1.5c0.3,0,0.5,0,0.8-0.1C359.9,72.2,360.5,70.9,360.1,69.8z"></path>			<path class="st0" d="M365.1,93.5c0-0.2,0-0.3,0-0.5c-0.1-1.3-1.2-2.2-2.5-2.1s-2.2,1.2-2.1,2.5c0,0.2,0,0.3,0,0.5    c0.1,1.2,1.1,2.1,2.3,2.1h0.2C364.3,95.8,365.3,94.7,365.1,93.5C365.2,93.5,365.2,93.5,365.1,93.5z"></path>			<path class="st0" d="M361.6,84.1c1.2-0.3,2-1.4,1.8-2.7l0,0c0-0.2-0.1-0.3-0.1-0.5c-0.3-1.2-1.5-2-2.7-1.7s-2,1.5-1.7,2.7    c0,0.2,0.1,0.3,0.1,0.5c0.2,1.1,1.1,1.8,2.2,1.8C361.3,84.2,361.5,84.2,361.6,84.1z"></path>			<path class="st0" d="M355.4,58.6c-0.1-0.2-0.2-0.3-0.2-0.5c-0.7-1.1-2.1-1.4-3.1-0.7c-0.9,0.6-1.3,1.7-0.9,2.7l0.2,0.4    c0.4,0.8,1.1,1.2,2,1.3c0.3,0,0.7-0.1,1-0.2C355.5,61,355.9,59.7,355.4,58.6z"></path>			<path class="st0" d="M349.1,47.6c-0.7-1-2.1-1.3-3.2-0.6s-1.3,2.1-0.6,3.2l0,0l0.3,0.4c0.4,0.6,1.1,1,1.9,1    c0.4,0,0.9-0.1,1.2-0.4c1-0.7,1.3-2.1,0.7-3.1l0,0L349.1,47.6z"></path>			<path class="st0" d="M196.5,35.2l-0.4,0.4c-0.9,0.9-0.8,2.4,0.1,3.2c0.9,0.9,2.4,0.8,3.2-0.1l0,0l0.3-0.4    c0.9-0.9,0.8-2.4-0.1-3.2C198.8,34.2,197.4,34.2,196.5,35.2L196.5,35.2z"></path>			<path class="st0" d="M192,44c-1-0.7-2.4-0.5-3.2,0.5l0,0l-0.3,0.4c-0.7,1-0.5,2.4,0.5,3.2l0,0c0.4,0.3,0.8,0.4,1.3,0.4    c0.7,0,1.4-0.3,1.9-0.9l0.3-0.4C193.2,46.2,193,44.7,192,44z"></path>			<path class="st0" d="M185.4,53.9c-1.1-0.6-2.5-0.2-3.1,0.9l-0.2,0.5c-0.6,1.1-0.2,2.5,0.9,3.1c1.1,0.6,2.5,0.2,3.1-0.9l0.2-0.4    C186.9,55.9,186.5,54.5,185.4,53.9L185.4,53.9z"></path>			<path class="st0" d="M172.5,99.1L172.5,99.1c-1.2,0-2.3,1-2.3,2.3c0,0.2,0,0.3,0,0.5c0.1,1.3,1.2,2.2,2.4,2.1    c1.1-0.1,2-1,2.1-2.1v-0.5C174.8,100.1,173.8,99.1,172.5,99.1L172.5,99.1z"></path>			<path class="st0" d="M173.6,87.3c-1.2-0.2-2.4,0.7-2.5,2l0,0l-0.1,0.5c-0.2,1.2,0.7,2.4,2,2.5l0,0h0.3c1.1,0,2.1-0.9,2.2-2    l0.1-0.5C175.7,88.6,174.8,87.4,173.6,87.3L173.6,87.3z"></path>			<path class="st0" d="M176.1,75.7c-1.2-0.3-2.4,0.4-2.8,1.6l0,0c0,0.2-0.1,0.3-0.1,0.5c-0.3,1.2,0.4,2.4,1.6,2.8    c0.2,0,0.4,0.1,0.6,0.1c1,0,1.9-0.7,2.2-1.7c0-0.2,0.1-0.3,0.1-0.5C178,77.2,177.3,76,176.1,75.7L176.1,75.7z"></path>			<path class="st0" d="M180,64.5c-1.2-0.5-2.5,0.1-2.9,1.3l0,0l-0.2,0.5c-0.5,1.2,0.1,2.5,1.2,3c0,0,0,0,0.1,0    c0.3,0.1,0.5,0.1,0.8,0.2c0.9,0,1.8-0.6,2.1-1.4l0.2-0.5C181.8,66.3,181.2,65,180,64.5C180.1,64.5,180,64.5,180,64.5z"></path>			<path class="st0" d="M237,9.2l-0.5,0.2c-1.2,0.4-1.8,1.7-1.4,2.9c0.3,0.9,1.2,1.5,2.2,1.5c0.2,0,0.5,0,0.7-0.1l0.5-0.1    c1.2-0.5,1.7-1.8,1.3-3C239.3,9.5,238.1,8.9,237,9.2z"></path>			<path class="st0" d="M205.3,26.8l-0.4,0.3c-1,0.8-1.1,2.2-0.3,3.2c0.4,0.5,1.1,0.8,1.7,0.8c0.5,0,1.1-0.2,1.5-0.5l0.4-0.3    c1-0.8,1.1-2.2,0.3-3.2C207.7,26.1,206.3,26,205.3,26.8L205.3,26.8z"></path>			<path class="st0" d="M248.7,6.1l-0.5,0.1c-1.2,0.2-2,1.4-1.8,2.7c0.2,1.1,1.2,1.9,2.3,1.8c0.2,0,0.3,0,0.5,0l0.5-0.1    c1.2-0.2,2.1-1.4,1.9-2.6c-0.2-1.2-1.4-2.1-2.6-1.9C248.8,6.1,248.7,6.1,248.7,6.1L248.7,6.1z"></path>			<path class="st0" d="M215.1,19.6l-0.4,0.3c-1.1,0.7-1.4,2.1-0.7,3.1c0.4,0.7,1.1,1,1.9,1c0.4,0,0.9-0.1,1.2-0.4l0.4-0.3    c1.1-0.7,1.4-2.1,0.7-3.1C217.6,19.3,216.2,19,215.1,19.6L215.1,19.6z"></path>			<path class="st0" d="M225.7,13.7l-0.5,0.2c-1.1,0.5-1.6,1.9-1.1,3c0.4,0.8,1.2,1.3,2.1,1.3c0.3,0,0.7-0.1,1-0.2l0.4-0.2    c1.1-0.6,1.6-1.9,1-3C228.2,13.7,226.8,13.2,225.7,13.7L225.7,13.7L225.7,13.7z"></path>			<path class="st0" d="M399,173.4l-0.4-0.3c-1-0.8-2.4-0.7-3.2,0.3c-0.8,1-0.7,2.4,0.3,3.2l0,0l0.4,0.3c1,0.8,2.4,0.7,3.2-0.3    C400.1,175.6,400,174.2,399,173.4L399,173.4z"></path>			<path class="st0" d="M382.9,156.1c-0.7-1-2.2-1.3-3.2-0.5c-1,0.7-1.3,2.2-0.5,3.2l0,0l0.3,0.4c0.4,0.6,1.1,0.9,1.8,0.9    c0.5,0,0.9-0.2,1.3-0.4c1-0.7,1.2-2.2,0.5-3.2l0,0L382.9,156.1z"></path>			<path class="st0" d="M429.2,190.2l-0.5-0.1c-1.2-0.4-2.5,0.2-2.9,1.3c-0.4,1.2,0.2,2.5,1.3,2.9h0.1l0.5,0.2    c0.2,0.1,0.5,0.1,0.7,0.1c1.3,0,2.3-1,2.3-2.2C430.7,191.4,430.1,190.5,429.2,190.2L429.2,190.2z"></path>			<path class="st0" d="M408.3,180.2l-0.4-0.3c-1.1-0.7-2.5-0.4-3.1,0.7c-0.7,1.1-0.4,2.5,0.7,3.1l0.4,0.3c1.1,0.7,2.5,0.4,3.1-0.7    C409.7,182.3,409.4,180.9,408.3,180.2L408.3,180.2z"></path>			<path class="st0" d="M418.4,185.9l-0.4-0.2c-1.1-0.6-2.5-0.1-3,1c-0.6,1.1-0.1,2.5,1,3l0.5,0.2c0.3,0.2,0.7,0.2,1,0.2    c1.3,0,2.3-1,2.3-2.3C419.7,187,419.2,186.2,418.4,185.9L418.4,185.9z"></path>			<path class="st0" d="M368.5,125.2l-0.1-0.5c-0.3-1.2-1.5-2-2.8-1.7c-1.2,0.3-2,1.5-1.6,2.8l0,0c0,0.2,0.1,0.3,0.1,0.5    c0.3,1,1.2,1.7,2.2,1.7c1.3,0,2.3-1.1,2.3-2.3C368.5,125.6,368.5,125.4,368.5,125.2L368.5,125.2z"></path>			<path class="st0" d="M376.8,146.3c-0.6-1.1-2-1.5-3.1-0.9s-1.5,2-0.9,3.1l0,0c0.1,0.1,0.2,0.3,0.2,0.4c0.4,0.7,1.2,1.2,2,1.2    c1.3,0,2.3-1,2.3-2.3c0-0.4-0.1-0.8-0.3-1.1L376.8,146.3z"></path>			<path class="st0" d="M364.3,116.4c1.3-0.1,2.1-1.3,2-2.5l0,0l-0.1-0.5c-0.2-1.2-1.3-2.1-2.5-2s-2.1,1.3-2,2.5l0.1,0.5    c0.1,1.1,1.1,2,2.2,2H364.3z"></path>			<path class="st0" d="M363.2,104.6c1.3,0,2.3-1,2.3-2.3v-0.5c-0.1-1.3-1.2-2.2-2.4-2.1c-1.1,0.1-2,1-2.1,2.1v0.5    C361,103.6,362,104.6,363.2,104.6L363.2,104.6z"></path>			<path class="st0" d="M440.4,193.2l-0.5-0.1c-1.2-0.3-2.4,0.5-2.7,1.8c-0.3,1.2,0.5,2.4,1.8,2.7l0,0l0.5,0.1c0.1,0,0.3,0,0.5,0    c1.3,0,2.3-1,2.3-2.3C442.2,194.3,441.4,193.3,440.4,193.2L440.4,193.2z"></path>			<path class="st0" d="M371.9,135.8c-0.5-1.2-1.8-1.7-2.9-1.3s-1.7,1.8-1.3,2.9l0.2,0.5c0.3,0.9,1.2,1.4,2.1,1.4    c1.3,0,2.3-1,2.3-2.3c0-0.3-0.1-0.6-0.2-0.8L371.9,135.8z"></path>			<path class="st0" d="M390.3,165.1c-0.9-0.9-2.3-1-3.2-0.1c-0.9,0.9-1,2.3-0.1,3.2l0.4,0.4c0.8,1,2.2,1.1,3.2,0.3s1.1-2.2,0.3-3.2    c0-0.1-0.1-0.1-0.1-0.2L390.3,165.1z"></path>			<path class="st0" d="M545.2,142.1c-1.1-0.5-2.4-0.1-3,1l-0.2,0.4c-0.5,1.1-0.1,2.4,1,3c0.3,0.2,0.7,0.2,1,0.2    c0.8,0,1.6-0.5,2-1.3l0.2-0.5C546.7,144,546.2,142.7,545.2,142.1z"></path>			<path class="st0" d="M539.5,152.5c-1-0.7-2.4-0.4-3.1,0.6l0,0l-0.3,0.4c-0.7,1-0.4,2.4,0.6,3.1l0,0c0.4,0.2,0.8,0.4,1.3,0.4    c0.8,0,1.5-0.4,1.9-1l0.3-0.4C540.8,154.6,540.5,153.2,539.5,152.5L539.5,152.5z"></path>			<path class="st0" d="M549.5,131.1c-1.2-0.4-2.5,0.2-2.9,1.4l-0.2,0.5c-0.4,1.2,0.2,2.5,1.4,2.9c0.2,0.1,0.5,0.1,0.8,0.1    c1,0,1.8-0.6,2.1-1.5l0.2-0.5C551.3,132.8,550.7,131.5,549.5,131.1z"></path>			<path class="st0" d="M553.8,107.8c-1.2-0.1-2.4,0.8-2.5,2.1l0,0c0,0.2,0,0.3,0,0.5c-0.1,1.2,0.8,2.4,2.1,2.5h0.2    c1.2,0,2.2-0.9,2.3-2.1c0-0.2,0-0.3,0-0.5C556,109,555.1,107.9,553.8,107.8L553.8,107.8z"></path>			<path class="st0" d="M532.6,162.1c-0.9-0.8-2.4-0.7-3.2,0.2l0,0l-0.3,0.4c-0.8,1-0.7,2.4,0.2,3.2c1,0.8,2.4,0.7,3.2-0.2l0.3-0.4    C533.6,164.4,533.5,162.9,532.6,162.1z"></path>			<path class="st0" d="M552.4,119.6c-1.2-0.3-2.4,0.5-2.7,1.7l0,0l-0.1,0.5c-0.3,1.2,0.5,2.4,1.7,2.7c0.2,0,0.3,0.1,0.5,0.1    c1.1,0,2-0.7,2.2-1.8l0.1-0.5C554.4,121,553.6,119.8,552.4,119.6z"></path>			<path class="st0" d="M480.9,192.3l-0.5,0.1c-1.2,0.3-2,1.5-1.7,2.7c0.2,1,1.2,1.8,2.2,1.8c0.2,0,0.4,0,0.5-0.1l0.5-0.1    c1.2-0.3,2-1.5,1.7-2.7S482.1,192,480.9,192.3L480.9,192.3z"></path>			<path class="st0" d="M491.9,188.8l-0.5,0.2c-1.2,0.4-1.8,1.7-1.3,2.9c0.3,0.9,1.2,1.5,2.1,1.5c0.3,0,0.5-0.1,0.8-0.1l0.5-0.2    c1.2-0.4,1.9-1.7,1.5-2.9s-1.7-1.9-2.9-1.5C492.1,188.8,492,188.8,491.9,188.8L491.9,188.8z"></path>			<path class="st0" d="M521.3,170.7l-0.4,0.3c-1,0.8-1.1,2.2-0.3,3.2c0.4,0.5,1.1,0.8,1.8,0.8c0.6,0,1.1-0.2,1.5-0.6l0.4-0.3    c0.9-0.8,1-2.3,0.2-3.2S522.2,169.9,521.3,170.7L521.3,170.7z"></path>			<path class="st0" d="M469.5,194.3l-0.5,0.1c-1.2,0.1-2.2,1.2-2.1,2.5c0.1,1.2,1.1,2.1,2.3,2.1h0.2l0.5-0.1c1.2-0.1,2.1-1.3,2-2.5    C471.8,195.1,470.7,194.2,469.5,194.3L469.5,194.3z"></path>			<path class="st0" d="M512.3,177.9l-0.4,0.3c-1,0.7-1.3,2.2-0.5,3.2c0.4,0.6,1.1,1,1.9,1c0.5,0,0.9-0.1,1.3-0.4l0.4-0.3    c1-0.7,1.3-2.1,0.5-3.2C514.7,177.5,513.3,177.2,512.3,177.9L512.3,177.9L512.3,177.9z"></path>			<path class="st0" d="M502.4,184l-0.4,0.2c-1.1,0.5-1.7,1.8-1.2,3s1.8,1.7,3,1.2c0.1,0,0.2-0.1,0.3-0.2l0.5-0.2    c1.1-0.7,1.3-2.1,0.6-3.2C504.6,183.9,503.4,183.6,502.4,184L502.4,184z"></path>			<path class="st0" d="M714.8,29.3c-1-0.7-2.4-0.5-3.2,0.5c-0.6,0.9-0.5,2,0.2,2.8l0.4,0.3c0.9,0.8,2.4,0.8,3.2-0.2    c0.8-0.9,0.8-2.4-0.2-3.2L714.8,29.3z"></path>			<path class="st0" d="M684.3,10.6l-0.5-0.2c-1.2-0.4-2.5,0.2-2.9,1.3s0.2,2.5,1.3,2.9l0.5,0.2c0.3,0.1,0.5,0.1,0.8,0.1    c1.3,0,2.3-1,2.3-2.3C685.7,11.8,685.2,11,684.3,10.6L684.3,10.6z"></path>			<path class="st0" d="M705.7,22l-0.4-0.3c-1-0.7-2.4-0.5-3.2,0.6c-0.7,1-0.5,2.4,0.6,3.2l0,0l0.4,0.3c1,0.7,2.4,0.5,3.2-0.5    C706.9,24.2,706.7,22.8,705.7,22L705.7,22z"></path>			<path class="st0" d="M660.7,4.8l-0.5-0.1c-1.2-0.1-2.4,0.8-2.5,2s0.8,2.4,2,2.5l0.5,0.1h0.3c1.3,0,2.3-1,2.3-2.2    C662.8,6,661.9,4.9,660.7,4.8L660.7,4.8z"></path>			<path class="st0" d="M646.7,4.8l-0.5-0.1c-1.2-0.1-2.4,0.8-2.5,2s0.8,2.4,2,2.5l0.5,0.1h0.3c1.3,0,2.3-1,2.3-2.2    C648.8,6,647.9,4.9,646.7,4.8L646.7,4.8z"></path>			<path class="st0" d="M672.7,7l-0.5-0.1c-1.2-0.3-2.4,0.5-2.7,1.7s0.5,2.4,1.7,2.7l0.5,0.1c0.2,0,0.4,0.1,0.5,0.1    c1.3,0,2.3-1,2.3-2.2C674.5,8.2,673.7,7.2,672.7,7z"></path>			<path class="st0" d="M695.3,15.7l-0.5-0.2c-1.1-0.7-2.5-0.4-3.1,0.7c-0.7,1.1-0.4,2.5,0.7,3.1c0.1,0.1,0.2,0.1,0.3,0.2l0.4,0.2    c1.1,0.5,2.5,0,3-1.1C696.7,17.5,696.3,16.3,695.3,15.7z"></path>			<path class="st0" d="M741.6,69.8c-0.1-0.2-0.1-0.3-0.2-0.5c-0.4-1.2-1.7-1.8-2.9-1.5c-1.2,0.4-1.8,1.7-1.5,2.9v0.1    c0,0.2,0.1,0.3,0.2,0.5c0.3,0.9,1.2,1.5,2.1,1.5c0.3,0,0.5,0,0.8-0.1C741.4,72.2,742,70.9,741.6,69.8L741.6,69.8z"></path>			<path class="st0" d="M723.2,38c-0.8-0.9-2.3-1-3.2-0.2s-1,2.3-0.2,3.2l0.3,0.4c0.8,1,2.2,1.1,3.2,0.3l0,0    c0.9-0.8,1.1-2.2,0.2-3.2L723.2,38z"></path>			<path class="st0" d="M746.7,93.4v-0.5c-0.1-1.3-1.2-2.2-2.5-2.1s-2.2,1.2-2.1,2.5v0.5c0.1,1.2,1.1,2.1,2.3,2.1h0.2    C745.8,95.8,746.8,94.7,746.7,93.4C746.7,93.5,746.7,93.5,746.7,93.4z"></path>			<path class="st0" d="M743.1,84.1c1.2-0.3,2-1.4,1.8-2.7l0,0l-0.1-0.5c-0.3-1.2-1.5-2-2.7-1.7s-2,1.5-1.7,2.7l0.1,0.5    c0.2,1.1,1.1,1.8,2.2,1.8C742.8,84.2,743,84.2,743.1,84.1z"></path>			<path class="st0" d="M730.6,47.6c-0.7-1-2.1-1.3-3.2-0.6s-1.3,2.1-0.6,3.2l0.3,0.4c0.4,0.6,1.1,1,1.9,1c0.4,0,0.9-0.1,1.2-0.4    c1-0.7,1.3-2.1,0.7-3.1l0,0L730.6,47.6z"></path>			<path class="st0" d="M736.9,58.6c-0.1-0.2-0.2-0.3-0.2-0.5c-0.7-1.1-2.1-1.4-3.1-0.7c-0.9,0.6-1.3,1.7-0.9,2.7    c0.1,0.1,0.2,0.3,0.2,0.4c0.6,1.1,1.9,1.6,3,1C737,61,737.5,59.7,736.9,58.6L736.9,58.6z"></path>			<path class="st0" d="M573.5,44c-1-0.7-2.4-0.5-3.2,0.5l0,0L570,45c-0.7,1-0.5,2.4,0.5,3.2l0,0c0.4,0.3,0.8,0.4,1.3,0.4    c0.7,0,1.4-0.3,1.8-0.9l0.3-0.4C574.7,46.2,574.6,44.8,573.5,44L573.5,44z"></path>			<path class="st0" d="M578,35.2l-0.3,0.4c-0.9,0.9-0.8,2.4,0.1,3.2c0.4,0.4,1,0.6,1.5,0.6c0.6,0,1.2-0.3,1.7-0.7l0.3-0.4    c0.9-0.9,0.8-2.4-0.1-3.2C580.3,34.2,578.9,34.3,578,35.2L578,35.2z"></path>			<path class="st0" d="M561.6,64.5c-1.2-0.5-2.5,0.1-2.9,1.2l0,0l-0.2,0.5c-0.5,1.2,0.1,2.5,1.2,3c0,0,0,0,0.1,0    c0.3,0.1,0.5,0.1,0.8,0.2c0.9,0,1.8-0.6,2.1-1.4l0.2-0.5C563.3,66.3,562.8,65,561.6,64.5L561.6,64.5z"></path>			<path class="st0" d="M566.9,53.9c-1.1-0.6-2.5-0.2-3.1,0.9l-0.2,0.5c-0.6,1.1-0.2,2.5,0.9,3.1l0,0c0.3,0.2,0.7,0.3,1.1,0.3    c0.8,0,1.6-0.5,2-1.2l0.2-0.4C568.4,55.9,568,54.5,566.9,53.9z"></path>			<path class="st0" d="M555.1,87.3c-1.2-0.2-2.4,0.7-2.5,2l0,0l-0.1,0.5c-0.2,1.2,0.7,2.4,2,2.5l0,0h0.3c1.1,0,2.1-0.9,2.2-2    l0.1-0.5C557.2,88.6,556.3,87.4,555.1,87.3L555.1,87.3z"></path>			<path class="st0" d="M557.6,75.7c-1.2-0.3-2.5,0.4-2.8,1.6l0,0l-0.1,0.5c-0.3,1.2,0.4,2.5,1.6,2.8l0,0c0.2,0,0.4,0.1,0.6,0.1    c1,0,1.9-0.7,2.2-1.7l0.1-0.5C559.5,77.2,558.8,76,557.6,75.7L557.6,75.7z"></path>			<path class="st0" d="M554,99.1L554,99.1c-1.3,0-2.3,1-2.3,2.3v0.5c0.1,1.3,1.2,2.2,2.4,2.1c1.1-0.1,2-1,2.1-2.1v-0.5    C556.3,100.1,555.3,99.1,554,99.1L554,99.1z"></path>			<path class="st0" d="M630.2,6.1l-0.5,0.1c-1.2,0.2-2,1.4-1.8,2.7s1.4,2,2.7,1.8l0,0l0.5-0.1c1.2-0.2,2.1-1.4,1.9-2.6    c-0.2-1.2-1.4-2.1-2.6-1.9C630.3,6.1,630.3,6.1,630.2,6.1z"></path>			<path class="st0" d="M618.5,9.2L618,9.4c-1.2,0.4-1.8,1.7-1.4,2.9c0.3,0.9,1.2,1.5,2.2,1.5c0.2,0,0.5,0,0.7-0.1l0.5-0.1    c1.2-0.5,1.7-1.8,1.3-3C620.7,9.5,619.6,8.9,618.5,9.2z"></path>			<path class="st0" d="M586.9,26.8l-0.4,0.3c-1,0.8-1.1,2.2-0.3,3.2l0,0c0.8,1,2.2,1.1,3.2,0.3l0,0l0.4-0.3c1-0.8,1.1-2.2,0.3-3.2    C589.3,26.2,587.8,26,586.9,26.8z"></path>			<path class="st0" d="M607.2,13.7l-0.5,0.2c-1.1,0.5-1.6,1.9-1.1,3c0.4,0.8,1.2,1.3,2.1,1.3c0.3,0,0.7-0.1,1-0.2l0.5-0.2    c1.1-0.6,1.6-1.9,1-3C609.7,13.7,608.3,13.2,607.2,13.7L607.2,13.7L607.2,13.7z"></path>			<path class="st0" d="M596.6,19.6l-0.4,0.3c-1.1,0.7-1.4,2.1-0.7,3.1c0.4,0.7,1.1,1,1.9,1c0.4,0,0.9-0.1,1.2-0.4l0.4-0.3    c1.1-0.7,1.4-2.1,0.7-3.1S597.7,19,596.6,19.6L596.6,19.6z"></path>			<path class="st0" d="M771.8,165.1c-0.9-0.9-2.3-1-3.2-0.1s-1,2.3-0.1,3.2l0.3,0.4c0.4,0.5,1,0.7,1.7,0.7c1.3,0,2.3-1,2.3-2.3    c0-0.6-0.2-1.1-0.6-1.6L771.8,165.1z"></path>			<path class="st0" d="M780.5,173.4l-0.4-0.3c-1-0.8-2.4-0.7-3.2,0.3s-0.7,2.4,0.3,3.2l0,0l0.4,0.3c1,0.8,2.4,0.7,3.2-0.3    C781.6,175.6,781.5,174.2,780.5,173.4L780.5,173.4L780.5,173.4z"></path>			<path class="st0" d="M810.7,190.2l-0.5-0.1c-1.2-0.4-2.5,0.2-2.9,1.4s0.2,2.5,1.4,2.9l0.5,0.2c0.2,0.1,0.5,0.1,0.7,0.1    c1.3,0,2.3-1,2.3-2.2C812.3,191.4,811.6,190.5,810.7,190.2L810.7,190.2z"></path>			<path class="st0" d="M821.9,193.2l-0.5-0.1c-1.2-0.3-2.4,0.5-2.7,1.8c-0.3,1.2,0.5,2.4,1.8,2.7l0,0l0.5,0.1c0.1,0,0.3,0,0.5,0    c1.3,0,2.3-1,2.3-2.3C823.7,194.3,822.9,193.3,821.9,193.2L821.9,193.2z"></path>			<path class="st0" d="M800,185.9l-0.4-0.2c-1.1-0.6-2.5-0.1-3,1c-0.6,1.1-0.1,2.5,1,3l0.5,0.2c0.3,0.2,0.7,0.2,1,0.2    c1.3,0,2.3-1,2.3-2.3C801.3,187,800.8,186.2,800,185.9L800,185.9z"></path>			<path class="st0" d="M789.9,180.2l-0.4-0.3c-1.1-0.7-2.5-0.4-3.1,0.7c-0.7,1.1-0.4,2.5,0.7,3.1l0.4,0.3c1.1,0.7,2.5,0.4,3.1-0.7    S790.9,180.9,789.9,180.2L789.9,180.2L789.9,180.2z"></path>			<path class="st0" d="M744.8,104.6c1.3,0,2.3-1,2.3-2.3v-0.5c-0.1-1.3-1.2-2.2-2.4-2.1c-1.1,0.1-2,1-2.1,2.1v0.5    C742.5,103.6,743.5,104.6,744.8,104.6L744.8,104.6z"></path>			<path class="st0" d="M745.8,116.4c1.3-0.1,2.1-1.3,2-2.5l0,0l-0.1-0.5c-0.2-1.2-1.3-2.1-2.5-2c-1.2,0.2-2.1,1.3-2,2.5l0.1,0.5    c0.1,1.1,1.1,2,2.2,2H745.8z"></path>			<path class="st0" d="M753.4,135.8c-0.5-1.2-1.8-1.7-2.9-1.3s-1.7,1.8-1.3,2.9l0,0l0.2,0.5c0.3,0.9,1.2,1.4,2.1,1.4    c1.3,0,2.3-1,2.3-2.3c0-0.3-0.1-0.6-0.2-0.8L753.4,135.8z"></path>			<path class="st0" d="M750,125.2l-0.1-0.5c-0.3-1.2-1.5-2-2.7-1.7s-2,1.5-1.7,2.7v0.1l0.1,0.5c0.3,1,1.2,1.7,2.2,1.7    c1.3,0,2.3-1.1,2.3-2.3C750.1,125.6,750,125.4,750,125.2z"></path>			<path class="st0" d="M764.5,156.1c-0.7-1-2.2-1.3-3.2-0.5c-1,0.7-1.3,2.2-0.5,3.2l0.3,0.4c0.7,1,2.2,1.2,3.2,0.5s1.2-2.2,0.5-3.2    L764.5,156.1z"></path>			<path class="st0" d="M758.3,146.3c-0.6-1.1-2-1.5-3.1-0.9s-1.5,2-0.9,3.1l0,0c0.1,0.1,0.2,0.3,0.2,0.4c0.4,0.7,1.2,1.2,2,1.2    c0.4,0,0.8-0.1,1.1-0.3c1.1-0.6,1.5-2,0.9-3.1L758.3,146.3z"></path>			<path class="st0" d="M926.7,142.1c-1.1-0.5-2.4-0.1-3,1c-0.1,0.1-0.1,0.3-0.2,0.4c-0.5,1.1-0.1,2.4,1,3c0.3,0.2,0.7,0.2,1,0.2    c0.9,0,1.6-0.5,2-1.3l0.2-0.5C928.2,143.9,927.7,142.6,926.7,142.1z"></path>			<path class="st0" d="M914.1,162.1c-0.9-0.8-2.4-0.7-3.2,0.2l0,0l-0.3,0.4c-0.8,1-0.7,2.4,0.2,3.2c1,0.8,2.4,0.7,3.2-0.2l0.3-0.4    C915.1,164.4,915,162.9,914.1,162.1z"></path>			<path class="st0" d="M931,131.1c-1.2-0.4-2.5,0.2-2.9,1.4l0,0l-0.2,0.5c-0.4,1.2,0.2,2.5,1.4,2.9l0,0c0.2,0.1,0.5,0.1,0.8,0.1    c1,0,1.8-0.6,2.2-1.5c0-0.2,0.1-0.3,0.2-0.5C932.8,132.8,932.2,131.5,931,131.1z"></path>			<path class="st0" d="M921,152.5c-1-0.7-2.4-0.4-3.1,0.6l0,0l-0.3,0.4c-0.7,1-0.4,2.5,0.6,3.2s2.5,0.4,3.2-0.6l0,0    c0.1-0.1,0.2-0.3,0.3-0.4C922.3,154.6,922.1,153.2,921,152.5L921,152.5z"></path>			<path class="st0" d="M935.4,107.8c-1.2-0.1-2.4,0.8-2.5,2.1l0,0v0.5c-0.1,1.2,0.8,2.4,2.1,2.5h0.2c1.2,0,2.2-0.9,2.3-2.1v-0.5    C937.5,109,936.6,107.9,935.4,107.8L935.4,107.8z"></path>			<path class="st0" d="M933.9,119.6c-1.2-0.3-2.4,0.5-2.7,1.7l0,0l-0.1,0.5c-0.3,1.2,0.5,2.4,1.7,2.7l0,0c0.2,0,0.3,0.1,0.5,0.1    c1.1,0,2-0.7,2.2-1.8l0.1-0.5C935.9,121,935.1,119.8,933.9,119.6L933.9,119.6z"></path>			<path class="st0" d="M893.8,177.9l-0.4,0.3c-1,0.7-1.3,2.2-0.5,3.2c0.4,0.6,1.1,1,1.8,1c0.5,0,0.9-0.1,1.3-0.4l0.4-0.3    c1-0.8,1.2-2.2,0.4-3.2C896.1,177.6,894.8,177.4,893.8,177.9L893.8,177.9z"></path>			<path class="st0" d="M862.4,192.3l-0.5,0.1c-1.2,0.3-2,1.5-1.7,2.7c0.2,1,1.2,1.8,2.2,1.8c0.2,0,0.4,0,0.5-0.1l0.5-0.1    c1.2-0.3,2-1.5,1.7-2.7C864.8,192.7,863.6,192,862.4,192.3L862.4,192.3L862.4,192.3z"></path>			<path class="st0" d="M851,194.3l-0.5,0.1c-1.2,0.1-2.2,1.2-2,2.5c0.1,1.2,1.1,2.1,2.3,2.1h0.3l0.5-0.1c1.2-0.1,2.1-1.3,2-2.5    C853.4,195.1,852.2,194.2,851,194.3L851,194.3L851,194.3z"></path>			<path class="st0" d="M873.4,188.8L873,189c-1.2,0.4-1.8,1.7-1.3,2.9c0.3,0.9,1.2,1.5,2.1,1.5c0.3,0,0.5-0.1,0.8-0.1l0.5-0.2    c1.2-0.4,1.8-1.8,1.3-2.9S874.6,188.4,873.4,188.8L873.4,188.8z"></path>			<path class="st0" d="M902.8,170.7l-0.4,0.3c-1,0.8-1.1,2.2-0.3,3.2c0.4,0.5,1.1,0.8,1.8,0.8c0.6,0,1.1-0.2,1.5-0.6l0.4-0.4    c1-0.8,1.1-2.2,0.3-3.2s-2.2-1.1-3.2-0.3C902.9,170.7,902.9,170.7,902.8,170.7L902.8,170.7z"></path>			<path class="st0" d="M884,184l-0.4,0.2c-1.1,0.5-1.7,1.8-1.2,3c0.5,1.1,1.8,1.7,3,1.2c0.1,0,0.2-0.1,0.3-0.2l0.5-0.2    c1.1-0.7,1.3-2.1,0.6-3.2C886.2,183.9,885,183.6,884,184L884,184z"></path>			<path class="st0" d="M1076.9,15.7l-0.5-0.2c-1.1-0.7-2.5-0.4-3.1,0.7c-0.7,1.1-0.4,2.5,0.7,3.1c0.1,0.1,0.2,0.1,0.3,0.2l0.4,0.2    c1.2,0.5,2.5,0,3-1.2C1078.1,17.5,1077.8,16.3,1076.9,15.7L1076.9,15.7z"></path>			<path class="st0" d="M1065.8,10.6l-0.5-0.2c-1.2-0.4-2.5,0.2-2.9,1.3c-0.4,1.2,0.2,2.5,1.3,2.9l0,0l0.5,0.2    c0.3,0.1,0.5,0.1,0.8,0.1c1.3,0,2.3-1,2.3-2.3C1067.2,11.8,1066.7,11,1065.8,10.6z"></path>			<path class="st0" d="M1042.3,4.8l-0.5-0.1c-1.2-0.1-2.4,0.8-2.5,2s0.8,2.4,2,2.5l0,0l0.5,0.1h0.3c1.3,0,2.3-1,2.3-2.2    C1044.4,6,1043.4,4.9,1042.3,4.8L1042.3,4.8z"></path>			<path class="st0" d="M1054.2,7l-0.5-0.1c-1.2-0.3-2.4,0.5-2.7,1.7s0.5,2.4,1.7,2.7l0.5,0.1c0.2,0,0.4,0.1,0.5,0.1    c1.3,0,2.3-1,2.3-2.2C1056,8.2,1055.3,7.2,1054.2,7z"></path>			<path class="st0" d="M1087.2,22l-0.4-0.3c-1-0.7-2.5-0.4-3.1,0.6c-0.7,1-0.4,2.4,0.5,3.1l0.4,0.3c0.4,0.3,0.8,0.4,1.3,0.4    c1.3,0,2.3-1,2.3-2.3C1088.1,23.2,1087.8,22.5,1087.2,22z"></path>			<path class="st0" d="M1096.8,32.9c0.8-0.9,0.8-2.4-0.2-3.2l-0.4-0.4c-1-0.7-2.4-0.5-3.2,0.5c-0.6,0.9-0.6,2.1,0.2,2.9l0.4,0.3    c0.4,0.4,1,0.6,1.5,0.6C1095.8,33.6,1096.4,33.3,1096.8,32.9z"></path>			<path class="st0" d="M959.6,35.2l-0.4,0.4c-0.9,0.9-0.8,2.4,0.1,3.2l0,0c0.4,0.4,1,0.6,1.5,0.6c0.6,0,1.2-0.3,1.7-0.7l0.3-0.4    c0.9-0.9,0.8-2.4-0.1-3.2C961.9,34.2,960.4,34.3,959.6,35.2z"></path>			<path class="st0" d="M943.1,64.5c-1.1-0.5-2.5,0-3,1.2v0.1l-0.2,0.5c-0.5,1.2,0.1,2.5,1.2,3c0,0,0,0,0.1,0    c0.3,0.1,0.5,0.1,0.8,0.2c0.9,0,1.8-0.6,2.1-1.4l0.2-0.5C944.8,66.3,944.3,65,943.1,64.5L943.1,64.5z"></path>			<path class="st0" d="M955,44c-1-0.7-2.4-0.5-3.2,0.5l0,0l-0.3,0.4c-0.7,1-0.5,2.4,0.5,3.2c1,0.7,2.4,0.5,3.2-0.5l0,0l0.3-0.4    C956.2,46.2,956,44.7,955,44z"></path>			<path class="st0" d="M948.4,53.9c-1.1-0.6-2.5-0.2-3.1,0.9c-0.1,0.2-0.2,0.3-0.2,0.5c-0.6,1.1-0.2,2.5,0.9,3.1l0,0    c0.3,0.2,0.7,0.3,1.1,0.3c0.8,0,1.6-0.5,2-1.2l0.2-0.4C949.9,55.9,949.5,54.5,948.4,53.9z"></path>			<path class="st0" d="M939.1,75.7c-1.2-0.3-2.5,0.4-2.8,1.6l0,0l-0.1,0.5c-0.3,1.2,0.4,2.5,1.7,2.8c0.2,0,0.4,0.1,0.6,0.1    c1,0,1.9-0.7,2.2-1.7l0.1-0.5C941.1,77.2,940.4,76,939.1,75.7L939.1,75.7z"></path>			<path class="st0" d="M936.6,87.3c-1.2-0.2-2.4,0.7-2.5,2l0,0l-0.1,0.5c-0.2,1.2,0.7,2.4,2,2.5l0,0h0.3c1.1,0,2.1-0.9,2.3-2    l0.1-0.5C938.7,88.6,937.9,87.4,936.6,87.3L936.6,87.3z"></path>			<path class="st0" d="M968.4,26.8l-0.4,0.3c-1,0.8-1.1,2.2-0.3,3.2s2.2,1.1,3.2,0.3l0,0l0.4-0.3c1-0.8,1.1-2.2,0.3-3.2    C970.8,26.2,969.3,26,968.4,26.8L968.4,26.8z"></path>			<path class="st0" d="M1011.7,6.1l-0.5,0.1c-1.2,0.2-2,1.4-1.8,2.7c0.2,1.1,1.2,1.9,2.3,1.8c0.1,0,0.3,0,0.5,0l0.5-0.1    c1.2-0.2,2.1-1.4,1.9-2.6c-0.2-1.2-1.4-2.1-2.6-1.9C1011.8,6.1,1011.8,6.1,1011.7,6.1L1011.7,6.1z"></path>			<path class="st0" d="M935.5,99.1L935.5,99.1c-1.2,0-2.3,1-2.3,2.3v0.5c0.1,1.3,1.2,2.2,2.4,2.1c1.1-0.1,2-1,2.1-2.1v-0.5    C937.8,100.1,936.8,99.1,935.5,99.1z"></path>			<path class="st0" d="M1000,9.2l-0.5,0.2c-1.2,0.4-1.9,1.6-1.5,2.8s1.6,1.9,2.8,1.5h0.1l0.5-0.1c1.2-0.5,1.7-1.8,1.3-3    C1002.3,9.5,1001.1,8.9,1000,9.2z"></path>			<path class="st0" d="M988.8,13.7l-0.5,0.2c-1.1,0.5-1.6,1.9-1.1,3c0.4,0.8,1.2,1.3,2.1,1.3c0.3,0,0.7-0.1,1-0.2l0.5-0.2    c1.1-0.6,1.6-1.9,1-3C991.2,13.7,989.9,13.2,988.8,13.7L988.8,13.7L988.8,13.7z"></path>			<path class="st0" d="M978.2,19.6l-0.4,0.3c-1.1,0.7-1.3,2.1-0.7,3.1c0.7,1.1,2.1,1.3,3.1,0.7l0.4-0.3c1.1-0.6,1.4-2,0.8-3.1    C980.8,19.2,979.4,18.9,978.2,19.6C978.2,19.6,978.2,19.6,978.2,19.6L978.2,19.6z"></path>			<path class="st0" d="M1109.8,45l-3.7-14c-0.1-0.3-0.4-0.5-0.6-0.4c-0.1,0-0.2,0.1-0.2,0.1L1095,41c-0.2,0.2-0.2,0.5,0,0.7    c0.1,0.1,0.1,0.1,0.2,0.1l14,3.7C1109.5,45.6,1109.8,45.4,1109.8,45C1109.9,45.1,1109.9,45.1,1109.8,45z"></path>			<path class="st0" d="M50.9,191.3l-0.5-0.1c-1.2-0.4-2.5,0.3-2.8,1.5s0.3,2.5,1.5,2.8l0.5,0.1c0.2,0.1,0.4,0.1,0.6,0.1    c1.3,0,2.3-1,2.3-2.3C52.5,192.5,51.9,191.6,50.9,191.3z"></path>			<path class="st0" d="M29.7,182.1l-0.4-0.2c-1-0.8-2.4-0.6-3.2,0.4c-0.8,1-0.6,2.4,0.4,3.2c0.1,0.1,0.3,0.2,0.5,0.3l0.5,0.3    c0.3,0.2,0.7,0.3,1.1,0.3c1.3,0,2.3-1,2.3-2.3C30.9,183.3,30.4,182.5,29.7,182.1L29.7,182.1z"></path>			<path class="st0" d="M20.1,175.6l-0.4-0.3c-1-0.8-2.4-0.6-3.2,0.4s-0.6,2.4,0.4,3.2l0,0l0.4,0.3c1,0.8,2.4,0.6,3.2-0.4    C21.3,177.8,21.1,176.4,20.1,175.6L20.1,175.6L20.1,175.6z"></path>			<path class="st0" d="M62.2,193.8l-0.5-0.1c-1.2-0.2-2.4,0.6-2.6,1.9c-0.2,1.2,0.6,2.4,1.9,2.6l0.5,0.1c0.1,0,0.2,0,0.4,0    c1.3,0,2.3-1,2.3-2.3C64.1,194.9,63.3,194,62.2,193.8L62.2,193.8z"></path>			<path class="st0" d="M40,187.4l-0.5-0.2c-1.1-0.5-2.5,0-3,1.2c-0.5,1.1,0,2.5,1.2,3l0.5,0.2c0.3,0.1,0.6,0.2,0.9,0.2    c1.3,0,2.3-1,2.3-2.3C41.4,188.6,40.8,187.7,40,187.4L40,187.4z"></path>			<path class="st0" d="M163.4,142.1c-1.1-0.5-2.4-0.1-3,1l-0.2,0.4c-0.5,1.1-0.1,2.4,1,3c0.3,0.2,0.7,0.2,1,0.2    c0.9,0,1.6-0.5,2-1.3l0.2-0.5C164.9,144,164.5,142.6,163.4,142.1z"></path>			<path class="st0" d="M157.8,152.5c-1-0.7-2.4-0.4-3.1,0.6l0,0l-0.3,0.4c-0.7,1-0.4,2.5,0.6,3.2s2.5,0.4,3.2-0.6l0.3-0.4    C159.1,154.6,158.8,153.2,157.8,152.5L157.8,152.5z"></path>			<path class="st0" d="M87.7,194.3l-0.5,0.1c-1.2,0.1-2.2,1.2-2,2.5c0.1,1.2,1.1,2.1,2.3,2.1h0.3l0.5-0.1c1.2-0.1,2.1-1.3,2-2.5    C90.1,195.1,89,194.2,87.7,194.3L87.7,194.3L87.7,194.3z"></path>			<path class="st0" d="M167.7,131.1c-1.2-0.4-2.5,0.2-2.9,1.4l-0.2,0.5c-0.4,1.2,0.2,2.5,1.4,2.9l0,0c0.2,0.1,0.5,0.1,0.8,0.1    c1,0,1.8-0.6,2.1-1.5c0.1-0.2,0.1-0.3,0.2-0.5C169.6,132.8,168.9,131.5,167.7,131.1z"></path>			<path class="st0" d="M170.6,119.6c-1.2-0.3-2.4,0.5-2.7,1.7l0,0l-0.1,0.5c-0.3,1.2,0.5,2.4,1.7,2.7l0,0c0.2,0,0.3,0.1,0.5,0.1    c1.1,0,2-0.7,2.2-1.8l0.1-0.5C172.7,121,171.9,119.8,170.6,119.6z"></path>			<path class="st0" d="M172.1,107.8c-1.2-0.1-2.4,0.8-2.5,2.1l0,0c0,0.2,0,0.3,0,0.5c-0.1,1.2,0.8,2.4,2.1,2.5l0,0h0.2    c1.2,0,2.2-0.9,2.3-2.1c0-0.2,0-0.3,0.1-0.5C174.3,109,173.4,107.9,172.1,107.8L172.1,107.8z"></path>			<path class="st0" d="M99.1,192.3l-0.5,0.1c-1.2,0.3-2,1.5-1.7,2.7c0.2,1,1.2,1.8,2.2,1.8c0.2,0,0.4,0,0.5-0.1l0.5-0.1    c1.2-0.3,2-1.5,1.7-2.7C101.6,192.7,100.3,192,99.1,192.3L99.1,192.3z"></path>			<path class="st0" d="M130.6,177.9l-0.4,0.3c-1,0.7-1.3,2.2-0.5,3.2c0.4,0.6,1.1,1,1.8,1c0.5,0,0.9-0.1,1.3-0.4l0.4-0.3    c1-0.7,1.3-2.1,0.5-3.2C133,177.5,131.6,177.2,130.6,177.9L130.6,177.9z"></path>			<path class="st0" d="M120.7,184l-0.4,0.2c-1.1,0.6-1.6,1.9-1,3.1c0.4,0.8,1.2,1.2,2,1.2c0.3,0,0.7-0.1,1-0.3l0.5-0.2    c1.1-0.5,1.6-1.9,1.1-3s-1.9-1.6-3-1.1C120.8,184,120.7,184,120.7,184L120.7,184z"></path>			<path class="st0" d="M139.6,170.7l-0.4,0.3c-0.9,0.8-1,2.3-0.2,3.2c0.4,0.5,1,0.7,1.7,0.8c0.6,0,1.1-0.2,1.5-0.6l0.4-0.3    c0.9-0.9,0.9-2.3-0.1-3.2C141.8,170,140.5,170,139.6,170.7L139.6,170.7z"></path>			<path class="st0" d="M150.8,162.1c-1-0.8-2.4-0.7-3.2,0.2l0,0l-0.3,0.4c-0.8,0.9-0.7,2.4,0.2,3.2s2.4,0.7,3.2-0.2l0.3-0.4    C151.9,164.4,151.8,163,150.8,162.1C150.9,162.1,150.9,162.1,150.8,162.1z"></path>			<path class="st0" d="M110.2,188.8l-0.5,0.2c-1.2,0.4-1.8,1.8-1.3,2.9c0.4,1.2,1.8,1.8,2.9,1.3l0.5-0.2c1.2-0.4,1.8-1.8,1.3-2.9    C112.7,189,111.3,188.4,110.2,188.8z"></path>			<circle class="st0" cx="6.7" cy="166.8" r="6.7"></circle>			<path class="st0" d="M324.1,22l-0.4-0.3c-1-0.7-2.4-0.5-3.2,0.6c-0.7,1-0.5,2.4,0.6,3.2l0.4,0.3c1,0.7,2.4,0.5,3.2-0.5    C325.4,24.2,325.2,22.8,324.1,22z"></path>			<path class="st0" d="M313.8,15.7l-0.5-0.2c-1.1-0.7-2.5-0.4-3.1,0.7c-0.7,1.1-0.4,2.5,0.7,3.1c0.1,0.1,0.2,0.1,0.3,0.2l0.4,0.2    c1.1,0.5,2.5,0.1,3-1.1C315.2,17.6,314.8,16.3,313.8,15.7L313.8,15.7z"></path>			<path class="st0" d="M291.2,7l-0.5-0.1c-1.2-0.3-2.4,0.5-2.7,1.7c-0.3,1.2,0.5,2.4,1.7,2.7l0,0l0.5,0.1c0.2,0,0.4,0.1,0.5,0.1    c1.3,0,2.3-1,2.3-2.2C292.9,8.2,292.2,7.2,291.2,7z"></path>			<path class="st0" d="M333.2,29.3c-0.9-0.8-2.4-0.8-3.2,0.2c-0.8,0.9-0.8,2.4,0.2,3.2l0.4,0.3c0.9,0.8,2.4,0.8,3.2-0.2    c0.8-0.9,0.8-2.4-0.1-3.2l0,0L333.2,29.3z"></path>			<path class="st0" d="M302.8,10.6l-0.5-0.2c-1.2-0.4-2.5,0.2-2.9,1.3c-0.4,1.2,0.2,2.5,1.3,2.9l0.5,0.2c0.3,0.1,0.6,0.1,0.9,0.1    c1.3,0,2.3-1,2.3-2.3C304.2,11.8,303.7,10.9,302.8,10.6L302.8,10.6z"></path>			<path class="st0" d="M279.2,4.8l-0.5-0.1c-1.2-0.1-2.4,0.8-2.5,2s0.8,2.4,2,2.5l0.5,0.1h0.3c1.3,0,2.3-1,2.3-2.2    C281.3,6,280.4,4.9,279.2,4.8L279.2,4.8z"></path>			<path class="st0" d="M341.7,38c-0.8-0.9-2.3-1-3.2-0.2s-1,2.3-0.2,3.2l0,0l0.3,0.4c0.8,1,2.2,1.1,3.2,0.3l0,0    c1-0.8,1.1-2.2,0.2-3.2L341.7,38z"></path>			<path class="st0" d="M360.1,69.8l-0.2-0.5c-0.4-1.2-1.7-1.8-2.9-1.4c-1.2,0.4-1.8,1.7-1.4,2.9l0,0l0.2,0.5    c0.3,0.9,1.2,1.5,2.2,1.5c0.3,0,0.5,0,0.8-0.1C359.9,72.2,360.5,70.9,360.1,69.8z"></path>			<path class="st0" d="M365.1,93.5c0-0.2,0-0.3,0-0.5c-0.1-1.3-1.2-2.2-2.5-2.1s-2.2,1.2-2.1,2.5c0,0.2,0,0.3,0,0.5    c0.1,1.2,1.1,2.1,2.3,2.1h0.2C364.3,95.8,365.3,94.7,365.1,93.5C365.2,93.5,365.2,93.5,365.1,93.5z"></path>			<path class="st0" d="M361.6,84.1c1.2-0.3,2-1.4,1.8-2.7l0,0c0-0.2-0.1-0.3-0.1-0.5c-0.3-1.2-1.5-2-2.7-1.7s-2,1.5-1.7,2.7    c0,0.2,0.1,0.3,0.1,0.5c0.2,1.1,1.1,1.8,2.2,1.8C361.3,84.2,361.5,84.2,361.6,84.1z"></path>			<path class="st0" d="M355.4,58.6c-0.1-0.2-0.2-0.3-0.2-0.5c-0.7-1.1-2.1-1.4-3.1-0.7c-0.9,0.6-1.3,1.7-0.9,2.7l0.2,0.4    c0.4,0.8,1.1,1.2,2,1.3c0.3,0,0.7-0.1,1-0.2C355.5,61,355.9,59.7,355.4,58.6z"></path>			<path class="st0" d="M349.1,47.6c-0.7-1-2.1-1.3-3.2-0.6s-1.3,2.1-0.6,3.2l0,0l0.3,0.4c0.4,0.6,1.1,1,1.9,1    c0.4,0,0.9-0.1,1.2-0.4c1-0.7,1.3-2.1,0.7-3.1l0,0L349.1,47.6z"></path>			<path class="st0" d="M196.5,35.2l-0.4,0.4c-0.9,0.9-0.8,2.4,0.1,3.2c0.9,0.9,2.4,0.8,3.2-0.1l0,0l0.3-0.4    c0.9-0.9,0.8-2.4-0.1-3.2C198.8,34.2,197.4,34.2,196.5,35.2L196.5,35.2z"></path>			<path class="st0" d="M192,44c-1-0.7-2.4-0.5-3.2,0.5l0,0l-0.3,0.4c-0.7,1-0.5,2.4,0.5,3.2l0,0c0.4,0.3,0.8,0.4,1.3,0.4    c0.7,0,1.4-0.3,1.9-0.9l0.3-0.4C193.2,46.2,193,44.7,192,44z"></path>			<path class="st0" d="M185.4,53.9c-1.1-0.6-2.5-0.2-3.1,0.9l-0.2,0.5c-0.6,1.1-0.2,2.5,0.9,3.1c1.1,0.6,2.5,0.2,3.1-0.9l0.2-0.4    C186.9,55.9,186.5,54.5,185.4,53.9L185.4,53.9z"></path>			<path class="st0" d="M172.5,99.1L172.5,99.1c-1.2,0-2.3,1-2.3,2.3c0,0.2,0,0.3,0,0.5c0.1,1.3,1.2,2.2,2.4,2.1    c1.1-0.1,2-1,2.1-2.1v-0.5C174.8,100.1,173.8,99.1,172.5,99.1L172.5,99.1z"></path>			<path class="st0" d="M173.6,87.3c-1.2-0.2-2.4,0.7-2.5,2l0,0l-0.1,0.5c-0.2,1.2,0.7,2.4,2,2.5l0,0h0.3c1.1,0,2.1-0.9,2.2-2    l0.1-0.5C175.7,88.6,174.8,87.4,173.6,87.3L173.6,87.3z"></path>			<path class="st0" d="M176.1,75.7c-1.2-0.3-2.4,0.4-2.8,1.6l0,0c0,0.2-0.1,0.3-0.1,0.5c-0.3,1.2,0.4,2.4,1.6,2.8    c0.2,0,0.4,0.1,0.6,0.1c1,0,1.9-0.7,2.2-1.7c0-0.2,0.1-0.3,0.1-0.5C178,77.2,177.3,76,176.1,75.7L176.1,75.7z"></path>			<path class="st0" d="M180,64.5c-1.2-0.5-2.5,0.1-2.9,1.3l0,0l-0.2,0.5c-0.5,1.2,0.1,2.5,1.2,3c0,0,0,0,0.1,0    c0.3,0.1,0.5,0.1,0.8,0.2c0.9,0,1.8-0.6,2.1-1.4l0.2-0.5C181.8,66.3,181.2,65,180,64.5C180.1,64.5,180,64.5,180,64.5z"></path>			<path class="st0" d="M237,9.2l-0.5,0.2c-1.2,0.4-1.8,1.7-1.4,2.9c0.3,0.9,1.2,1.5,2.2,1.5c0.2,0,0.5,0,0.7-0.1l0.5-0.1    c1.2-0.5,1.7-1.8,1.3-3C239.3,9.5,238.1,8.9,237,9.2z"></path>			<path class="st0" d="M205.3,26.8l-0.4,0.3c-1,0.8-1.1,2.2-0.3,3.2c0.4,0.5,1.1,0.8,1.7,0.8c0.5,0,1.1-0.2,1.5-0.5l0.4-0.3    c1-0.8,1.1-2.2,0.3-3.2C207.7,26.1,206.3,26,205.3,26.8L205.3,26.8z"></path>			<path class="st0" d="M248.7,6.1l-0.5,0.1c-1.2,0.2-2,1.4-1.8,2.7c0.2,1.1,1.2,1.9,2.3,1.8c0.2,0,0.3,0,0.5,0l0.5-0.1    c1.2-0.2,2.1-1.4,1.9-2.6c-0.2-1.2-1.4-2.1-2.6-1.9C248.8,6.1,248.7,6.1,248.7,6.1L248.7,6.1z"></path>			<path class="st0" d="M215.1,19.6l-0.4,0.3c-1.1,0.7-1.4,2.1-0.7,3.1c0.4,0.7,1.1,1,1.9,1c0.4,0,0.9-0.1,1.2-0.4l0.4-0.3    c1.1-0.7,1.4-2.1,0.7-3.1C217.6,19.3,216.2,19,215.1,19.6L215.1,19.6z"></path>			<path class="st0" d="M225.7,13.7l-0.5,0.2c-1.1,0.5-1.6,1.9-1.1,3c0.4,0.8,1.2,1.3,2.1,1.3c0.3,0,0.7-0.1,1-0.2l0.4-0.2    c1.1-0.6,1.6-1.9,1-3C228.2,13.7,226.8,13.2,225.7,13.7L225.7,13.7L225.7,13.7z"></path>			<path class="st0" d="M324.1,22l-0.4-0.3c-1-0.7-2.4-0.5-3.2,0.6c-0.7,1-0.5,2.4,0.6,3.2l0.4,0.3c1,0.7,2.4,0.5,3.2-0.5    C325.4,24.2,325.2,22.8,324.1,22z"></path>			<path class="st0" d="M313.8,15.7l-0.5-0.2c-1.1-0.7-2.5-0.4-3.1,0.7c-0.7,1.1-0.4,2.5,0.7,3.1c0.1,0.1,0.2,0.1,0.3,0.2l0.4,0.2    c1.1,0.5,2.5,0.1,3-1.1C315.2,17.6,314.8,16.3,313.8,15.7L313.8,15.7z"></path>			<path class="st0" d="M291.2,7l-0.5-0.1c-1.2-0.3-2.4,0.5-2.7,1.7c-0.3,1.2,0.5,2.4,1.7,2.7l0,0l0.5,0.1c0.2,0,0.4,0.1,0.5,0.1    c1.3,0,2.3-1,2.3-2.2C292.9,8.2,292.2,7.2,291.2,7z"></path>			<path class="st0" d="M333.2,29.3c-0.9-0.8-2.4-0.8-3.2,0.2c-0.8,0.9-0.8,2.4,0.2,3.2l0.4,0.3c0.9,0.8,2.4,0.8,3.2-0.2    c0.8-0.9,0.8-2.4-0.1-3.2l0,0L333.2,29.3z"></path>			<path class="st0" d="M302.8,10.6l-0.5-0.2c-1.2-0.4-2.5,0.2-2.9,1.3c-0.4,1.2,0.2,2.5,1.3,2.9l0.5,0.2c0.3,0.1,0.6,0.1,0.9,0.1    c1.3,0,2.3-1,2.3-2.3C304.2,11.8,303.7,10.9,302.8,10.6L302.8,10.6z"></path>			<path class="st0" d="M279.2,4.8l-0.5-0.1c-1.2-0.1-2.4,0.8-2.5,2s0.8,2.4,2,2.5l0.5,0.1h0.3c1.3,0,2.3-1,2.3-2.2    C281.3,6,280.4,4.9,279.2,4.8L279.2,4.8z"></path>			<path class="st0" d="M341.7,38c-0.8-0.9-2.3-1-3.2-0.2s-1,2.3-0.2,3.2l0,0l0.3,0.4c0.8,1,2.2,1.1,3.2,0.3l0,0    c1-0.8,1.1-2.2,0.2-3.2L341.7,38z"></path>			<path class="st0" d="M360.1,69.8l-0.2-0.5c-0.4-1.2-1.7-1.8-2.9-1.4c-1.2,0.4-1.8,1.7-1.4,2.9l0,0l0.2,0.5    c0.3,0.9,1.2,1.5,2.2,1.5c0.3,0,0.5,0,0.8-0.1C359.9,72.2,360.5,70.9,360.1,69.8z"></path>			<path class="st0" d="M365.1,93.5c0-0.2,0-0.3,0-0.5c-0.1-1.3-1.2-2.2-2.5-2.1s-2.2,1.2-2.1,2.5c0,0.2,0,0.3,0,0.5    c0.1,1.2,1.1,2.1,2.3,2.1h0.2C364.3,95.8,365.3,94.7,365.1,93.5C365.2,93.5,365.2,93.5,365.1,93.5z"></path>			<path class="st0" d="M361.6,84.1c1.2-0.3,2-1.4,1.8-2.7l0,0c0-0.2-0.1-0.3-0.1-0.5c-0.3-1.2-1.5-2-2.7-1.7s-2,1.5-1.7,2.7    c0,0.2,0.1,0.3,0.1,0.5c0.2,1.1,1.1,1.8,2.2,1.8C361.3,84.2,361.5,84.2,361.6,84.1z"></path>			<path class="st0" d="M355.4,58.6c-0.1-0.2-0.2-0.3-0.2-0.5c-0.7-1.1-2.1-1.4-3.1-0.7c-0.9,0.6-1.3,1.7-0.9,2.7l0.2,0.4    c0.4,0.8,1.1,1.2,2,1.3c0.3,0,0.7-0.1,1-0.2C355.5,61,355.9,59.7,355.4,58.6z"></path>			<path class="st0" d="M349.1,47.6c-0.7-1-2.1-1.3-3.2-0.6s-1.3,2.1-0.6,3.2l0,0l0.3,0.4c0.4,0.6,1.1,1,1.9,1    c0.4,0,0.9-0.1,1.2-0.4c1-0.7,1.3-2.1,0.7-3.1l0,0L349.1,47.6z"></path>			<path class="st0" d="M196.5,35.2l-0.4,0.4c-0.9,0.9-0.8,2.4,0.1,3.2c0.9,0.9,2.4,0.8,3.2-0.1l0,0l0.3-0.4    c0.9-0.9,0.8-2.4-0.1-3.2C198.8,34.2,197.4,34.2,196.5,35.2L196.5,35.2z"></path>			<path class="st0" d="M192,44c-1-0.7-2.4-0.5-3.2,0.5l0,0l-0.3,0.4c-0.7,1-0.5,2.4,0.5,3.2l0,0c0.4,0.3,0.8,0.4,1.3,0.4    c0.7,0,1.4-0.3,1.9-0.9l0.3-0.4C193.2,46.2,193,44.7,192,44z"></path>			<path class="st0" d="M185.4,53.9c-1.1-0.6-2.5-0.2-3.1,0.9l-0.2,0.5c-0.6,1.1-0.2,2.5,0.9,3.1c1.1,0.6,2.5,0.2,3.1-0.9l0.2-0.4    C186.9,55.9,186.5,54.5,185.4,53.9L185.4,53.9z"></path>			<path class="st0" d="M172.5,99.1L172.5,99.1c-1.2,0-2.3,1-2.3,2.3c0,0.2,0,0.3,0,0.5c0.1,1.3,1.2,2.2,2.4,2.1    c1.1-0.1,2-1,2.1-2.1v-0.5C174.8,100.1,173.8,99.1,172.5,99.1L172.5,99.1z"></path>			<path class="st0" d="M173.6,87.3c-1.2-0.2-2.4,0.7-2.5,2l0,0l-0.1,0.5c-0.2,1.2,0.7,2.4,2,2.5l0,0h0.3c1.1,0,2.1-0.9,2.2-2    l0.1-0.5C175.7,88.6,174.8,87.4,173.6,87.3L173.6,87.3z"></path>			<path class="st0" d="M176.1,75.7c-1.2-0.3-2.4,0.4-2.8,1.6l0,0c0,0.2-0.1,0.3-0.1,0.5c-0.3,1.2,0.4,2.4,1.6,2.8    c0.2,0,0.4,0.1,0.6,0.1c1,0,1.9-0.7,2.2-1.7c0-0.2,0.1-0.3,0.1-0.5C178,77.2,177.3,76,176.1,75.7L176.1,75.7z"></path>			<path class="st0" d="M180,64.5c-1.2-0.5-2.5,0.1-2.9,1.3l0,0l-0.2,0.5c-0.5,1.2,0.1,2.5,1.2,3c0,0,0,0,0.1,0    c0.3,0.1,0.5,0.1,0.8,0.2c0.9,0,1.8-0.6,2.1-1.4l0.2-0.5C181.8,66.3,181.2,65,180,64.5C180.1,64.5,180,64.5,180,64.5z"></path>			<path class="st0" d="M237,9.2l-0.5,0.2c-1.2,0.4-1.8,1.7-1.4,2.9c0.3,0.9,1.2,1.5,2.2,1.5c0.2,0,0.5,0,0.7-0.1l0.5-0.1    c1.2-0.5,1.7-1.8,1.3-3C239.3,9.5,238.1,8.9,237,9.2z"></path>			<path class="st0" d="M205.3,26.8l-0.4,0.3c-1,0.8-1.1,2.2-0.3,3.2c0.4,0.5,1.1,0.8,1.7,0.8c0.5,0,1.1-0.2,1.5-0.5l0.4-0.3    c1-0.8,1.1-2.2,0.3-3.2C207.7,26.1,206.3,26,205.3,26.8L205.3,26.8z"></path>			<path class="st0" d="M248.7,6.1l-0.5,0.1c-1.2,0.2-2,1.4-1.8,2.7c0.2,1.1,1.2,1.9,2.3,1.8c0.2,0,0.3,0,0.5,0l0.5-0.1    c1.2-0.2,2.1-1.4,1.9-2.6c-0.2-1.2-1.4-2.1-2.6-1.9C248.8,6.1,248.7,6.1,248.7,6.1L248.7,6.1z"></path>			<path class="st0" d="M215.1,19.6l-0.4,0.3c-1.1,0.7-1.4,2.1-0.7,3.1c0.4,0.7,1.1,1,1.9,1c0.4,0,0.9-0.1,1.2-0.4l0.4-0.3    c1.1-0.7,1.4-2.1,0.7-3.1C217.6,19.3,216.2,19,215.1,19.6L215.1,19.6z"></path>			<path class="st0" d="M225.7,13.7l-0.5,0.2c-1.1,0.5-1.6,1.9-1.1,3c0.4,0.8,1.2,1.3,2.1,1.3c0.3,0,0.7-0.1,1-0.2l0.4-0.2    c1.1-0.6,1.6-1.9,1-3C228.2,13.7,226.8,13.2,225.7,13.7L225.7,13.7L225.7,13.7z"></path>			<path class="st0" d="M324.1,22l-0.4-0.3c-1-0.7-2.4-0.5-3.2,0.6c-0.7,1-0.5,2.4,0.6,3.2l0.4,0.3c1,0.7,2.4,0.5,3.2-0.5    C325.4,24.2,325.2,22.8,324.1,22z"></path>			<path class="st0" d="M313.8,15.7l-0.5-0.2c-1.1-0.7-2.5-0.4-3.1,0.7c-0.7,1.1-0.4,2.5,0.7,3.1c0.1,0.1,0.2,0.1,0.3,0.2l0.4,0.2    c1.1,0.5,2.5,0.1,3-1.1C315.2,17.6,314.8,16.3,313.8,15.7L313.8,15.7z"></path>			<path class="st0" d="M291.2,7l-0.5-0.1c-1.2-0.3-2.4,0.5-2.7,1.7c-0.3,1.2,0.5,2.4,1.7,2.7l0,0l0.5,0.1c0.2,0,0.4,0.1,0.5,0.1    c1.3,0,2.3-1,2.3-2.2C292.9,8.2,292.2,7.2,291.2,7z"></path>			<path class="st0" d="M333.2,29.3c-0.9-0.8-2.4-0.8-3.2,0.2c-0.8,0.9-0.8,2.4,0.2,3.2l0.4,0.3c0.9,0.8,2.4,0.8,3.2-0.2    c0.8-0.9,0.8-2.4-0.1-3.2l0,0L333.2,29.3z"></path>			<path class="st0" d="M302.8,10.6l-0.5-0.2c-1.2-0.4-2.5,0.2-2.9,1.3c-0.4,1.2,0.2,2.5,1.3,2.9l0.5,0.2c0.3,0.1,0.6,0.1,0.9,0.1    c1.3,0,2.3-1,2.3-2.3C304.2,11.8,303.7,10.9,302.8,10.6L302.8,10.6z"></path>			<path class="st0" d="M279.2,4.8l-0.5-0.1c-1.2-0.1-2.4,0.8-2.5,2s0.8,2.4,2,2.5l0.5,0.1h0.3c1.3,0,2.3-1,2.3-2.2    C281.3,6,280.4,4.9,279.2,4.8L279.2,4.8z"></path>			<path class="st0" d="M265,4.1L264.5,4c-1.2-0.1-2.4,0.8-2.5,2s0.8,2.4,2,2.5l0.5,0.1h0.3c1.3,0,2.3-1,2.3-2.2    C267.1,5.2,266.2,4.1,265,4.1L265,4.1z"></path>			<path class="st0" d="M341.7,38c-0.8-0.9-2.3-1-3.2-0.2s-1,2.3-0.2,3.2l0,0l0.3,0.4c0.8,1,2.2,1.1,3.2,0.3l0,0    c1-0.8,1.1-2.2,0.2-3.2L341.7,38z"></path>			<path class="st0" d="M360.1,69.8l-0.2-0.5c-0.4-1.2-1.7-1.8-2.9-1.4c-1.2,0.4-1.8,1.7-1.4,2.9l0,0l0.2,0.5    c0.3,0.9,1.2,1.5,2.2,1.5c0.3,0,0.5,0,0.8-0.1C359.9,72.2,360.5,70.9,360.1,69.8z"></path>			<path class="st0" d="M365.1,93.5c0-0.2,0-0.3,0-0.5c-0.1-1.3-1.2-2.2-2.5-2.1s-2.2,1.2-2.1,2.5c0,0.2,0,0.3,0,0.5    c0.1,1.2,1.1,2.1,2.3,2.1h0.2C364.3,95.8,365.3,94.7,365.1,93.5C365.2,93.5,365.2,93.5,365.1,93.5z"></path>			<path class="st0" d="M361.6,84.1c1.2-0.3,2-1.4,1.8-2.7l0,0c0-0.2-0.1-0.3-0.1-0.5c-0.3-1.2-1.5-2-2.7-1.7s-2,1.5-1.7,2.7    c0,0.2,0.1,0.3,0.1,0.5c0.2,1.1,1.1,1.8,2.2,1.8C361.3,84.2,361.5,84.2,361.6,84.1z"></path>			<path class="st0" d="M355.4,58.6c-0.1-0.2-0.2-0.3-0.2-0.5c-0.7-1.1-2.1-1.4-3.1-0.7c-0.9,0.6-1.3,1.7-0.9,2.7l0.2,0.4    c0.4,0.8,1.1,1.2,2,1.3c0.3,0,0.7-0.1,1-0.2C355.5,61,355.9,59.7,355.4,58.6z"></path>			<path class="st0" d="M349.1,47.6c-0.7-1-2.1-1.3-3.2-0.6s-1.3,2.1-0.6,3.2l0,0l0.3,0.4c0.4,0.6,1.1,1,1.9,1    c0.4,0,0.9-0.1,1.2-0.4c1-0.7,1.3-2.1,0.7-3.1l0,0L349.1,47.6z"></path>			<path class="st0" d="M196.5,35.2l-0.4,0.4c-0.9,0.9-0.8,2.4,0.1,3.2c0.9,0.9,2.4,0.8,3.2-0.1l0,0l0.3-0.4    c0.9-0.9,0.8-2.4-0.1-3.2C198.8,34.2,197.4,34.2,196.5,35.2L196.5,35.2z"></path>			<path class="st0" d="M192,44c-1-0.7-2.4-0.5-3.2,0.5l0,0l-0.3,0.4c-0.7,1-0.5,2.4,0.5,3.2l0,0c0.4,0.3,0.8,0.4,1.3,0.4    c0.7,0,1.4-0.3,1.9-0.9l0.3-0.4C193.2,46.2,193,44.7,192,44z"></path>			<path class="st0" d="M185.4,53.9c-1.1-0.6-2.5-0.2-3.1,0.9l-0.2,0.5c-0.6,1.1-0.2,2.5,0.9,3.1c1.1,0.6,2.5,0.2,3.1-0.9l0.2-0.4    C186.9,55.9,186.5,54.5,185.4,53.9L185.4,53.9z"></path>			<path class="st0" d="M172.5,99.1L172.5,99.1c-1.2,0-2.3,1-2.3,2.3c0,0.2,0,0.3,0,0.5c0.1,1.3,1.2,2.2,2.4,2.1    c1.1-0.1,2-1,2.1-2.1v-0.5C174.8,100.1,173.8,99.1,172.5,99.1L172.5,99.1z"></path>			<path class="st0" d="M173.6,87.3c-1.2-0.2-2.4,0.7-2.5,2l0,0l-0.1,0.5c-0.2,1.2,0.7,2.4,2,2.5l0,0h0.3c1.1,0,2.1-0.9,2.2-2    l0.1-0.5C175.7,88.6,174.8,87.4,173.6,87.3L173.6,87.3z"></path>			<path class="st0" d="M176.1,75.7c-1.2-0.3-2.4,0.4-2.8,1.6l0,0c0,0.2-0.1,0.3-0.1,0.5c-0.3,1.2,0.4,2.4,1.6,2.8    c0.2,0,0.4,0.1,0.6,0.1c1,0,1.9-0.7,2.2-1.7c0-0.2,0.1-0.3,0.1-0.5C178,77.2,177.3,76,176.1,75.7L176.1,75.7z"></path>			<path class="st0" d="M180,64.5c-1.2-0.5-2.5,0.1-2.9,1.3l0,0l-0.2,0.5c-0.5,1.2,0.1,2.5,1.2,3c0,0,0,0,0.1,0    c0.3,0.1,0.5,0.1,0.8,0.2c0.9,0,1.8-0.6,2.1-1.4l0.2-0.5C181.8,66.3,181.2,65,180,64.5C180.1,64.5,180,64.5,180,64.5z"></path>			<path class="st0" d="M237,9.2l-0.5,0.2c-1.2,0.4-1.8,1.7-1.4,2.9c0.3,0.9,1.2,1.5,2.2,1.5c0.2,0,0.5,0,0.7-0.1l0.5-0.1    c1.2-0.5,1.7-1.8,1.3-3C239.3,9.5,238.1,8.9,237,9.2z"></path>			<path class="st0" d="M205.3,26.8l-0.4,0.3c-1,0.8-1.1,2.2-0.3,3.2c0.4,0.5,1.1,0.8,1.7,0.8c0.5,0,1.1-0.2,1.5-0.5l0.4-0.3    c1-0.8,1.1-2.2,0.3-3.2C207.7,26.1,206.3,26,205.3,26.8L205.3,26.8z"></path>			<path class="st0" d="M248.7,6.1l-0.5,0.1c-1.2,0.2-2,1.4-1.8,2.7c0.2,1.1,1.2,1.9,2.3,1.8c0.2,0,0.3,0,0.5,0l0.5-0.1    c1.2-0.2,2.1-1.4,1.9-2.6c-0.2-1.2-1.4-2.1-2.6-1.9C248.8,6.1,248.7,6.1,248.7,6.1L248.7,6.1z"></path>			<path class="st0" d="M215.1,19.6l-0.4,0.3c-1.1,0.7-1.4,2.1-0.7,3.1c0.4,0.7,1.1,1,1.9,1c0.4,0,0.9-0.1,1.2-0.4l0.4-0.3    c1.1-0.7,1.4-2.1,0.7-3.1C217.6,19.3,216.2,19,215.1,19.6L215.1,19.6z"></path>			<path class="st0" d="M225.7,13.7l-0.5,0.2c-1.1,0.5-1.6,1.9-1.1,3c0.4,0.8,1.2,1.3,2.1,1.3c0.3,0,0.7-0.1,1-0.2l0.4-0.2    c1.1-0.6,1.6-1.9,1-3C228.2,13.7,226.8,13.2,225.7,13.7L225.7,13.7L225.7,13.7z"></path>			<path class="st0" d="M399,173.4l-0.4-0.3c-1-0.8-2.4-0.7-3.2,0.3c-0.8,1-0.7,2.4,0.3,3.2l0,0l0.4,0.3c1,0.8,2.4,0.7,3.2-0.3    C400.1,175.6,400,174.2,399,173.4L399,173.4z"></path>			<path class="st0" d="M382.9,156.1c-0.7-1-2.2-1.3-3.2-0.5c-1,0.7-1.3,2.2-0.5,3.2l0,0l0.3,0.4c0.4,0.6,1.1,0.9,1.8,0.9    c0.5,0,0.9-0.2,1.3-0.4c1-0.7,1.2-2.2,0.5-3.2l0,0L382.9,156.1z"></path>			<path class="st0" d="M429.2,190.2l-0.5-0.1c-1.2-0.4-2.5,0.2-2.9,1.3c-0.4,1.2,0.2,2.5,1.3,2.9h0.1l0.5,0.2    c0.2,0.1,0.5,0.1,0.7,0.1c1.3,0,2.3-1,2.3-2.2C430.7,191.4,430.1,190.5,429.2,190.2L429.2,190.2z"></path>			<path class="st0" d="M408.3,180.2l-0.4-0.3c-1.1-0.7-2.5-0.4-3.1,0.7c-0.7,1.1-0.4,2.5,0.7,3.1l0.4,0.3c1.1,0.7,2.5,0.4,3.1-0.7    C409.7,182.3,409.4,180.9,408.3,180.2L408.3,180.2z"></path>			<path class="st0" d="M418.4,185.9l-0.4-0.2c-1.1-0.6-2.5-0.1-3,1c-0.6,1.1-0.1,2.5,1,3l0.5,0.2c0.3,0.2,0.7,0.2,1,0.2    c1.3,0,2.3-1,2.3-2.3C419.7,187,419.2,186.2,418.4,185.9L418.4,185.9z"></path>			<path class="st0" d="M368.5,125.2l-0.1-0.5c-0.3-1.2-1.5-2-2.8-1.7c-1.2,0.3-2,1.5-1.6,2.8l0,0c0,0.2,0.1,0.3,0.1,0.5    c0.3,1,1.2,1.7,2.2,1.7c1.3,0,2.3-1.1,2.3-2.3C368.5,125.6,368.5,125.4,368.5,125.2L368.5,125.2z"></path>			<path class="st0" d="M376.8,146.3c-0.6-1.1-2-1.5-3.1-0.9s-1.5,2-0.9,3.1l0,0c0.1,0.1,0.2,0.3,0.2,0.4c0.4,0.7,1.2,1.2,2,1.2    c1.3,0,2.3-1,2.3-2.3c0-0.4-0.1-0.8-0.3-1.1L376.8,146.3z"></path>			<path class="st0" d="M364.3,116.4c1.3-0.1,2.1-1.3,2-2.5l0,0l-0.1-0.5c-0.2-1.2-1.3-2.1-2.5-2s-2.1,1.3-2,2.5l0.1,0.5    c0.1,1.1,1.1,2,2.2,2H364.3z"></path>			<path class="st0" d="M363.2,104.6c1.3,0,2.3-1,2.3-2.3v-0.5c-0.1-1.3-1.2-2.2-2.4-2.1c-1.1,0.1-2,1-2.1,2.1v0.5    C361,103.6,362,104.6,363.2,104.6L363.2,104.6z"></path>			<path class="st0" d="M440.4,193.2l-0.5-0.1c-1.2-0.3-2.4,0.5-2.7,1.8c-0.3,1.2,0.5,2.4,1.8,2.7l0,0l0.5,0.1c0.1,0,0.3,0,0.5,0    c1.3,0,2.3-1,2.3-2.3C442.2,194.3,441.4,193.3,440.4,193.2L440.4,193.2z"></path>			<path class="st0" d="M371.9,135.8c-0.5-1.2-1.8-1.7-2.9-1.3s-1.7,1.8-1.3,2.9l0.2,0.5c0.3,0.9,1.2,1.4,2.1,1.4    c1.3,0,2.3-1,2.3-2.3c0-0.3-0.1-0.6-0.2-0.8L371.9,135.8z"></path>			<path class="st0" d="M390.3,165.1c-0.9-0.9-2.3-1-3.2-0.1c-0.9,0.9-1,2.3-0.1,3.2l0.4,0.4c0.8,1,2.2,1.1,3.2,0.3s1.1-2.2,0.3-3.2    c0-0.1-0.1-0.1-0.1-0.2L390.3,165.1z"></path>			<path class="st0" d="M545.2,142.1c-1.1-0.5-2.4-0.1-3,1l-0.2,0.4c-0.5,1.1-0.1,2.4,1,3c0.3,0.2,0.7,0.2,1,0.2    c0.8,0,1.6-0.5,2-1.3l0.2-0.5C546.7,144,546.2,142.7,545.2,142.1z"></path>			<path class="st0" d="M539.5,152.5c-1-0.7-2.4-0.4-3.1,0.6l0,0l-0.3,0.4c-0.7,1-0.4,2.4,0.6,3.1l0,0c0.4,0.2,0.8,0.4,1.3,0.4    c0.8,0,1.5-0.4,1.9-1l0.3-0.4C540.8,154.6,540.5,153.2,539.5,152.5L539.5,152.5z"></path>			<path class="st0" d="M549.5,131.1c-1.2-0.4-2.5,0.2-2.9,1.4l-0.2,0.5c-0.4,1.2,0.2,2.5,1.4,2.9c0.2,0.1,0.5,0.1,0.8,0.1    c1,0,1.8-0.6,2.1-1.5l0.2-0.5C551.3,132.8,550.7,131.5,549.5,131.1z"></path>			<path class="st0" d="M553.8,107.8c-1.2-0.1-2.4,0.8-2.5,2.1l0,0c0,0.2,0,0.3,0,0.5c-0.1,1.2,0.8,2.4,2.1,2.5h0.2    c1.2,0,2.2-0.9,2.3-2.1c0-0.2,0-0.3,0-0.5C556,109,555.1,107.9,553.8,107.8L553.8,107.8z"></path>			<path class="st0" d="M532.6,162.1c-0.9-0.8-2.4-0.7-3.2,0.2l0,0l-0.3,0.4c-0.8,1-0.7,2.4,0.2,3.2c1,0.8,2.4,0.7,3.2-0.2l0.3-0.4    C533.6,164.4,533.5,162.9,532.6,162.1z"></path>			<path class="st0" d="M552.4,119.6c-1.2-0.3-2.4,0.5-2.7,1.7l0,0l-0.1,0.5c-0.3,1.2,0.5,2.4,1.7,2.7c0.2,0,0.3,0.1,0.5,0.1    c1.1,0,2-0.7,2.2-1.8l0.1-0.5C554.4,121,553.6,119.8,552.4,119.6z"></path>			<path class="st0" d="M480.9,192.3l-0.5,0.1c-1.2,0.3-2,1.5-1.7,2.7c0.2,1,1.2,1.8,2.2,1.8c0.2,0,0.4,0,0.5-0.1l0.5-0.1    c1.2-0.3,2-1.5,1.7-2.7S482.1,192,480.9,192.3L480.9,192.3z"></path>			<path class="st0" d="M491.9,188.8l-0.5,0.2c-1.2,0.4-1.8,1.7-1.3,2.9c0.3,0.9,1.2,1.5,2.1,1.5c0.3,0,0.5-0.1,0.8-0.1l0.5-0.2    c1.2-0.4,1.9-1.7,1.5-2.9s-1.7-1.9-2.9-1.5C492.1,188.8,492,188.8,491.9,188.8L491.9,188.8z"></path>			<path class="st0" d="M521.3,170.7l-0.4,0.3c-1,0.8-1.1,2.2-0.3,3.2c0.4,0.5,1.1,0.8,1.8,0.8c0.6,0,1.1-0.2,1.5-0.6l0.4-0.3    c0.9-0.8,1-2.3,0.2-3.2S522.2,169.9,521.3,170.7L521.3,170.7z"></path>			<path class="st0" d="M469.5,194.3l-0.5,0.1c-1.2,0.1-2.2,1.2-2.1,2.5c0.1,1.2,1.1,2.1,2.3,2.1h0.2l0.5-0.1c1.2-0.1,2.1-1.3,2-2.5    C471.8,195.1,470.7,194.2,469.5,194.3L469.5,194.3z"></path>			<path class="st0" d="M512.3,177.9l-0.4,0.3c-1,0.7-1.3,2.2-0.5,3.2c0.4,0.6,1.1,1,1.9,1c0.5,0,0.9-0.1,1.3-0.4l0.4-0.3    c1-0.7,1.3-2.1,0.5-3.2C514.7,177.5,513.3,177.2,512.3,177.9L512.3,177.9L512.3,177.9z"></path>			<path class="st0" d="M502.4,184l-0.4,0.2c-1.1,0.5-1.7,1.8-1.2,3s1.8,1.7,3,1.2c0.1,0,0.2-0.1,0.3-0.2l0.5-0.2    c1.1-0.7,1.3-2.1,0.6-3.2C504.6,183.9,503.4,183.6,502.4,184L502.4,184z"></path>			<path class="st0" d="M399,173.4l-0.4-0.3c-1-0.8-2.4-0.7-3.2,0.3c-0.8,1-0.7,2.4,0.3,3.2l0,0l0.4,0.3c1,0.8,2.4,0.7,3.2-0.3    C400.1,175.6,400,174.2,399,173.4L399,173.4z"></path>			<path class="st0" d="M382.9,156.1c-0.7-1-2.2-1.3-3.2-0.5c-1,0.7-1.3,2.2-0.5,3.2l0,0l0.3,0.4c0.4,0.6,1.1,0.9,1.8,0.9    c0.5,0,0.9-0.2,1.3-0.4c1-0.7,1.2-2.2,0.5-3.2l0,0L382.9,156.1z"></path>			<path class="st0" d="M429.2,190.2l-0.5-0.1c-1.2-0.4-2.5,0.2-2.9,1.3c-0.4,1.2,0.2,2.5,1.3,2.9h0.1l0.5,0.2    c0.2,0.1,0.5,0.1,0.7,0.1c1.3,0,2.3-1,2.3-2.2C430.7,191.4,430.1,190.5,429.2,190.2L429.2,190.2z"></path>			<path class="st0" d="M408.3,180.2l-0.4-0.3c-1.1-0.7-2.5-0.4-3.1,0.7c-0.7,1.1-0.4,2.5,0.7,3.1l0.4,0.3c1.1,0.7,2.5,0.4,3.1-0.7    C409.7,182.3,409.4,180.9,408.3,180.2L408.3,180.2z"></path>			<path class="st0" d="M418.4,185.9l-0.4-0.2c-1.1-0.6-2.5-0.1-3,1c-0.6,1.1-0.1,2.5,1,3l0.5,0.2c0.3,0.2,0.7,0.2,1,0.2    c1.3,0,2.3-1,2.3-2.3C419.7,187,419.2,186.2,418.4,185.9L418.4,185.9z"></path>			<path class="st0" d="M368.5,125.2l-0.1-0.5c-0.3-1.2-1.5-2-2.8-1.7c-1.2,0.3-2,1.5-1.6,2.8l0,0c0,0.2,0.1,0.3,0.1,0.5    c0.3,1,1.2,1.7,2.2,1.7c1.3,0,2.3-1.1,2.3-2.3C368.5,125.6,368.5,125.4,368.5,125.2L368.5,125.2z"></path>			<path class="st0" d="M376.8,146.3c-0.6-1.1-2-1.5-3.1-0.9s-1.5,2-0.9,3.1l0,0c0.1,0.1,0.2,0.3,0.2,0.4c0.4,0.7,1.2,1.2,2,1.2    c1.3,0,2.3-1,2.3-2.3c0-0.4-0.1-0.8-0.3-1.1L376.8,146.3z"></path>			<path class="st0" d="M364.3,116.4c1.3-0.1,2.1-1.3,2-2.5l0,0l-0.1-0.5c-0.2-1.2-1.3-2.1-2.5-2s-2.1,1.3-2,2.5l0.1,0.5    c0.1,1.1,1.1,2,2.2,2H364.3z"></path>			<path class="st0" d="M363.2,104.6c1.3,0,2.3-1,2.3-2.3v-0.5c-0.1-1.3-1.2-2.2-2.4-2.1c-1.1,0.1-2,1-2.1,2.1v0.5    C361,103.6,362,104.6,363.2,104.6L363.2,104.6z"></path>			<path class="st0" d="M440.4,193.2l-0.5-0.1c-1.2-0.3-2.4,0.5-2.7,1.8c-0.3,1.2,0.5,2.4,1.8,2.7l0,0l0.5,0.1c0.1,0,0.3,0,0.5,0    c1.3,0,2.3-1,2.3-2.3C442.2,194.3,441.4,193.3,440.4,193.2L440.4,193.2z"></path>			<path class="st0" d="M371.9,135.8c-0.5-1.2-1.8-1.7-2.9-1.3s-1.7,1.8-1.3,2.9l0.2,0.5c0.3,0.9,1.2,1.4,2.1,1.4    c1.3,0,2.3-1,2.3-2.3c0-0.3-0.1-0.6-0.2-0.8L371.9,135.8z"></path>			<path class="st0" d="M390.3,165.1c-0.9-0.9-2.3-1-3.2-0.1c-0.9,0.9-1,2.3-0.1,3.2l0.4,0.4c0.8,1,2.2,1.1,3.2,0.3s1.1-2.2,0.3-3.2    c0-0.1-0.1-0.1-0.1-0.2L390.3,165.1z"></path>			<path class="st0" d="M545.2,142.1c-1.1-0.5-2.4-0.1-3,1l-0.2,0.4c-0.5,1.1-0.1,2.4,1,3c0.3,0.2,0.7,0.2,1,0.2    c0.8,0,1.6-0.5,2-1.3l0.2-0.5C546.7,144,546.2,142.7,545.2,142.1z"></path>			<path class="st0" d="M539.5,152.5c-1-0.7-2.4-0.4-3.1,0.6l0,0l-0.3,0.4c-0.7,1-0.4,2.4,0.6,3.1l0,0c0.4,0.2,0.8,0.4,1.3,0.4    c0.8,0,1.5-0.4,1.9-1l0.3-0.4C540.8,154.6,540.5,153.2,539.5,152.5L539.5,152.5z"></path>			<path class="st0" d="M549.5,131.1c-1.2-0.4-2.5,0.2-2.9,1.4l-0.2,0.5c-0.4,1.2,0.2,2.5,1.4,2.9c0.2,0.1,0.5,0.1,0.8,0.1    c1,0,1.8-0.6,2.1-1.5l0.2-0.5C551.3,132.8,550.7,131.5,549.5,131.1z"></path>			<path class="st0" d="M553.8,107.8c-1.2-0.1-2.4,0.8-2.5,2.1l0,0c0,0.2,0,0.3,0,0.5c-0.1,1.2,0.8,2.4,2.1,2.5h0.2    c1.2,0,2.2-0.9,2.3-2.1c0-0.2,0-0.3,0-0.5C556,109,555.1,107.9,553.8,107.8L553.8,107.8z"></path>			<path class="st0" d="M532.6,162.1c-0.9-0.8-2.4-0.7-3.2,0.2l0,0l-0.3,0.4c-0.8,1-0.7,2.4,0.2,3.2c1,0.8,2.4,0.7,3.2-0.2l0.3-0.4    C533.6,164.4,533.5,162.9,532.6,162.1z"></path>			<path class="st0" d="M552.4,119.6c-1.2-0.3-2.4,0.5-2.7,1.7l0,0l-0.1,0.5c-0.3,1.2,0.5,2.4,1.7,2.7c0.2,0,0.3,0.1,0.5,0.1    c1.1,0,2-0.7,2.2-1.8l0.1-0.5C554.4,121,553.6,119.8,552.4,119.6z"></path>			<path class="st0" d="M480.9,192.3l-0.5,0.1c-1.2,0.3-2,1.5-1.7,2.7c0.2,1,1.2,1.8,2.2,1.8c0.2,0,0.4,0,0.5-0.1l0.5-0.1    c1.2-0.3,2-1.5,1.7-2.7S482.1,192,480.9,192.3L480.9,192.3z"></path>			<path class="st0" d="M491.9,188.8l-0.5,0.2c-1.2,0.4-1.8,1.7-1.3,2.9c0.3,0.9,1.2,1.5,2.1,1.5c0.3,0,0.5-0.1,0.8-0.1l0.5-0.2    c1.2-0.4,1.9-1.7,1.5-2.9s-1.7-1.9-2.9-1.5C492.1,188.8,492,188.8,491.9,188.8L491.9,188.8z"></path>			<path class="st0" d="M521.3,170.7l-0.4,0.3c-1,0.8-1.1,2.2-0.3,3.2c0.4,0.5,1.1,0.8,1.8,0.8c0.6,0,1.1-0.2,1.5-0.6l0.4-0.3    c0.9-0.8,1-2.3,0.2-3.2S522.2,169.9,521.3,170.7L521.3,170.7z"></path>			<path class="st0" d="M469.5,194.3l-0.5,0.1c-1.2,0.1-2.2,1.2-2.1,2.5c0.1,1.2,1.1,2.1,2.3,2.1h0.2l0.5-0.1c1.2-0.1,2.1-1.3,2-2.5    C471.8,195.1,470.7,194.2,469.5,194.3L469.5,194.3z"></path>			<path class="st0" d="M512.3,177.9l-0.4,0.3c-1,0.7-1.3,2.2-0.5,3.2c0.4,0.6,1.1,1,1.9,1c0.5,0,0.9-0.1,1.3-0.4l0.4-0.3    c1-0.7,1.3-2.1,0.5-3.2C514.7,177.5,513.3,177.2,512.3,177.9L512.3,177.9L512.3,177.9z"></path>			<path class="st0" d="M502.4,184l-0.4,0.2c-1.1,0.5-1.7,1.8-1.2,3s1.8,1.7,3,1.2c0.1,0,0.2-0.1,0.3-0.2l0.5-0.2    c1.1-0.7,1.3-2.1,0.6-3.2C504.6,183.9,503.4,183.6,502.4,184L502.4,184z"></path>			<path class="st0" d="M399,173.4l-0.4-0.3c-1-0.8-2.4-0.7-3.2,0.3c-0.8,1-0.7,2.4,0.3,3.2l0,0l0.4,0.3c1,0.8,2.4,0.7,3.2-0.3    C400.1,175.6,400,174.2,399,173.4L399,173.4z"></path>			<path class="st0" d="M382.9,156.1c-0.7-1-2.2-1.3-3.2-0.5c-1,0.7-1.3,2.2-0.5,3.2l0,0l0.3,0.4c0.4,0.6,1.1,0.9,1.8,0.9    c0.5,0,0.9-0.2,1.3-0.4c1-0.7,1.2-2.2,0.5-3.2l0,0L382.9,156.1z"></path>			<path class="st0" d="M429.2,190.2l-0.5-0.1c-1.2-0.4-2.5,0.2-2.9,1.3c-0.4,1.2,0.2,2.5,1.3,2.9h0.1l0.5,0.2    c0.2,0.1,0.5,0.1,0.7,0.1c1.3,0,2.3-1,2.3-2.2C430.7,191.4,430.1,190.5,429.2,190.2L429.2,190.2z"></path>			<path class="st0" d="M408.3,180.2l-0.4-0.3c-1.1-0.7-2.5-0.4-3.1,0.7c-0.7,1.1-0.4,2.5,0.7,3.1l0.4,0.3c1.1,0.7,2.5,0.4,3.1-0.7    C409.7,182.3,409.4,180.9,408.3,180.2L408.3,180.2z"></path>			<path class="st0" d="M418.4,185.9l-0.4-0.2c-1.1-0.6-2.5-0.1-3,1c-0.6,1.1-0.1,2.5,1,3l0.5,0.2c0.3,0.2,0.7,0.2,1,0.2    c1.3,0,2.3-1,2.3-2.3C419.7,187,419.2,186.2,418.4,185.9L418.4,185.9z"></path>			<path class="st0" d="M368.5,125.2l-0.1-0.5c-0.3-1.2-1.5-2-2.8-1.7c-1.2,0.3-2,1.5-1.6,2.8l0,0c0,0.2,0.1,0.3,0.1,0.5    c0.3,1,1.2,1.7,2.2,1.7c1.3,0,2.3-1.1,2.3-2.3C368.5,125.6,368.5,125.4,368.5,125.2L368.5,125.2z"></path>			<path class="st0" d="M376.8,146.3c-0.6-1.1-2-1.5-3.1-0.9s-1.5,2-0.9,3.1l0,0c0.1,0.1,0.2,0.3,0.2,0.4c0.4,0.7,1.2,1.2,2,1.2    c1.3,0,2.3-1,2.3-2.3c0-0.4-0.1-0.8-0.3-1.1L376.8,146.3z"></path>			<path class="st0" d="M364.3,116.4c1.3-0.1,2.1-1.3,2-2.5l0,0l-0.1-0.5c-0.2-1.2-1.3-2.1-2.5-2s-2.1,1.3-2,2.5l0.1,0.5    c0.1,1.1,1.1,2,2.2,2H364.3z"></path>			<path class="st0" d="M363.2,104.6c1.3,0,2.3-1,2.3-2.3v-0.5c-0.1-1.3-1.2-2.2-2.4-2.1c-1.1,0.1-2,1-2.1,2.1v0.5    C361,103.6,362,104.6,363.2,104.6L363.2,104.6z"></path>			<path class="st0" d="M440.4,193.2l-0.5-0.1c-1.2-0.3-2.4,0.5-2.7,1.8c-0.3,1.2,0.5,2.4,1.8,2.7l0,0l0.5,0.1c0.1,0,0.3,0,0.5,0    c1.3,0,2.3-1,2.3-2.3C442.2,194.3,441.4,193.3,440.4,193.2L440.4,193.2z"></path>			<path class="st0" d="M371.9,135.8c-0.5-1.2-1.8-1.7-2.9-1.3s-1.7,1.8-1.3,2.9l0.2,0.5c0.3,0.9,1.2,1.4,2.1,1.4    c1.3,0,2.3-1,2.3-2.3c0-0.3-0.1-0.6-0.2-0.8L371.9,135.8z"></path>			<path class="st0" d="M390.3,165.1c-0.9-0.9-2.3-1-3.2-0.1c-0.9,0.9-1,2.3-0.1,3.2l0.4,0.4c0.8,1,2.2,1.1,3.2,0.3s1.1-2.2,0.3-3.2    c0-0.1-0.1-0.1-0.1-0.2L390.3,165.1z"></path>			<path class="st0" d="M545.2,142.1c-1.1-0.5-2.4-0.1-3,1l-0.2,0.4c-0.5,1.1-0.1,2.4,1,3c0.3,0.2,0.7,0.2,1,0.2    c0.8,0,1.6-0.5,2-1.3l0.2-0.5C546.7,144,546.2,142.7,545.2,142.1z"></path>			<path class="st0" d="M539.5,152.5c-1-0.7-2.4-0.4-3.1,0.6l0,0l-0.3,0.4c-0.7,1-0.4,2.4,0.6,3.1l0,0c0.4,0.2,0.8,0.4,1.3,0.4    c0.8,0,1.5-0.4,1.9-1l0.3-0.4C540.8,154.6,540.5,153.2,539.5,152.5L539.5,152.5z"></path>			<path class="st0" d="M549.5,131.1c-1.2-0.4-2.5,0.2-2.9,1.4l-0.2,0.5c-0.4,1.2,0.2,2.5,1.4,2.9c0.2,0.1,0.5,0.1,0.8,0.1    c1,0,1.8-0.6,2.1-1.5l0.2-0.5C551.3,132.8,550.7,131.5,549.5,131.1z"></path>			<path class="st0" d="M553.8,107.8c-1.2-0.1-2.4,0.8-2.5,2.1l0,0c0,0.2,0,0.3,0,0.5c-0.1,1.2,0.8,2.4,2.1,2.5h0.2    c1.2,0,2.2-0.9,2.3-2.1c0-0.2,0-0.3,0-0.5C556,109,555.1,107.9,553.8,107.8L553.8,107.8z"></path>			<path class="st0" d="M532.6,162.1c-0.9-0.8-2.4-0.7-3.2,0.2l0,0l-0.3,0.4c-0.8,1-0.7,2.4,0.2,3.2c1,0.8,2.4,0.7,3.2-0.2l0.3-0.4    C533.6,164.4,533.5,162.9,532.6,162.1z"></path>			<path class="st0" d="M552.4,119.6c-1.2-0.3-2.4,0.5-2.7,1.7l0,0l-0.1,0.5c-0.3,1.2,0.5,2.4,1.7,2.7c0.2,0,0.3,0.1,0.5,0.1    c1.1,0,2-0.7,2.2-1.8l0.1-0.5C554.4,121,553.6,119.8,552.4,119.6z"></path>			<path class="st0" d="M480.9,192.3l-0.5,0.1c-1.2,0.3-2,1.5-1.7,2.7c0.2,1,1.2,1.8,2.2,1.8c0.2,0,0.4,0,0.5-0.1l0.5-0.1    c1.2-0.3,2-1.5,1.7-2.7S482.1,192,480.9,192.3L480.9,192.3z"></path>			<path class="st0" d="M491.9,188.8l-0.5,0.2c-1.2,0.4-1.8,1.7-1.3,2.9c0.3,0.9,1.2,1.5,2.1,1.5c0.3,0,0.5-0.1,0.8-0.1l0.5-0.2    c1.2-0.4,1.9-1.7,1.5-2.9s-1.7-1.9-2.9-1.5C492.1,188.8,492,188.8,491.9,188.8L491.9,188.8z"></path>			<path class="st0" d="M521.3,170.7l-0.4,0.3c-1,0.8-1.1,2.2-0.3,3.2c0.4,0.5,1.1,0.8,1.8,0.8c0.6,0,1.1-0.2,1.5-0.6l0.4-0.3    c0.9-0.8,1-2.3,0.2-3.2S522.2,169.9,521.3,170.7L521.3,170.7z"></path>			<path class="st0" d="M455.5,194.5l-0.5,0.1c-1.2,0.1-2.2,1.2-2.1,2.5c0.1,1.2,1.1,2.1,2.3,2.1h0.2l0.5-0.1c1.2-0.1,2.1-1.3,2-2.5    C457.9,195.2,456.8,194.3,455.5,194.5L455.5,194.5z"></path>			<path class="st0" d="M512.3,177.9l-0.4,0.3c-1,0.7-1.3,2.2-0.5,3.2c0.4,0.6,1.1,1,1.9,1c0.5,0,0.9-0.1,1.3-0.4l0.4-0.3    c1-0.7,1.3-2.1,0.5-3.2C514.7,177.5,513.3,177.2,512.3,177.9L512.3,177.9L512.3,177.9z"></path>			<path class="st0" d="M502.4,184l-0.4,0.2c-1.1,0.5-1.7,1.8-1.2,3s1.8,1.7,3,1.2c0.1,0,0.2-0.1,0.3-0.2l0.5-0.2    c1.1-0.7,1.3-2.1,0.6-3.2C504.6,183.9,503.4,183.6,502.4,184L502.4,184z"></path>			<path class="st0" d="M714.8,29.3c-1-0.7-2.4-0.5-3.2,0.5c-0.6,0.9-0.5,2,0.2,2.8l0.4,0.3c0.9,0.8,2.4,0.8,3.2-0.2    c0.8-0.9,0.8-2.4-0.2-3.2L714.8,29.3z"></path>			<path class="st0" d="M684.3,10.6l-0.5-0.2c-1.2-0.4-2.5,0.2-2.9,1.3s0.2,2.5,1.3,2.9l0.5,0.2c0.3,0.1,0.5,0.1,0.8,0.1    c1.3,0,2.3-1,2.3-2.3C685.7,11.8,685.2,11,684.3,10.6L684.3,10.6z"></path>			<path class="st0" d="M705.7,22l-0.4-0.3c-1-0.7-2.4-0.5-3.2,0.6c-0.7,1-0.5,2.4,0.6,3.2l0,0l0.4,0.3c1,0.7,2.4,0.5,3.2-0.5    C706.9,24.2,706.7,22.8,705.7,22L705.7,22z"></path>			<path class="st0" d="M660.7,4.8l-0.5-0.1c-1.2-0.1-2.4,0.8-2.5,2s0.8,2.4,2,2.5l0.5,0.1h0.3c1.3,0,2.3-1,2.3-2.2    C662.8,6,661.9,4.9,660.7,4.8L660.7,4.8z"></path>			<path class="st0" d="M646.7,4.8l-0.5-0.1c-1.2-0.1-2.4,0.8-2.5,2s0.8,2.4,2,2.5l0.5,0.1h0.3c1.3,0,2.3-1,2.3-2.2    C648.8,6,647.9,4.9,646.7,4.8L646.7,4.8z"></path>			<path class="st0" d="M672.7,7l-0.5-0.1c-1.2-0.3-2.4,0.5-2.7,1.7s0.5,2.4,1.7,2.7l0.5,0.1c0.2,0,0.4,0.1,0.5,0.1    c1.3,0,2.3-1,2.3-2.2C674.5,8.2,673.7,7.2,672.7,7z"></path>			<path class="st0" d="M695.3,15.7l-0.5-0.2c-1.1-0.7-2.5-0.4-3.1,0.7c-0.7,1.1-0.4,2.5,0.7,3.1c0.1,0.1,0.2,0.1,0.3,0.2l0.4,0.2    c1.1,0.5,2.5,0,3-1.1C696.7,17.5,696.3,16.3,695.3,15.7z"></path>			<path class="st0" d="M741.6,69.8c-0.1-0.2-0.1-0.3-0.2-0.5c-0.4-1.2-1.7-1.8-2.9-1.5c-1.2,0.4-1.8,1.7-1.5,2.9v0.1    c0,0.2,0.1,0.3,0.2,0.5c0.3,0.9,1.2,1.5,2.1,1.5c0.3,0,0.5,0,0.8-0.1C741.4,72.2,742,70.9,741.6,69.8L741.6,69.8z"></path>			<path class="st0" d="M723.2,38c-0.8-0.9-2.3-1-3.2-0.2s-1,2.3-0.2,3.2l0.3,0.4c0.8,1,2.2,1.1,3.2,0.3l0,0    c0.9-0.8,1.1-2.2,0.2-3.2L723.2,38z"></path>			<path class="st0" d="M746.7,93.4v-0.5c-0.1-1.3-1.2-2.2-2.5-2.1s-2.2,1.2-2.1,2.5v0.5c0.1,1.2,1.1,2.1,2.3,2.1h0.2    C745.8,95.8,746.8,94.7,746.7,93.4C746.7,93.5,746.7,93.5,746.7,93.4z"></path>			<path class="st0" d="M743.1,84.1c1.2-0.3,2-1.4,1.8-2.7l0,0l-0.1-0.5c-0.3-1.2-1.5-2-2.7-1.7s-2,1.5-1.7,2.7l0.1,0.5    c0.2,1.1,1.1,1.8,2.2,1.8C742.8,84.2,743,84.2,743.1,84.1z"></path>			<path class="st0" d="M730.6,47.6c-0.7-1-2.1-1.3-3.2-0.6s-1.3,2.1-0.6,3.2l0.3,0.4c0.4,0.6,1.1,1,1.9,1c0.4,0,0.9-0.1,1.2-0.4    c1-0.7,1.3-2.1,0.7-3.1l0,0L730.6,47.6z"></path>			<path class="st0" d="M736.9,58.6c-0.1-0.2-0.2-0.3-0.2-0.5c-0.7-1.1-2.1-1.4-3.1-0.7c-0.9,0.6-1.3,1.7-0.9,2.7    c0.1,0.1,0.2,0.3,0.2,0.4c0.6,1.1,1.9,1.6,3,1C737,61,737.5,59.7,736.9,58.6L736.9,58.6z"></path>			<path class="st0" d="M573.5,44c-1-0.7-2.4-0.5-3.2,0.5l0,0L570,45c-0.7,1-0.5,2.4,0.5,3.2l0,0c0.4,0.3,0.8,0.4,1.3,0.4    c0.7,0,1.4-0.3,1.8-0.9l0.3-0.4C574.7,46.2,574.6,44.8,573.5,44L573.5,44z"></path>			<path class="st0" d="M578,35.2l-0.3,0.4c-0.9,0.9-0.8,2.4,0.1,3.2c0.4,0.4,1,0.6,1.5,0.6c0.6,0,1.2-0.3,1.7-0.7l0.3-0.4    c0.9-0.9,0.8-2.4-0.1-3.2C580.3,34.2,578.9,34.3,578,35.2L578,35.2z"></path>			<path class="st0" d="M561.6,64.5c-1.2-0.5-2.5,0.1-2.9,1.2l0,0l-0.2,0.5c-0.5,1.2,0.1,2.5,1.2,3c0,0,0,0,0.1,0    c0.3,0.1,0.5,0.1,0.8,0.2c0.9,0,1.8-0.6,2.1-1.4l0.2-0.5C563.3,66.3,562.8,65,561.6,64.5L561.6,64.5z"></path>			<path class="st0" d="M566.9,53.9c-1.1-0.6-2.5-0.2-3.1,0.9l-0.2,0.5c-0.6,1.1-0.2,2.5,0.9,3.1l0,0c0.3,0.2,0.7,0.3,1.1,0.3    c0.8,0,1.6-0.5,2-1.2l0.2-0.4C568.4,55.9,568,54.5,566.9,53.9z"></path>			<path class="st0" d="M555.1,87.3c-1.2-0.2-2.4,0.7-2.5,2l0,0l-0.1,0.5c-0.2,1.2,0.7,2.4,2,2.5l0,0h0.3c1.1,0,2.1-0.9,2.2-2    l0.1-0.5C557.2,88.6,556.3,87.4,555.1,87.3L555.1,87.3z"></path>			<path class="st0" d="M557.6,75.7c-1.2-0.3-2.5,0.4-2.8,1.6l0,0l-0.1,0.5c-0.3,1.2,0.4,2.5,1.6,2.8l0,0c0.2,0,0.4,0.1,0.6,0.1    c1,0,1.9-0.7,2.2-1.7l0.1-0.5C559.5,77.2,558.8,76,557.6,75.7L557.6,75.7z"></path>			<path class="st0" d="M554,99.1L554,99.1c-1.3,0-2.3,1-2.3,2.3v0.5c0.1,1.3,1.2,2.2,2.4,2.1c1.1-0.1,2-1,2.1-2.1v-0.5    C556.3,100.1,555.3,99.1,554,99.1L554,99.1z"></path>			<path class="st0" d="M630.2,6.1l-0.5,0.1c-1.2,0.2-2,1.4-1.8,2.7s1.4,2,2.7,1.8l0,0l0.5-0.1c1.2-0.2,2.1-1.4,1.9-2.6    c-0.2-1.2-1.4-2.1-2.6-1.9C630.3,6.1,630.3,6.1,630.2,6.1z"></path>			<path class="st0" d="M618.5,9.2L618,9.4c-1.2,0.4-1.8,1.7-1.4,2.9c0.3,0.9,1.2,1.5,2.2,1.5c0.2,0,0.5,0,0.7-0.1l0.5-0.1    c1.2-0.5,1.7-1.8,1.3-3C620.7,9.5,619.6,8.9,618.5,9.2z"></path>			<path class="st0" d="M586.9,26.8l-0.4,0.3c-1,0.8-1.1,2.2-0.3,3.2l0,0c0.8,1,2.2,1.1,3.2,0.3l0,0l0.4-0.3c1-0.8,1.1-2.2,0.3-3.2    C589.3,26.2,587.8,26,586.9,26.8z"></path>			<path class="st0" d="M607.2,13.7l-0.5,0.2c-1.1,0.5-1.6,1.9-1.1,3c0.4,0.8,1.2,1.3,2.1,1.3c0.3,0,0.7-0.1,1-0.2l0.5-0.2    c1.1-0.6,1.6-1.9,1-3C609.7,13.7,608.3,13.2,607.2,13.7L607.2,13.7L607.2,13.7z"></path>			<path class="st0" d="M596.6,19.6l-0.4,0.3c-1.1,0.7-1.4,2.1-0.7,3.1c0.4,0.7,1.1,1,1.9,1c0.4,0,0.9-0.1,1.2-0.4l0.4-0.3    c1.1-0.7,1.4-2.1,0.7-3.1S597.7,19,596.6,19.6L596.6,19.6z"></path>			<path class="st0" d="M771.8,165.1c-0.9-0.9-2.3-1-3.2-0.1s-1,2.3-0.1,3.2l0.3,0.4c0.4,0.5,1,0.7,1.7,0.7c1.3,0,2.3-1,2.3-2.3    c0-0.6-0.2-1.1-0.6-1.6L771.8,165.1z"></path>			<path class="st0" d="M780.5,173.4l-0.4-0.3c-1-0.8-2.4-0.7-3.2,0.3s-0.7,2.4,0.3,3.2l0,0l0.4,0.3c1,0.8,2.4,0.7,3.2-0.3    C781.6,175.6,781.5,174.2,780.5,173.4L780.5,173.4L780.5,173.4z"></path>			<path class="st0" d="M810.7,190.2l-0.5-0.1c-1.2-0.4-2.5,0.2-2.9,1.4s0.2,2.5,1.4,2.9l0.5,0.2c0.2,0.1,0.5,0.1,0.7,0.1    c1.3,0,2.3-1,2.3-2.2C812.3,191.4,811.6,190.5,810.7,190.2L810.7,190.2z"></path>			<path class="st0" d="M821.9,193.2l-0.5-0.1c-1.2-0.3-2.4,0.5-2.7,1.8c-0.3,1.2,0.5,2.4,1.8,2.7l0,0l0.5,0.1c0.1,0,0.3,0,0.5,0    c1.3,0,2.3-1,2.3-2.3C823.7,194.3,822.9,193.3,821.9,193.2L821.9,193.2z"></path>			<path class="st0" d="M800,185.9l-0.4-0.2c-1.1-0.6-2.5-0.1-3,1c-0.6,1.1-0.1,2.5,1,3l0.5,0.2c0.3,0.2,0.7,0.2,1,0.2    c1.3,0,2.3-1,2.3-2.3C801.3,187,800.8,186.2,800,185.9L800,185.9z"></path>			<path class="st0" d="M789.9,180.2l-0.4-0.3c-1.1-0.7-2.5-0.4-3.1,0.7c-0.7,1.1-0.4,2.5,0.7,3.1l0.4,0.3c1.1,0.7,2.5,0.4,3.1-0.7    S790.9,180.9,789.9,180.2L789.9,180.2L789.9,180.2z"></path>			<path class="st0" d="M744.8,104.6c1.3,0,2.3-1,2.3-2.3v-0.5c-0.1-1.3-1.2-2.2-2.4-2.1c-1.1,0.1-2,1-2.1,2.1v0.5    C742.5,103.6,743.5,104.6,744.8,104.6L744.8,104.6z"></path>			<path class="st0" d="M745.8,116.4c1.3-0.1,2.1-1.3,2-2.5l0,0l-0.1-0.5c-0.2-1.2-1.3-2.1-2.5-2c-1.2,0.2-2.1,1.3-2,2.5l0.1,0.5    c0.1,1.1,1.1,2,2.2,2H745.8z"></path>			<path class="st0" d="M753.4,135.8c-0.5-1.2-1.8-1.7-2.9-1.3s-1.7,1.8-1.3,2.9l0,0l0.2,0.5c0.3,0.9,1.2,1.4,2.1,1.4    c1.3,0,2.3-1,2.3-2.3c0-0.3-0.1-0.6-0.2-0.8L753.4,135.8z"></path>			<path class="st0" d="M750,125.2l-0.1-0.5c-0.3-1.2-1.5-2-2.7-1.7s-2,1.5-1.7,2.7v0.1l0.1,0.5c0.3,1,1.2,1.7,2.2,1.7    c1.3,0,2.3-1.1,2.3-2.3C750.1,125.6,750,125.4,750,125.2z"></path>			<path class="st0" d="M764.5,156.1c-0.7-1-2.2-1.3-3.2-0.5c-1,0.7-1.3,2.2-0.5,3.2l0.3,0.4c0.7,1,2.2,1.2,3.2,0.5s1.2-2.2,0.5-3.2    L764.5,156.1z"></path>			<path class="st0" d="M758.3,146.3c-0.6-1.1-2-1.5-3.1-0.9s-1.5,2-0.9,3.1l0,0c0.1,0.1,0.2,0.3,0.2,0.4c0.4,0.7,1.2,1.2,2,1.2    c0.4,0,0.8-0.1,1.1-0.3c1.1-0.6,1.5-2,0.9-3.1L758.3,146.3z"></path>			<path class="st0" d="M926.7,142.1c-1.1-0.5-2.4-0.1-3,1c-0.1,0.1-0.1,0.3-0.2,0.4c-0.5,1.1-0.1,2.4,1,3c0.3,0.2,0.7,0.2,1,0.2    c0.9,0,1.6-0.5,2-1.3l0.2-0.5C928.2,143.9,927.7,142.6,926.7,142.1z"></path>			<path class="st0" d="M914.1,162.1c-0.9-0.8-2.4-0.7-3.2,0.2l0,0l-0.3,0.4c-0.8,1-0.7,2.4,0.2,3.2c1,0.8,2.4,0.7,3.2-0.2l0.3-0.4    C915.1,164.4,915,162.9,914.1,162.1z"></path>			<path class="st0" d="M931,131.1c-1.2-0.4-2.5,0.2-2.9,1.4l0,0l-0.2,0.5c-0.4,1.2,0.2,2.5,1.4,2.9l0,0c0.2,0.1,0.5,0.1,0.8,0.1    c1,0,1.8-0.6,2.2-1.5c0-0.2,0.1-0.3,0.2-0.5C932.8,132.8,932.2,131.5,931,131.1z"></path>			<path class="st0" d="M921,152.5c-1-0.7-2.4-0.4-3.1,0.6l0,0l-0.3,0.4c-0.7,1-0.4,2.5,0.6,3.2s2.5,0.4,3.2-0.6l0,0    c0.1-0.1,0.2-0.3,0.3-0.4C922.3,154.6,922.1,153.2,921,152.5L921,152.5z"></path>			<path class="st0" d="M935.4,107.8c-1.2-0.1-2.4,0.8-2.5,2.1l0,0v0.5c-0.1,1.2,0.8,2.4,2.1,2.5h0.2c1.2,0,2.2-0.9,2.3-2.1v-0.5    C937.5,109,936.6,107.9,935.4,107.8L935.4,107.8z"></path>			<path class="st0" d="M933.9,119.6c-1.2-0.3-2.4,0.5-2.7,1.7l0,0l-0.1,0.5c-0.3,1.2,0.5,2.4,1.7,2.7l0,0c0.2,0,0.3,0.1,0.5,0.1    c1.1,0,2-0.7,2.2-1.8l0.1-0.5C935.9,121,935.1,119.8,933.9,119.6L933.9,119.6z"></path>			<path class="st0" d="M893.8,177.9l-0.4,0.3c-1,0.7-1.3,2.2-0.5,3.2c0.4,0.6,1.1,1,1.8,1c0.5,0,0.9-0.1,1.3-0.4l0.4-0.3    c1-0.8,1.2-2.2,0.4-3.2C896.1,177.6,894.8,177.4,893.8,177.9L893.8,177.9z"></path>			<path class="st0" d="M862.4,192.3l-0.5,0.1c-1.2,0.3-2,1.5-1.7,2.7c0.2,1,1.2,1.8,2.2,1.8c0.2,0,0.4,0,0.5-0.1l0.5-0.1    c1.2-0.3,2-1.5,1.7-2.7C864.8,192.7,863.6,192,862.4,192.3L862.4,192.3L862.4,192.3z"></path>			<path class="st0" d="M851,194.3l-0.5,0.1c-1.2,0.1-2.2,1.2-2,2.5c0.1,1.2,1.1,2.1,2.3,2.1h0.3l0.5-0.1c1.2-0.1,2.1-1.3,2-2.5    C853.4,195.1,852.2,194.2,851,194.3L851,194.3L851,194.3z"></path>			<path class="st0" d="M873.4,188.8L873,189c-1.2,0.4-1.8,1.7-1.3,2.9c0.3,0.9,1.2,1.5,2.1,1.5c0.3,0,0.5-0.1,0.8-0.1l0.5-0.2    c1.2-0.4,1.8-1.8,1.3-2.9S874.6,188.4,873.4,188.8L873.4,188.8z"></path>			<path class="st0" d="M902.8,170.7l-0.4,0.3c-1,0.8-1.1,2.2-0.3,3.2c0.4,0.5,1.1,0.8,1.8,0.8c0.6,0,1.1-0.2,1.5-0.6l0.4-0.4    c1-0.8,1.1-2.2,0.3-3.2s-2.2-1.1-3.2-0.3C902.9,170.7,902.9,170.7,902.8,170.7L902.8,170.7z"></path>			<path class="st0" d="M884,184l-0.4,0.2c-1.1,0.5-1.7,1.8-1.2,3c0.5,1.1,1.8,1.7,3,1.2c0.1,0,0.2-0.1,0.3-0.2l0.5-0.2    c1.1-0.7,1.3-2.1,0.6-3.2C886.2,183.9,885,183.6,884,184L884,184z"></path>			<path class="st0" d="M771.8,165.1c-0.9-0.9-2.3-1-3.2-0.1s-1,2.3-0.1,3.2l0.3,0.4c0.4,0.5,1,0.7,1.7,0.7c1.3,0,2.3-1,2.3-2.3    c0-0.6-0.2-1.1-0.6-1.6L771.8,165.1z"></path>			<path class="st0" d="M780.5,173.4l-0.4-0.3c-1-0.8-2.4-0.7-3.2,0.3s-0.7,2.4,0.3,3.2l0,0l0.4,0.3c1,0.8,2.4,0.7,3.2-0.3    C781.6,175.6,781.5,174.2,780.5,173.4L780.5,173.4L780.5,173.4z"></path>			<path class="st0" d="M810.7,190.2l-0.5-0.1c-1.2-0.4-2.5,0.2-2.9,1.4s0.2,2.5,1.4,2.9l0.5,0.2c0.2,0.1,0.5,0.1,0.7,0.1    c1.3,0,2.3-1,2.3-2.2C812.3,191.4,811.6,190.5,810.7,190.2L810.7,190.2z"></path>			<path class="st0" d="M821.9,193.2l-0.5-0.1c-1.2-0.3-2.4,0.5-2.7,1.8c-0.3,1.2,0.5,2.4,1.8,2.7l0,0l0.5,0.1c0.1,0,0.3,0,0.5,0    c1.3,0,2.3-1,2.3-2.3C823.7,194.3,822.9,193.3,821.9,193.2L821.9,193.2z"></path>			<path class="st0" d="M800,185.9l-0.4-0.2c-1.1-0.6-2.5-0.1-3,1c-0.6,1.1-0.1,2.5,1,3l0.5,0.2c0.3,0.2,0.7,0.2,1,0.2    c1.3,0,2.3-1,2.3-2.3C801.3,187,800.8,186.2,800,185.9L800,185.9z"></path>			<path class="st0" d="M789.9,180.2l-0.4-0.3c-1.1-0.7-2.5-0.4-3.1,0.7c-0.7,1.1-0.4,2.5,0.7,3.1l0.4,0.3c1.1,0.7,2.5,0.4,3.1-0.7    S790.9,180.9,789.9,180.2L789.9,180.2L789.9,180.2z"></path>			<path class="st0" d="M744.8,104.6c1.3,0,2.3-1,2.3-2.3v-0.5c-0.1-1.3-1.2-2.2-2.4-2.1c-1.1,0.1-2,1-2.1,2.1v0.5    C742.5,103.6,743.5,104.6,744.8,104.6L744.8,104.6z"></path>			<path class="st0" d="M745.8,116.4c1.3-0.1,2.1-1.3,2-2.5l0,0l-0.1-0.5c-0.2-1.2-1.3-2.1-2.5-2c-1.2,0.2-2.1,1.3-2,2.5l0.1,0.5    c0.1,1.1,1.1,2,2.2,2H745.8z"></path>			<path class="st0" d="M753.4,135.8c-0.5-1.2-1.8-1.7-2.9-1.3s-1.7,1.8-1.3,2.9l0,0l0.2,0.5c0.3,0.9,1.2,1.4,2.1,1.4    c1.3,0,2.3-1,2.3-2.3c0-0.3-0.1-0.6-0.2-0.8L753.4,135.8z"></path>			<path class="st0" d="M750,125.2l-0.1-0.5c-0.3-1.2-1.5-2-2.7-1.7s-2,1.5-1.7,2.7v0.1l0.1,0.5c0.3,1,1.2,1.7,2.2,1.7    c1.3,0,2.3-1.1,2.3-2.3C750.1,125.6,750,125.4,750,125.2z"></path>			<path class="st0" d="M764.5,156.1c-0.7-1-2.2-1.3-3.2-0.5c-1,0.7-1.3,2.2-0.5,3.2l0.3,0.4c0.7,1,2.2,1.2,3.2,0.5s1.2-2.2,0.5-3.2    L764.5,156.1z"></path>			<path class="st0" d="M758.3,146.3c-0.6-1.1-2-1.5-3.1-0.9s-1.5,2-0.9,3.1l0,0c0.1,0.1,0.2,0.3,0.2,0.4c0.4,0.7,1.2,1.2,2,1.2    c0.4,0,0.8-0.1,1.1-0.3c1.1-0.6,1.5-2,0.9-3.1L758.3,146.3z"></path>			<path class="st0" d="M926.7,142.1c-1.1-0.5-2.4-0.1-3,1c-0.1,0.1-0.1,0.3-0.2,0.4c-0.5,1.1-0.1,2.4,1,3c0.3,0.2,0.7,0.2,1,0.2    c0.9,0,1.6-0.5,2-1.3l0.2-0.5C928.2,143.9,927.7,142.6,926.7,142.1z"></path>			<path class="st0" d="M914.1,162.1c-0.9-0.8-2.4-0.7-3.2,0.2l0,0l-0.3,0.4c-0.8,1-0.7,2.4,0.2,3.2c1,0.8,2.4,0.7,3.2-0.2l0.3-0.4    C915.1,164.4,915,162.9,914.1,162.1z"></path>			<path class="st0" d="M931,131.1c-1.2-0.4-2.5,0.2-2.9,1.4l0,0l-0.2,0.5c-0.4,1.2,0.2,2.5,1.4,2.9l0,0c0.2,0.1,0.5,0.1,0.8,0.1    c1,0,1.8-0.6,2.2-1.5c0-0.2,0.1-0.3,0.2-0.5C932.8,132.8,932.2,131.5,931,131.1z"></path>			<path class="st0" d="M921,152.5c-1-0.7-2.4-0.4-3.1,0.6l0,0l-0.3,0.4c-0.7,1-0.4,2.5,0.6,3.2s2.5,0.4,3.2-0.6l0,0    c0.1-0.1,0.2-0.3,0.3-0.4C922.3,154.6,922.1,153.2,921,152.5L921,152.5z"></path>			<path class="st0" d="M935.4,107.8c-1.2-0.1-2.4,0.8-2.5,2.1l0,0v0.5c-0.1,1.2,0.8,2.4,2.1,2.5h0.2c1.2,0,2.2-0.9,2.3-2.1v-0.5    C937.5,109,936.6,107.9,935.4,107.8L935.4,107.8z"></path>			<path class="st0" d="M933.9,119.6c-1.2-0.3-2.4,0.5-2.7,1.7l0,0l-0.1,0.5c-0.3,1.2,0.5,2.4,1.7,2.7l0,0c0.2,0,0.3,0.1,0.5,0.1    c1.1,0,2-0.7,2.2-1.8l0.1-0.5C935.9,121,935.1,119.8,933.9,119.6L933.9,119.6z"></path>			<path class="st0" d="M893.8,177.9l-0.4,0.3c-1,0.7-1.3,2.2-0.5,3.2c0.4,0.6,1.1,1,1.8,1c0.5,0,0.9-0.1,1.3-0.4l0.4-0.3    c1-0.8,1.2-2.2,0.4-3.2C896.1,177.6,894.8,177.4,893.8,177.9L893.8,177.9z"></path>			<path class="st0" d="M862.4,192.3l-0.5,0.1c-1.2,0.3-2,1.5-1.7,2.7c0.2,1,1.2,1.8,2.2,1.8c0.2,0,0.4,0,0.5-0.1l0.5-0.1    c1.2-0.3,2-1.5,1.7-2.7C864.8,192.7,863.6,192,862.4,192.3L862.4,192.3L862.4,192.3z"></path>			<path class="st0" d="M851,194.3l-0.5,0.1c-1.2,0.1-2.2,1.2-2,2.5c0.1,1.2,1.1,2.1,2.3,2.1h0.3l0.5-0.1c1.2-0.1,2.1-1.3,2-2.5    C853.4,195.1,852.2,194.2,851,194.3L851,194.3L851,194.3z"></path>			<path class="st0" d="M873.4,188.8L873,189c-1.2,0.4-1.8,1.7-1.3,2.9c0.3,0.9,1.2,1.5,2.1,1.5c0.3,0,0.5-0.1,0.8-0.1l0.5-0.2    c1.2-0.4,1.8-1.8,1.3-2.9S874.6,188.4,873.4,188.8L873.4,188.8z"></path>			<path class="st0" d="M902.8,170.7l-0.4,0.3c-1,0.8-1.1,2.2-0.3,3.2c0.4,0.5,1.1,0.8,1.8,0.8c0.6,0,1.1-0.2,1.5-0.6l0.4-0.4    c1-0.8,1.1-2.2,0.3-3.2s-2.2-1.1-3.2-0.3C902.9,170.7,902.9,170.7,902.8,170.7L902.8,170.7z"></path>			<path class="st0" d="M884,184l-0.4,0.2c-1.1,0.5-1.7,1.8-1.2,3c0.5,1.1,1.8,1.7,3,1.2c0.1,0,0.2-0.1,0.3-0.2l0.5-0.2    c1.1-0.7,1.3-2.1,0.6-3.2C886.2,183.9,885,183.6,884,184L884,184z"></path>			<path class="st0" d="M771.8,165.1c-0.9-0.9-2.3-1-3.2-0.1s-1,2.3-0.1,3.2l0.3,0.4c0.4,0.5,1,0.7,1.7,0.7c1.3,0,2.3-1,2.3-2.3    c0-0.6-0.2-1.1-0.6-1.6L771.8,165.1z"></path>			<path class="st0" d="M780.5,173.4l-0.4-0.3c-1-0.8-2.4-0.7-3.2,0.3s-0.7,2.4,0.3,3.2l0,0l0.4,0.3c1,0.8,2.4,0.7,3.2-0.3    C781.6,175.6,781.5,174.2,780.5,173.4L780.5,173.4L780.5,173.4z"></path>			<path class="st0" d="M810.7,190.2l-0.5-0.1c-1.2-0.4-2.5,0.2-2.9,1.4s0.2,2.5,1.4,2.9l0.5,0.2c0.2,0.1,0.5,0.1,0.7,0.1    c1.3,0,2.3-1,2.3-2.2C812.3,191.4,811.6,190.5,810.7,190.2L810.7,190.2z"></path>			<path class="st0" d="M821.9,193.2l-0.5-0.1c-1.2-0.3-2.4,0.5-2.7,1.8c-0.3,1.2,0.5,2.4,1.8,2.7l0,0l0.5,0.1c0.1,0,0.3,0,0.5,0    c1.3,0,2.3-1,2.3-2.3C823.7,194.3,822.9,193.3,821.9,193.2L821.9,193.2z"></path>			<path class="st0" d="M800,185.9l-0.4-0.2c-1.1-0.6-2.5-0.1-3,1c-0.6,1.1-0.1,2.5,1,3l0.5,0.2c0.3,0.2,0.7,0.2,1,0.2    c1.3,0,2.3-1,2.3-2.3C801.3,187,800.8,186.2,800,185.9L800,185.9z"></path>			<path class="st0" d="M789.9,180.2l-0.4-0.3c-1.1-0.7-2.5-0.4-3.1,0.7c-0.7,1.1-0.4,2.5,0.7,3.1l0.4,0.3c1.1,0.7,2.5,0.4,3.1-0.7    S790.9,180.9,789.9,180.2L789.9,180.2L789.9,180.2z"></path>			<path class="st0" d="M744.8,104.6c1.3,0,2.3-1,2.3-2.3v-0.5c-0.1-1.3-1.2-2.2-2.4-2.1c-1.1,0.1-2,1-2.1,2.1v0.5    C742.5,103.6,743.5,104.6,744.8,104.6L744.8,104.6z"></path>			<path class="st0" d="M745.8,116.4c1.3-0.1,2.1-1.3,2-2.5l0,0l-0.1-0.5c-0.2-1.2-1.3-2.1-2.5-2c-1.2,0.2-2.1,1.3-2,2.5l0.1,0.5    c0.1,1.1,1.1,2,2.2,2H745.8z"></path>			<path class="st0" d="M753.4,135.8c-0.5-1.2-1.8-1.7-2.9-1.3s-1.7,1.8-1.3,2.9l0,0l0.2,0.5c0.3,0.9,1.2,1.4,2.1,1.4    c1.3,0,2.3-1,2.3-2.3c0-0.3-0.1-0.6-0.2-0.8L753.4,135.8z"></path>			<path class="st0" d="M750,125.2l-0.1-0.5c-0.3-1.2-1.5-2-2.7-1.7s-2,1.5-1.7,2.7v0.1l0.1,0.5c0.3,1,1.2,1.7,2.2,1.7    c1.3,0,2.3-1.1,2.3-2.3C750.1,125.6,750,125.4,750,125.2z"></path>			<path class="st0" d="M764.5,156.1c-0.7-1-2.2-1.3-3.2-0.5c-1,0.7-1.3,2.2-0.5,3.2l0.3,0.4c0.7,1,2.2,1.2,3.2,0.5s1.2-2.2,0.5-3.2    L764.5,156.1z"></path>			<path class="st0" d="M758.3,146.3c-0.6-1.1-2-1.5-3.1-0.9s-1.5,2-0.9,3.1l0,0c0.1,0.1,0.2,0.3,0.2,0.4c0.4,0.7,1.2,1.2,2,1.2    c0.4,0,0.8-0.1,1.1-0.3c1.1-0.6,1.5-2,0.9-3.1L758.3,146.3z"></path>			<path class="st0" d="M926.7,142.1c-1.1-0.5-2.4-0.1-3,1c-0.1,0.1-0.1,0.3-0.2,0.4c-0.5,1.1-0.1,2.4,1,3c0.3,0.2,0.7,0.2,1,0.2    c0.9,0,1.6-0.5,2-1.3l0.2-0.5C928.2,143.9,927.7,142.6,926.7,142.1z"></path>			<path class="st0" d="M914.1,162.1c-0.9-0.8-2.4-0.7-3.2,0.2l0,0l-0.3,0.4c-0.8,1-0.7,2.4,0.2,3.2c1,0.8,2.4,0.7,3.2-0.2l0.3-0.4    C915.1,164.4,915,162.9,914.1,162.1z"></path>			<path class="st0" d="M931,131.1c-1.2-0.4-2.5,0.2-2.9,1.4l0,0l-0.2,0.5c-0.4,1.2,0.2,2.5,1.4,2.9l0,0c0.2,0.1,0.5,0.1,0.8,0.1    c1,0,1.8-0.6,2.2-1.5c0-0.2,0.1-0.3,0.2-0.5C932.8,132.8,932.2,131.5,931,131.1z"></path>			<path class="st0" d="M921,152.5c-1-0.7-2.4-0.4-3.1,0.6l0,0l-0.3,0.4c-0.7,1-0.4,2.5,0.6,3.2s2.5,0.4,3.2-0.6l0,0    c0.1-0.1,0.2-0.3,0.3-0.4C922.3,154.6,922.1,153.2,921,152.5L921,152.5z"></path>			<path class="st0" d="M935.4,107.8c-1.2-0.1-2.4,0.8-2.5,2.1l0,0v0.5c-0.1,1.2,0.8,2.4,2.1,2.5h0.2c1.2,0,2.2-0.9,2.3-2.1v-0.5    C937.5,109,936.6,107.9,935.4,107.8L935.4,107.8z"></path>			<path class="st0" d="M933.9,119.6c-1.2-0.3-2.4,0.5-2.7,1.7l0,0l-0.1,0.5c-0.3,1.2,0.5,2.4,1.7,2.7l0,0c0.2,0,0.3,0.1,0.5,0.1    c1.1,0,2-0.7,2.2-1.8l0.1-0.5C935.9,121,935.1,119.8,933.9,119.6L933.9,119.6z"></path>			<path class="st0" d="M893.8,177.9l-0.4,0.3c-1,0.7-1.3,2.2-0.5,3.2c0.4,0.6,1.1,1,1.8,1c0.5,0,0.9-0.1,1.3-0.4l0.4-0.3    c1-0.8,1.2-2.2,0.4-3.2C896.1,177.6,894.8,177.4,893.8,177.9L893.8,177.9z"></path>			<path class="st0" d="M862.4,192.3l-0.5,0.1c-1.2,0.3-2,1.5-1.7,2.7c0.2,1,1.2,1.8,2.2,1.8c0.2,0,0.4,0,0.5-0.1l0.5-0.1    c1.2-0.3,2-1.5,1.7-2.7C864.8,192.7,863.6,192,862.4,192.3L862.4,192.3L862.4,192.3z"></path>			<path class="st0" d="M836.5,195H836c-1.2,0.1-2.2,1.2-2,2.5c0.1,1.2,1.1,2.1,2.3,2.1h0.3l0.5-0.1c1.2-0.1,2.1-1.3,2-2.5    C838.9,195.8,837.7,194.9,836.5,195L836.5,195L836.5,195z"></path>			<path class="st0" d="M873.4,188.8L873,189c-1.2,0.4-1.8,1.7-1.3,2.9c0.3,0.9,1.2,1.5,2.1,1.5c0.3,0,0.5-0.1,0.8-0.1l0.5-0.2    c1.2-0.4,1.8-1.8,1.3-2.9S874.6,188.4,873.4,188.8L873.4,188.8z"></path>			<path class="st0" d="M902.8,170.7l-0.4,0.3c-1,0.8-1.1,2.2-0.3,3.2c0.4,0.5,1.1,0.8,1.8,0.8c0.6,0,1.1-0.2,1.5-0.6l0.4-0.4    c1-0.8,1.1-2.2,0.3-3.2s-2.2-1.1-3.2-0.3C902.9,170.7,902.9,170.7,902.8,170.7L902.8,170.7z"></path>			<path class="st0" d="M884,184l-0.4,0.2c-1.1,0.5-1.7,1.8-1.2,3c0.5,1.1,1.8,1.7,3,1.2c0.1,0,0.2-0.1,0.3-0.2l0.5-0.2    c1.1-0.7,1.3-2.1,0.6-3.2C886.2,183.9,885,183.6,884,184L884,184z"></path>			<path class="st0" d="M1076.9,15.7l-0.5-0.2c-1.1-0.7-2.5-0.4-3.1,0.7c-0.7,1.1-0.4,2.5,0.7,3.1c0.1,0.1,0.2,0.1,0.3,0.2l0.4,0.2    c1.2,0.5,2.5,0,3-1.2C1078.1,17.5,1077.8,16.3,1076.9,15.7L1076.9,15.7z"></path>			<path class="st0" d="M1065.8,10.6l-0.5-0.2c-1.2-0.4-2.5,0.2-2.9,1.3c-0.4,1.2,0.2,2.5,1.3,2.9l0,0l0.5,0.2    c0.3,0.1,0.5,0.1,0.8,0.1c1.3,0,2.3-1,2.3-2.3C1067.2,11.8,1066.7,11,1065.8,10.6z"></path>			<path class="st0" d="M1042.3,4.8l-0.5-0.1c-1.2-0.1-2.4,0.8-2.5,2s0.8,2.4,2,2.5l0,0l0.5,0.1h0.3c1.3,0,2.3-1,2.3-2.2    C1044.4,6,1043.4,4.9,1042.3,4.8L1042.3,4.8z"></path>			<path class="st0" d="M1054.2,7l-0.5-0.1c-1.2-0.3-2.4,0.5-2.7,1.7s0.5,2.4,1.7,2.7l0.5,0.1c0.2,0,0.4,0.1,0.5,0.1    c1.3,0,2.3-1,2.3-2.2C1056,8.2,1055.3,7.2,1054.2,7z"></path>			<path class="st0" d="M1087.2,22l-0.4-0.3c-1-0.7-2.5-0.4-3.1,0.6c-0.7,1-0.4,2.4,0.5,3.1l0.4,0.3c0.4,0.3,0.8,0.4,1.3,0.4    c1.3,0,2.3-1,2.3-2.3C1088.1,23.2,1087.8,22.5,1087.2,22z"></path>			<path class="st0" d="M1096.8,32.9c0.8-0.9,0.8-2.4-0.2-3.2l-0.4-0.4c-1-0.7-2.4-0.5-3.2,0.5c-0.6,0.9-0.6,2.1,0.2,2.9l0.4,0.3    c0.4,0.4,1,0.6,1.5,0.6C1095.8,33.6,1096.4,33.3,1096.8,32.9z"></path>			<path class="st0" d="M959.6,35.2l-0.4,0.4c-0.9,0.9-0.8,2.4,0.1,3.2l0,0c0.4,0.4,1,0.6,1.5,0.6c0.6,0,1.2-0.3,1.7-0.7l0.3-0.4    c0.9-0.9,0.8-2.4-0.1-3.2C961.9,34.2,960.4,34.3,959.6,35.2z"></path>			<path class="st0" d="M943.1,64.5c-1.1-0.5-2.5,0-3,1.2v0.1l-0.2,0.5c-0.5,1.2,0.1,2.5,1.2,3c0,0,0,0,0.1,0    c0.3,0.1,0.5,0.1,0.8,0.2c0.9,0,1.8-0.6,2.1-1.4l0.2-0.5C944.8,66.3,944.3,65,943.1,64.5L943.1,64.5z"></path>			<path class="st0" d="M955,44c-1-0.7-2.4-0.5-3.2,0.5l0,0l-0.3,0.4c-0.7,1-0.5,2.4,0.5,3.2c1,0.7,2.4,0.5,3.2-0.5l0,0l0.3-0.4    C956.2,46.2,956,44.7,955,44z"></path>			<path class="st0" d="M948.4,53.9c-1.1-0.6-2.5-0.2-3.1,0.9c-0.1,0.2-0.2,0.3-0.2,0.5c-0.6,1.1-0.2,2.5,0.9,3.1l0,0    c0.3,0.2,0.7,0.3,1.1,0.3c0.8,0,1.6-0.5,2-1.2l0.2-0.4C949.9,55.9,949.5,54.5,948.4,53.9z"></path>			<path class="st0" d="M939.1,75.7c-1.2-0.3-2.5,0.4-2.8,1.6l0,0l-0.1,0.5c-0.3,1.2,0.4,2.5,1.7,2.8c0.2,0,0.4,0.1,0.6,0.1    c1,0,1.9-0.7,2.2-1.7l0.1-0.5C941.1,77.2,940.4,76,939.1,75.7L939.1,75.7z"></path>			<path class="st0" d="M936.6,87.3c-1.2-0.2-2.4,0.7-2.5,2l0,0l-0.1,0.5c-0.2,1.2,0.7,2.4,2,2.5l0,0h0.3c1.1,0,2.1-0.9,2.3-2    l0.1-0.5C938.7,88.6,937.9,87.4,936.6,87.3L936.6,87.3z"></path>			<path class="st0" d="M968.4,26.8l-0.4,0.3c-1,0.8-1.1,2.2-0.3,3.2s2.2,1.1,3.2,0.3l0,0l0.4-0.3c1-0.8,1.1-2.2,0.3-3.2    C970.8,26.2,969.3,26,968.4,26.8L968.4,26.8z"></path>			<path class="st0" d="M1011.7,6.1l-0.5,0.1c-1.2,0.2-2,1.4-1.8,2.7c0.2,1.1,1.2,1.9,2.3,1.8c0.1,0,0.3,0,0.5,0l0.5-0.1    c1.2-0.2,2.1-1.4,1.9-2.6c-0.2-1.2-1.4-2.1-2.6-1.9C1011.8,6.1,1011.8,6.1,1011.7,6.1L1011.7,6.1z"></path>			<path class="st0" d="M935.5,99.1L935.5,99.1c-1.2,0-2.3,1-2.3,2.3v0.5c0.1,1.3,1.2,2.2,2.4,2.1c1.1-0.1,2-1,2.1-2.1v-0.5    C937.8,100.1,936.8,99.1,935.5,99.1z"></path>			<path class="st0" d="M1000,9.2l-0.5,0.2c-1.2,0.4-1.9,1.6-1.5,2.8s1.6,1.9,2.8,1.5h0.1l0.5-0.1c1.2-0.5,1.7-1.8,1.3-3    C1002.3,9.5,1001.1,8.9,1000,9.2z"></path>			<path class="st0" d="M988.8,13.7l-0.5,0.2c-1.1,0.5-1.6,1.9-1.1,3c0.4,0.8,1.2,1.3,2.1,1.3c0.3,0,0.7-0.1,1-0.2l0.5-0.2    c1.1-0.6,1.6-1.9,1-3C991.2,13.7,989.9,13.2,988.8,13.7L988.8,13.7L988.8,13.7z"></path>			<path class="st0" d="M978.2,19.6l-0.4,0.3c-1.1,0.7-1.3,2.1-0.7,3.1c0.7,1.1,2.1,1.3,3.1,0.7l0.4-0.3c1.1-0.6,1.4-2,0.8-3.1    C980.8,19.2,979.4,18.9,978.2,19.6C978.2,19.6,978.2,19.6,978.2,19.6L978.2,19.6z"></path>			<path class="st0" d="M1109.8,45l-3.7-14c-0.1-0.3-0.4-0.5-0.6-0.4c-0.1,0-0.2,0.1-0.2,0.1L1095,41c-0.2,0.2-0.2,0.5,0,0.7    c0.1,0.1,0.1,0.1,0.2,0.1l14,3.7C1109.5,45.6,1109.8,45.4,1109.8,45C1109.9,45.1,1109.9,45.1,1109.8,45z"></path>			<path class="st0" d="M1076.9,15.7l-0.5-0.2c-1.1-0.7-2.5-0.4-3.1,0.7c-0.7,1.1-0.4,2.5,0.7,3.1c0.1,0.1,0.2,0.1,0.3,0.2l0.4,0.2    c1.2,0.5,2.5,0,3-1.2C1078.1,17.5,1077.8,16.3,1076.9,15.7L1076.9,15.7z"></path>			<path class="st0" d="M1065.8,10.6l-0.5-0.2c-1.2-0.4-2.5,0.2-2.9,1.3c-0.4,1.2,0.2,2.5,1.3,2.9l0,0l0.5,0.2    c0.3,0.1,0.5,0.1,0.8,0.1c1.3,0,2.3-1,2.3-2.3C1067.2,11.8,1066.7,11,1065.8,10.6z"></path>			<path class="st0" d="M1042.3,4.8l-0.5-0.1c-1.2-0.1-2.4,0.8-2.5,2s0.8,2.4,2,2.5l0,0l0.5,0.1h0.3c1.3,0,2.3-1,2.3-2.2    C1044.4,6,1043.4,4.9,1042.3,4.8L1042.3,4.8z"></path>			<path class="st0" d="M1054.2,7l-0.5-0.1c-1.2-0.3-2.4,0.5-2.7,1.7s0.5,2.4,1.7,2.7l0.5,0.1c0.2,0,0.4,0.1,0.5,0.1    c1.3,0,2.3-1,2.3-2.2C1056,8.2,1055.3,7.2,1054.2,7z"></path>			<path class="st0" d="M1087.2,22l-0.4-0.3c-1-0.7-2.5-0.4-3.1,0.6c-0.7,1-0.4,2.4,0.5,3.1l0.4,0.3c0.4,0.3,0.8,0.4,1.3,0.4    c1.3,0,2.3-1,2.3-2.3C1088.1,23.2,1087.8,22.5,1087.2,22z"></path>			<path class="st0" d="M1096.8,32.9c0.8-0.9,0.8-2.4-0.2-3.2l-0.4-0.4c-1-0.7-2.4-0.5-3.2,0.5c-0.6,0.9-0.6,2.1,0.2,2.9l0.4,0.3    c0.4,0.4,1,0.6,1.5,0.6C1095.8,33.6,1096.4,33.3,1096.8,32.9z"></path>			<path class="st0" d="M959.6,35.2l-0.4,0.4c-0.9,0.9-0.8,2.4,0.1,3.2l0,0c0.4,0.4,1,0.6,1.5,0.6c0.6,0,1.2-0.3,1.7-0.7l0.3-0.4    c0.9-0.9,0.8-2.4-0.1-3.2C961.9,34.2,960.4,34.3,959.6,35.2z"></path>			<path class="st0" d="M943.1,64.5c-1.1-0.5-2.5,0-3,1.2v0.1l-0.2,0.5c-0.5,1.2,0.1,2.5,1.2,3c0,0,0,0,0.1,0    c0.3,0.1,0.5,0.1,0.8,0.2c0.9,0,1.8-0.6,2.1-1.4l0.2-0.5C944.8,66.3,944.3,65,943.1,64.5L943.1,64.5z"></path>			<path class="st0" d="M955,44c-1-0.7-2.4-0.5-3.2,0.5l0,0l-0.3,0.4c-0.7,1-0.5,2.4,0.5,3.2c1,0.7,2.4,0.5,3.2-0.5l0,0l0.3-0.4    C956.2,46.2,956,44.7,955,44z"></path>			<path class="st0" d="M948.4,53.9c-1.1-0.6-2.5-0.2-3.1,0.9c-0.1,0.2-0.2,0.3-0.2,0.5c-0.6,1.1-0.2,2.5,0.9,3.1l0,0    c0.3,0.2,0.7,0.3,1.1,0.3c0.8,0,1.6-0.5,2-1.2l0.2-0.4C949.9,55.9,949.5,54.5,948.4,53.9z"></path>			<path class="st0" d="M939.1,75.7c-1.2-0.3-2.5,0.4-2.8,1.6l0,0l-0.1,0.5c-0.3,1.2,0.4,2.5,1.7,2.8c0.2,0,0.4,0.1,0.6,0.1    c1,0,1.9-0.7,2.2-1.7l0.1-0.5C941.1,77.2,940.4,76,939.1,75.7L939.1,75.7z"></path>			<path class="st0" d="M936.6,87.3c-1.2-0.2-2.4,0.7-2.5,2l0,0l-0.1,0.5c-0.2,1.2,0.7,2.4,2,2.5l0,0h0.3c1.1,0,2.1-0.9,2.3-2    l0.1-0.5C938.7,88.6,937.9,87.4,936.6,87.3L936.6,87.3z"></path>			<path class="st0" d="M968.4,26.8l-0.4,0.3c-1,0.8-1.1,2.2-0.3,3.2s2.2,1.1,3.2,0.3l0,0l0.4-0.3c1-0.8,1.1-2.2,0.3-3.2    C970.8,26.2,969.3,26,968.4,26.8L968.4,26.8z"></path>			<path class="st0" d="M1011.7,6.1l-0.5,0.1c-1.2,0.2-2,1.4-1.8,2.7c0.2,1.1,1.2,1.9,2.3,1.8c0.1,0,0.3,0,0.5,0l0.5-0.1    c1.2-0.2,2.1-1.4,1.9-2.6c-0.2-1.2-1.4-2.1-2.6-1.9C1011.8,6.1,1011.8,6.1,1011.7,6.1L1011.7,6.1z"></path>			<path class="st0" d="M935.5,99.1L935.5,99.1c-1.2,0-2.3,1-2.3,2.3v0.5c0.1,1.3,1.2,2.2,2.4,2.1c1.1-0.1,2-1,2.1-2.1v-0.5    C937.8,100.1,936.8,99.1,935.5,99.1z"></path>			<path class="st0" d="M1000,9.2l-0.5,0.2c-1.2,0.4-1.9,1.6-1.5,2.8s1.6,1.9,2.8,1.5h0.1l0.5-0.1c1.2-0.5,1.7-1.8,1.3-3    C1002.3,9.5,1001.1,8.9,1000,9.2z"></path>			<path class="st0" d="M988.8,13.7l-0.5,0.2c-1.1,0.5-1.6,1.9-1.1,3c0.4,0.8,1.2,1.3,2.1,1.3c0.3,0,0.7-0.1,1-0.2l0.5-0.2    c1.1-0.6,1.6-1.9,1-3C991.2,13.7,989.9,13.2,988.8,13.7L988.8,13.7L988.8,13.7z"></path>			<path class="st0" d="M978.2,19.6l-0.4,0.3c-1.1,0.7-1.3,2.1-0.7,3.1c0.7,1.1,2.1,1.3,3.1,0.7l0.4-0.3c1.1-0.6,1.4-2,0.8-3.1    C980.8,19.2,979.4,18.9,978.2,19.6C978.2,19.6,978.2,19.6,978.2,19.6L978.2,19.6z"></path>			<path class="st0" d="M1109.8,45l-3.7-14c-0.1-0.3-0.4-0.5-0.6-0.4c-0.1,0-0.2,0.1-0.2,0.1L1095,41c-0.2,0.2-0.2,0.5,0,0.7    c0.1,0.1,0.1,0.1,0.2,0.1l14,3.7C1109.5,45.6,1109.8,45.4,1109.8,45C1109.9,45.1,1109.9,45.1,1109.8,45z"></path>			<path class="st0" d="M1076.9,15.7l-0.5-0.2c-1.1-0.7-2.5-0.4-3.1,0.7c-0.7,1.1-0.4,2.5,0.7,3.1c0.1,0.1,0.2,0.1,0.3,0.2l0.4,0.2    c1.2,0.5,2.5,0,3-1.2C1078.1,17.5,1077.8,16.3,1076.9,15.7L1076.9,15.7z"></path>			<path class="st0" d="M1065.8,10.6l-0.5-0.2c-1.2-0.4-2.5,0.2-2.9,1.3c-0.4,1.2,0.2,2.5,1.3,2.9l0,0l0.5,0.2    c0.3,0.1,0.5,0.1,0.8,0.1c1.3,0,2.3-1,2.3-2.3C1067.2,11.8,1066.7,11,1065.8,10.6z"></path>			<path class="st0" d="M1027.5,4.1L1027,4c-1.2-0.1-2.4,0.8-2.5,2s0.8,2.4,2,2.5l0,0l0.5,0.1h0.3c1.3,0,2.3-1,2.3-2.2    C1029.6,5.2,1028.7,4.2,1027.5,4.1L1027.5,4.1z"></path>			<path class="st0" d="M1054.2,7l-0.5-0.1c-1.2-0.3-2.4,0.5-2.7,1.7s0.5,2.4,1.7,2.7l0.5,0.1c0.2,0,0.4,0.1,0.5,0.1    c1.3,0,2.3-1,2.3-2.2C1056,8.2,1055.3,7.2,1054.2,7z"></path>			<path class="st0" d="M1087.2,22l-0.4-0.3c-1-0.7-2.5-0.4-3.1,0.6c-0.7,1-0.4,2.4,0.5,3.1l0.4,0.3c0.4,0.3,0.8,0.4,1.3,0.4    c1.3,0,2.3-1,2.3-2.3C1088.1,23.2,1087.8,22.5,1087.2,22z"></path>			<path class="st0" d="M1096.8,32.9c0.8-0.9,0.8-2.4-0.2-3.2l-0.4-0.4c-1-0.7-2.4-0.5-3.2,0.5c-0.6,0.9-0.6,2.1,0.2,2.9l0.4,0.3    c0.4,0.4,1,0.6,1.5,0.6C1095.8,33.6,1096.4,33.3,1096.8,32.9z"></path>			<path class="st0" d="M959.6,35.2l-0.4,0.4c-0.9,0.9-0.8,2.4,0.1,3.2l0,0c0.4,0.4,1,0.6,1.5,0.6c0.6,0,1.2-0.3,1.7-0.7l0.3-0.4    c0.9-0.9,0.8-2.4-0.1-3.2C961.9,34.2,960.4,34.3,959.6,35.2z"></path>			<path class="st0" d="M943.1,64.5c-1.1-0.5-2.5,0-3,1.2v0.1l-0.2,0.5c-0.5,1.2,0.1,2.5,1.2,3c0,0,0,0,0.1,0    c0.3,0.1,0.5,0.1,0.8,0.2c0.9,0,1.8-0.6,2.1-1.4l0.2-0.5C944.8,66.3,944.3,65,943.1,64.5L943.1,64.5z"></path>			<path class="st0" d="M955,44c-1-0.7-2.4-0.5-3.2,0.5l0,0l-0.3,0.4c-0.7,1-0.5,2.4,0.5,3.2c1,0.7,2.4,0.5,3.2-0.5l0,0l0.3-0.4    C956.2,46.2,956,44.7,955,44z"></path>			<path class="st0" d="M948.4,53.9c-1.1-0.6-2.5-0.2-3.1,0.9c-0.1,0.2-0.2,0.3-0.2,0.5c-0.6,1.1-0.2,2.5,0.9,3.1l0,0    c0.3,0.2,0.7,0.3,1.1,0.3c0.8,0,1.6-0.5,2-1.2l0.2-0.4C949.9,55.9,949.5,54.5,948.4,53.9z"></path>			<path class="st0" d="M939.1,75.7c-1.2-0.3-2.5,0.4-2.8,1.6l0,0l-0.1,0.5c-0.3,1.2,0.4,2.5,1.7,2.8c0.2,0,0.4,0.1,0.6,0.1    c1,0,1.9-0.7,2.2-1.7l0.1-0.5C941.1,77.2,940.4,76,939.1,75.7L939.1,75.7z"></path>			<path class="st0" d="M936.6,87.3c-1.2-0.2-2.4,0.7-2.5,2l0,0l-0.1,0.5c-0.2,1.2,0.7,2.4,2,2.5l0,0h0.3c1.1,0,2.1-0.9,2.3-2    l0.1-0.5C938.7,88.6,937.9,87.4,936.6,87.3L936.6,87.3z"></path>			<path class="st0" d="M968.4,26.8l-0.4,0.3c-1,0.8-1.1,2.2-0.3,3.2s2.2,1.1,3.2,0.3l0,0l0.4-0.3c1-0.8,1.1-2.2,0.3-3.2    C970.8,26.2,969.3,26,968.4,26.8L968.4,26.8z"></path>			<path class="st0" d="M1011.7,6.1l-0.5,0.1c-1.2,0.2-2,1.4-1.8,2.7c0.2,1.1,1.2,1.9,2.3,1.8c0.1,0,0.3,0,0.5,0l0.5-0.1    c1.2-0.2,2.1-1.4,1.9-2.6c-0.2-1.2-1.4-2.1-2.6-1.9C1011.8,6.1,1011.8,6.1,1011.7,6.1L1011.7,6.1z"></path>			<path class="st0" d="M935.5,99.1L935.5,99.1c-1.2,0-2.3,1-2.3,2.3v0.5c0.1,1.3,1.2,2.2,2.4,2.1c1.1-0.1,2-1,2.1-2.1v-0.5    C937.8,100.1,936.8,99.1,935.5,99.1z"></path>			<path class="st0" d="M1000,9.2l-0.5,0.2c-1.2,0.4-1.9,1.6-1.5,2.8s1.6,1.9,2.8,1.5h0.1l0.5-0.1c1.2-0.5,1.7-1.8,1.3-3    C1002.3,9.5,1001.1,8.9,1000,9.2z"></path>			<path class="st0" d="M988.8,13.7l-0.5,0.2c-1.1,0.5-1.6,1.9-1.1,3c0.4,0.8,1.2,1.3,2.1,1.3c0.3,0,0.7-0.1,1-0.2l0.5-0.2    c1.1-0.6,1.6-1.9,1-3C991.2,13.7,989.9,13.2,988.8,13.7L988.8,13.7L988.8,13.7z"></path>			<path class="st0" d="M978.2,19.6l-0.4,0.3c-1.1,0.7-1.3,2.1-0.7,3.1c0.7,1.1,2.1,1.3,3.1,0.7l0.4-0.3c1.1-0.6,1.4-2,0.8-3.1    C980.8,19.2,979.4,18.9,978.2,19.6C978.2,19.6,978.2,19.6,978.2,19.6L978.2,19.6z"></path>			<path class="st0" d="M1109.8,45l-3.7-14c-0.1-0.3-0.4-0.5-0.6-0.4c-0.1,0-0.2,0.1-0.2,0.1L1095,41c-0.2,0.2-0.2,0.5,0,0.7    c0.1,0.1,0.1,0.1,0.2,0.1l14,3.7C1109.5,45.6,1109.8,45.4,1109.8,45C1109.9,45.1,1109.9,45.1,1109.8,45z"></path>			<path class="st0" d="M50.9,191.3l-0.5-0.1c-1.2-0.4-2.5,0.3-2.8,1.5s0.3,2.5,1.5,2.8l0.5,0.1c0.2,0.1,0.4,0.1,0.6,0.1    c1.3,0,2.3-1,2.3-2.3C52.5,192.5,51.9,191.6,50.9,191.3z"></path>			<path class="st0" d="M29.7,182.1l-0.4-0.2c-1-0.8-2.4-0.6-3.2,0.4c-0.8,1-0.6,2.4,0.4,3.2c0.1,0.1,0.3,0.2,0.5,0.3l0.5,0.3    c0.3,0.2,0.7,0.3,1.1,0.3c1.3,0,2.3-1,2.3-2.3C30.9,183.3,30.4,182.5,29.7,182.1L29.7,182.1z"></path>			<path class="st0" d="M20.1,175.6l-0.4-0.3c-1-0.8-2.4-0.6-3.2,0.4s-0.6,2.4,0.4,3.2l0,0l0.4,0.3c1,0.8,2.4,0.6,3.2-0.4    C21.3,177.8,21.1,176.4,20.1,175.6L20.1,175.6L20.1,175.6z"></path>			<path class="st0" d="M62.2,193.8l-0.5-0.1c-1.2-0.2-2.4,0.6-2.6,1.9c-0.2,1.2,0.6,2.4,1.9,2.6l0.5,0.1c0.1,0,0.2,0,0.4,0    c1.3,0,2.3-1,2.3-2.3C64.1,194.9,63.3,194,62.2,193.8L62.2,193.8z"></path>			<path class="st0" d="M40,187.4l-0.5-0.2c-1.1-0.5-2.5,0-3,1.2c-0.5,1.1,0,2.5,1.2,3l0.5,0.2c0.3,0.1,0.6,0.2,0.9,0.2    c1.3,0,2.3-1,2.3-2.3C41.4,188.6,40.8,187.7,40,187.4L40,187.4z"></path>			<path class="st0" d="M163.4,142.1c-1.1-0.5-2.4-0.1-3,1l-0.2,0.4c-0.5,1.1-0.1,2.4,1,3c0.3,0.2,0.7,0.2,1,0.2    c0.9,0,1.6-0.5,2-1.3l0.2-0.5C164.9,144,164.5,142.6,163.4,142.1z"></path>			<path class="st0" d="M157.8,152.5c-1-0.7-2.4-0.4-3.1,0.6l0,0l-0.3,0.4c-0.7,1-0.4,2.5,0.6,3.2s2.5,0.4,3.2-0.6l0.3-0.4    C159.1,154.6,158.8,153.2,157.8,152.5L157.8,152.5z"></path>			<path class="st0" d="M87.7,194.3l-0.5,0.1c-1.2,0.1-2.2,1.2-2,2.5c0.1,1.2,1.1,2.1,2.3,2.1h0.3l0.5-0.1c1.2-0.1,2.1-1.3,2-2.5    C90.1,195.1,89,194.2,87.7,194.3L87.7,194.3L87.7,194.3z"></path>			<path class="st0" d="M167.7,131.1c-1.2-0.4-2.5,0.2-2.9,1.4l-0.2,0.5c-0.4,1.2,0.2,2.5,1.4,2.9l0,0c0.2,0.1,0.5,0.1,0.8,0.1    c1,0,1.8-0.6,2.1-1.5c0.1-0.2,0.1-0.3,0.2-0.5C169.6,132.8,168.9,131.5,167.7,131.1z"></path>			<path class="st0" d="M170.6,119.6c-1.2-0.3-2.4,0.5-2.7,1.7l0,0l-0.1,0.5c-0.3,1.2,0.5,2.4,1.7,2.7l0,0c0.2,0,0.3,0.1,0.5,0.1    c1.1,0,2-0.7,2.2-1.8l0.1-0.5C172.7,121,171.9,119.8,170.6,119.6z"></path>			<path class="st0" d="M172.1,107.8c-1.2-0.1-2.4,0.8-2.5,2.1l0,0c0,0.2,0,0.3,0,0.5c-0.1,1.2,0.8,2.4,2.1,2.5l0,0h0.2    c1.2,0,2.2-0.9,2.3-2.1c0-0.2,0-0.3,0.1-0.5C174.3,109,173.4,107.9,172.1,107.8L172.1,107.8z"></path>			<path class="st0" d="M99.1,192.3l-0.5,0.1c-1.2,0.3-2,1.5-1.7,2.7c0.2,1,1.2,1.8,2.2,1.8c0.2,0,0.4,0,0.5-0.1l0.5-0.1    c1.2-0.3,2-1.5,1.7-2.7C101.6,192.7,100.3,192,99.1,192.3L99.1,192.3z"></path>			<path class="st0" d="M130.6,177.9l-0.4,0.3c-1,0.7-1.3,2.2-0.5,3.2c0.4,0.6,1.1,1,1.8,1c0.5,0,0.9-0.1,1.3-0.4l0.4-0.3    c1-0.7,1.3-2.1,0.5-3.2C133,177.5,131.6,177.2,130.6,177.9L130.6,177.9z"></path>			<path class="st0" d="M120.7,184l-0.4,0.2c-1.1,0.6-1.6,1.9-1,3.1c0.4,0.8,1.2,1.2,2,1.2c0.3,0,0.7-0.1,1-0.3l0.5-0.2    c1.1-0.5,1.6-1.9,1.1-3s-1.9-1.6-3-1.1C120.8,184,120.7,184,120.7,184L120.7,184z"></path>			<path class="st0" d="M139.6,170.7l-0.4,0.3c-0.9,0.8-1,2.3-0.2,3.2c0.4,0.5,1,0.7,1.7,0.8c0.6,0,1.1-0.2,1.5-0.6l0.4-0.3    c0.9-0.9,0.9-2.3-0.1-3.2C141.8,170,140.5,170,139.6,170.7L139.6,170.7z"></path>			<path class="st0" d="M150.8,162.1c-1-0.8-2.4-0.7-3.2,0.2l0,0l-0.3,0.4c-0.8,0.9-0.7,2.4,0.2,3.2s2.4,0.7,3.2-0.2l0.3-0.4    C151.9,164.4,151.8,163,150.8,162.1C150.9,162.1,150.9,162.1,150.8,162.1z"></path>			<path class="st0" d="M110.2,188.8l-0.5,0.2c-1.2,0.4-1.8,1.8-1.3,2.9c0.4,1.2,1.8,1.8,2.9,1.3l0.5-0.2c1.2-0.4,1.8-1.8,1.3-2.9    C112.7,189,111.3,188.4,110.2,188.8z"></path>			<circle class="st0" cx="6.7" cy="166.8" r="6.7"></circle>			<path class="st0" d="M50.9,191.3l-0.5-0.1c-1.2-0.4-2.5,0.3-2.8,1.5s0.3,2.5,1.5,2.8l0.5,0.1c0.2,0.1,0.4,0.1,0.6,0.1    c1.3,0,2.3-1,2.3-2.3C52.5,192.5,51.9,191.6,50.9,191.3z"></path>			<path class="st0" d="M29.7,182.1l-0.4-0.2c-1-0.8-2.4-0.6-3.2,0.4c-0.8,1-0.6,2.4,0.4,3.2c0.1,0.1,0.3,0.2,0.5,0.3l0.5,0.3    c0.3,0.2,0.7,0.3,1.1,0.3c1.3,0,2.3-1,2.3-2.3C30.9,183.3,30.4,182.5,29.7,182.1L29.7,182.1z"></path>			<path class="st0" d="M20.1,175.6l-0.4-0.3c-1-0.8-2.4-0.6-3.2,0.4s-0.6,2.4,0.4,3.2l0,0l0.4,0.3c1,0.8,2.4,0.6,3.2-0.4    C21.3,177.8,21.1,176.4,20.1,175.6L20.1,175.6L20.1,175.6z"></path>			<path class="st0" d="M62.2,193.8l-0.5-0.1c-1.2-0.2-2.4,0.6-2.6,1.9c-0.2,1.2,0.6,2.4,1.9,2.6l0.5,0.1c0.1,0,0.2,0,0.4,0    c1.3,0,2.3-1,2.3-2.3C64.1,194.9,63.3,194,62.2,193.8L62.2,193.8z"></path>			<path class="st0" d="M40,187.4l-0.5-0.2c-1.1-0.5-2.5,0-3,1.2c-0.5,1.1,0,2.5,1.2,3l0.5,0.2c0.3,0.1,0.6,0.2,0.9,0.2    c1.3,0,2.3-1,2.3-2.3C41.4,188.6,40.8,187.7,40,187.4L40,187.4z"></path>			<path class="st0" d="M163.4,142.1c-1.1-0.5-2.4-0.1-3,1l-0.2,0.4c-0.5,1.1-0.1,2.4,1,3c0.3,0.2,0.7,0.2,1,0.2    c0.9,0,1.6-0.5,2-1.3l0.2-0.5C164.9,144,164.5,142.6,163.4,142.1z"></path>			<path class="st0" d="M157.8,152.5c-1-0.7-2.4-0.4-3.1,0.6l0,0l-0.3,0.4c-0.7,1-0.4,2.5,0.6,3.2s2.5,0.4,3.2-0.6l0.3-0.4    C159.1,154.6,158.8,153.2,157.8,152.5L157.8,152.5z"></path>			<path class="st0" d="M87.7,194.3l-0.5,0.1c-1.2,0.1-2.2,1.2-2,2.5c0.1,1.2,1.1,2.1,2.3,2.1h0.3l0.5-0.1c1.2-0.1,2.1-1.3,2-2.5    C90.1,195.1,89,194.2,87.7,194.3L87.7,194.3L87.7,194.3z"></path>			<path class="st0" d="M74.5,195.5l-0.5,0.1c-1.2,0.1-2.2,1.2-2,2.5c0.1,1.2,1.1,2.1,2.3,2.1h0.3L75,200c1.2-0.1,2.1-1.3,2-2.5    C76.9,196.2,75.7,195.3,74.5,195.5L74.5,195.5L74.5,195.5z"></path>			<path class="st0" d="M167.7,131.1c-1.2-0.4-2.5,0.2-2.9,1.4l-0.2,0.5c-0.4,1.2,0.2,2.5,1.4,2.9l0,0c0.2,0.1,0.5,0.1,0.8,0.1    c1,0,1.8-0.6,2.1-1.5c0.1-0.2,0.1-0.3,0.2-0.5C169.6,132.8,168.9,131.5,167.7,131.1z"></path>			<path class="st0" d="M170.6,119.6c-1.2-0.3-2.4,0.5-2.7,1.7l0,0l-0.1,0.5c-0.3,1.2,0.5,2.4,1.7,2.7l0,0c0.2,0,0.3,0.1,0.5,0.1    c1.1,0,2-0.7,2.2-1.8l0.1-0.5C172.7,121,171.9,119.8,170.6,119.6z"></path>			<path class="st0" d="M172.1,107.8c-1.2-0.1-2.4,0.8-2.5,2.1l0,0c0,0.2,0,0.3,0,0.5c-0.1,1.2,0.8,2.4,2.1,2.5l0,0h0.2    c1.2,0,2.2-0.9,2.3-2.1c0-0.2,0-0.3,0.1-0.5C174.3,109,173.4,107.9,172.1,107.8L172.1,107.8z"></path>			<path class="st0" d="M99.1,192.3l-0.5,0.1c-1.2,0.3-2,1.5-1.7,2.7c0.2,1,1.2,1.8,2.2,1.8c0.2,0,0.4,0,0.5-0.1l0.5-0.1    c1.2-0.3,2-1.5,1.7-2.7C101.6,192.7,100.3,192,99.1,192.3L99.1,192.3z"></path>			<path class="st0" d="M130.6,177.9l-0.4,0.3c-1,0.7-1.3,2.2-0.5,3.2c0.4,0.6,1.1,1,1.8,1c0.5,0,0.9-0.1,1.3-0.4l0.4-0.3    c1-0.7,1.3-2.1,0.5-3.2C133,177.5,131.6,177.2,130.6,177.9L130.6,177.9z"></path>			<path class="st0" d="M120.7,184l-0.4,0.2c-1.1,0.6-1.6,1.9-1,3.1c0.4,0.8,1.2,1.2,2,1.2c0.3,0,0.7-0.1,1-0.3l0.5-0.2    c1.1-0.5,1.6-1.9,1.1-3s-1.9-1.6-3-1.1C120.8,184,120.7,184,120.7,184L120.7,184z"></path>			<path class="st0" d="M139.6,170.7l-0.4,0.3c-0.9,0.8-1,2.3-0.2,3.2c0.4,0.5,1,0.7,1.7,0.8c0.6,0,1.1-0.2,1.5-0.6l0.4-0.3    c0.9-0.9,0.9-2.3-0.1-3.2C141.8,170,140.5,170,139.6,170.7L139.6,170.7z"></path>			<path class="st0" d="M150.8,162.1c-1-0.8-2.4-0.7-3.2,0.2l0,0l-0.3,0.4c-0.8,0.9-0.7,2.4,0.2,3.2s2.4,0.7,3.2-0.2l0.3-0.4    C151.9,164.4,151.8,163,150.8,162.1C150.9,162.1,150.9,162.1,150.8,162.1z"></path>			<path class="st0" d="M110.2,188.8l-0.5,0.2c-1.2,0.4-1.8,1.8-1.3,2.9c0.4,1.2,1.8,1.8,2.9,1.3l0.5-0.2c1.2-0.4,1.8-1.8,1.3-2.9    C112.7,189,111.3,188.4,110.2,188.8z"></path>			<circle class="st0" cx="6.7" cy="166.8" r="6.7"></circle>			<path class="st0" d="M50.9,191.3l-0.5-0.1c-1.2-0.4-2.5,0.3-2.8,1.5s0.3,2.5,1.5,2.8l0.5,0.1c0.2,0.1,0.4,0.1,0.6,0.1    c1.3,0,2.3-1,2.3-2.3C52.5,192.5,51.9,191.6,50.9,191.3z"></path>			<path class="st0" d="M29.7,182.1l-0.4-0.2c-1-0.8-2.4-0.6-3.2,0.4c-0.8,1-0.6,2.4,0.4,3.2c0.1,0.1,0.3,0.2,0.5,0.3l0.5,0.3    c0.3,0.2,0.7,0.3,1.1,0.3c1.3,0,2.3-1,2.3-2.3C30.9,183.3,30.4,182.5,29.7,182.1L29.7,182.1z"></path>			<path class="st0" d="M20.1,175.6l-0.4-0.3c-1-0.8-2.4-0.6-3.2,0.4s-0.6,2.4,0.4,3.2l0,0l0.4,0.3c1,0.8,2.4,0.6,3.2-0.4    C21.3,177.8,21.1,176.4,20.1,175.6L20.1,175.6L20.1,175.6z"></path>			<path class="st0" d="M62.2,193.8l-0.5-0.1c-1.2-0.2-2.4,0.6-2.6,1.9c-0.2,1.2,0.6,2.4,1.9,2.6l0.5,0.1c0.1,0,0.2,0,0.4,0    c1.3,0,2.3-1,2.3-2.3C64.1,194.9,63.3,194,62.2,193.8L62.2,193.8z"></path>			<path class="st0" d="M40,187.4l-0.5-0.2c-1.1-0.5-2.5,0-3,1.2c-0.5,1.1,0,2.5,1.2,3l0.5,0.2c0.3,0.1,0.6,0.2,0.9,0.2    c1.3,0,2.3-1,2.3-2.3C41.4,188.6,40.8,187.7,40,187.4L40,187.4z"></path>			<path class="st0" d="M163.4,142.1c-1.1-0.5-2.4-0.1-3,1l-0.2,0.4c-0.5,1.1-0.1,2.4,1,3c0.3,0.2,0.7,0.2,1,0.2    c0.9,0,1.6-0.5,2-1.3l0.2-0.5C164.9,144,164.5,142.6,163.4,142.1z"></path>			<path class="st0" d="M157.8,152.5c-1-0.7-2.4-0.4-3.1,0.6l0,0l-0.3,0.4c-0.7,1-0.4,2.5,0.6,3.2s2.5,0.4,3.2-0.6l0.3-0.4    C159.1,154.6,158.8,153.2,157.8,152.5L157.8,152.5z"></path>			<path class="st0" d="M167.7,131.1c-1.2-0.4-2.5,0.2-2.9,1.4l-0.2,0.5c-0.4,1.2,0.2,2.5,1.4,2.9l0,0c0.2,0.1,0.5,0.1,0.8,0.1    c1,0,1.8-0.6,2.1-1.5c0.1-0.2,0.1-0.3,0.2-0.5C169.6,132.8,168.9,131.5,167.7,131.1z"></path>			<path class="st0" d="M170.6,119.6c-1.2-0.3-2.4,0.5-2.7,1.7l0,0l-0.1,0.5c-0.3,1.2,0.5,2.4,1.7,2.7l0,0c0.2,0,0.3,0.1,0.5,0.1    c1.1,0,2-0.7,2.2-1.8l0.1-0.5C172.7,121,171.9,119.8,170.6,119.6z"></path>			<path class="st0" d="M172.1,107.8c-1.2-0.1-2.4,0.8-2.5,2.1l0,0c0,0.2,0,0.3,0,0.5c-0.1,1.2,0.8,2.4,2.1,2.5l0,0h0.2    c1.2,0,2.2-0.9,2.3-2.1c0-0.2,0-0.3,0.1-0.5C174.3,109,173.4,107.9,172.1,107.8L172.1,107.8z"></path>			<path class="st0" d="M99.1,192.3l-0.5,0.1c-1.2,0.3-2,1.5-1.7,2.7c0.2,1,1.2,1.8,2.2,1.8c0.2,0,0.4,0,0.5-0.1l0.5-0.1    c1.2-0.3,2-1.5,1.7-2.7C101.6,192.7,100.3,192,99.1,192.3L99.1,192.3z"></path>			<path class="st0" d="M130.6,177.9l-0.4,0.3c-1,0.7-1.3,2.2-0.5,3.2c0.4,0.6,1.1,1,1.8,1c0.5,0,0.9-0.1,1.3-0.4l0.4-0.3    c1-0.7,1.3-2.1,0.5-3.2C133,177.5,131.6,177.2,130.6,177.9L130.6,177.9z"></path>			<path class="st0" d="M120.7,184l-0.4,0.2c-1.1,0.6-1.6,1.9-1,3.1c0.4,0.8,1.2,1.2,2,1.2c0.3,0,0.7-0.1,1-0.3l0.5-0.2    c1.1-0.5,1.6-1.9,1.1-3s-1.9-1.6-3-1.1C120.8,184,120.7,184,120.7,184L120.7,184z"></path>			<path class="st0" d="M139.6,170.7l-0.4,0.3c-0.9,0.8-1,2.3-0.2,3.2c0.4,0.5,1,0.7,1.7,0.8c0.6,0,1.1-0.2,1.5-0.6l0.4-0.3    c0.9-0.9,0.9-2.3-0.1-3.2C141.8,170,140.5,170,139.6,170.7L139.6,170.7z"></path>			<path class="st0" d="M150.8,162.1c-1-0.8-2.4-0.7-3.2,0.2l0,0l-0.3,0.4c-0.8,0.9-0.7,2.4,0.2,3.2s2.4,0.7,3.2-0.2l0.3-0.4    C151.9,164.4,151.8,163,150.8,162.1C150.9,162.1,150.9,162.1,150.8,162.1z"></path>			<path class="st0" d="M110.2,188.8l-0.5,0.2c-1.2,0.4-1.8,1.8-1.3,2.9c0.4,1.2,1.8,1.8,2.9,1.3l0.5-0.2c1.2-0.4,1.8-1.8,1.3-2.9    C112.7,189,111.3,188.4,110.2,188.8z"></path>			<circle class="st0" cx="6.7" cy="166.8" r="6.7"></circle>		</g>	</g></g></svg>