<svg xmlns="http://www.w3.org/2000/svg" viewBox="0 0 46 46"><defs><style>.cls-1{fill:#f8f9f9;}.cls-2{fill:#bec6c6;}.cls-3{fill:#0d1419;}.cls-4{fill:#94c748;}</style></defs><g id="Camada_2" data-name="Camada 2"><g id="Employee"><path class="cls-1" d="M36,23.28V33H10V23.28a4,4,0,0,1,3.22-3.92L20,18V15.19a6,6,0,0,0,6,0V18l6.78,1.36A4,4,0,0,1,36,23.28Z"></path><polygon class="cls-2" points="25.8 24.3 24 27 22 27 20.2 24.3 21.68 19.12 23 20 24.32 19.12 25.8 24.3"></polygon><path class="cls-1" d="M29,7v3a6,6,0,0,1-12,0V7A6,6,0,0,1,27.24,2.76,5.94,5.94,0,0,1,29,7Z"></path><path class="cls-2" d="M29,7V8H26.83A6.84,6.84,0,0,1,22,6a6.84,6.84,0,0,1-5,2V7A6,6,0,0,1,27.24,2.76,5.94,5.94,0,0,1,29,7Z"></path><rect class="cls-1" x="3" y="37" width="40" height="8"></rect><rect class="cls-2" x="1" y="33" width="44" height="4"></rect><rect class="cls-2" x="34" y="29" width="8" height="4"></rect><path class="cls-3" d="M45,32H43V29a1,1,0,0,0-1-1H37V23.28a5,5,0,0,0-4-4.9l-6-1.2V15.74A7,7,0,0,0,30,10V7A7,7,0,0,0,16,7v3a7,7,0,0,0,3,5.74v1.44l-6,1.2a5,5,0,0,0-4,4.9V32H1a1,1,0,0,0-1,1v4a1,1,0,0,0,1,1H2v7a1,1,0,0,0,2,0V38H42v7a1,1,0,0,0,2,0V38h1a1,1,0,0,0,1-1V33A1,1,0,0,0,45,32Zm-4-2v2H35V30ZM23,2a5,5,0,0,1,5,5H26.83a5.79,5.79,0,0,1-4.12-1.71,1,1,0,0,0-1.42,0A5.69,5.69,0,0,1,18,6.93,5,5,0,0,1,23,2Zm-5,8V8.93a7.8,7.8,0,0,0,4-1.59A7.81,7.81,0,0,0,26.83,9H28v1a5,5,0,1,1-10,0Zm7,6.71v.75L23,18.8l-2-1.34v-.75A7,7,0,0,0,25,16.71Zm-5.21,2.35C22.63,21,22.59,21,23,21s.62-.21,3.21-1.94l1.94.39L26.32,24H19.68l-1.83-4.55ZM11,23.28a3,3,0,0,1,2.41-2.94,20.67,20.67,0,0,0,2.44-.49l2.22,5.52A1,1,0,0,0,19,26h8a1,1,0,0,0,.93-.63l2.22-5.52,2.44.49A3,3,0,0,1,35,23.28V28H34a1,1,0,0,0-1,1v3H11ZM44,36H2V34H44Z"></path><path class="cls-4" d="M31,32H15l-.86-6.88a1,1,0,0,1,1-1.12H30.87a1,1,0,0,1,1,1.12Z"></path><circle class="cls-1" cx="23" cy="28" r="1"></circle></g></g></svg>