<svg xmlns="http://www.w3.org/2000/svg" viewBox="0 0 32 32"><defs><style>.cls-1,.cls-2{fill:none;stroke-linecap:round;stroke-linejoin:round;stroke-width:2px;}.cls-1{stroke:#0d1419;}.cls-2{stroke:#94c748;}</style></defs><g id="Camada_2" data-name="Camada 2"><g id="List"><path class="cls-1" d="M23,21v8a2,2,0,0,1-2,2H3a2,2,0,0,1-2-2V7A2,2,0,0,1,3,5H7"></path><path class="cls-1" d="M17,5h4a2,2,0,0,1,2,2V17"></path><polyline class="cls-2" points="5 19 12 13 19 19"></polyline><path class="cls-2" d="M17,17.29V24a1,1,0,0,1-1,1H8a1,1,0,0,1-1-1V13"></path><line class="cls-2" x1="12" y1="25" x2="12" y2="22"></line><rect class="cls-1" x="7" y="3" width="10" height="4" rx="1"></rect><line class="cls-1" x1="12" y1="3" x2="12" y2="1"></line><path class="cls-1" d="M31,29l-2,2-2-2V9a2,2,0,0,1,2-2h0a2,2,0,0,1,2,2Z"></path><line class="cls-1" x1="27" y1="13" x2="31" y2="13"></line></g></g></svg>