<svg xmlns="http://www.w3.org/2000/svg" viewBox="0 0 639.21 1802.86"><defs><style>.cls-1{fill:#8cbd46;}</style></defs><g id="Camada_2" data-name="Camada 2"><g id="Layer_1" data-name="Layer 1"><path class="cls-1" d="M557.81,124.35,630.28,52a30.43,30.43,0,0,0,6.43-33.6h0A30.45,30.45,0,0,0,607.84,0L505.46,3.13A14.07,14.07,0,0,0,493,22.78h0a14.09,14.09,0,0,0,8.37,7.74l29.53,10.1a28.82,28.82,0,0,1,17,39l-12.91,29a14.06,14.06,0,0,0-.06,11.3l0,.06A14.08,14.08,0,0,0,557.81,124.35Z"></path><path class="cls-1" d="M276.92,1774.91a11.94,11.94,0,0,1,19-14.42C307.58,1775,314.6,1783,314.67,1783a11.94,11.94,0,0,1-17.93,15.76c-.29-.33-7.4-8.42-19.4-23.35Q277.12,1775.18,276.92,1774.91Z"></path><path class="cls-1" d="M228.83,1711.38c-7.67-10.71-15.32-21.69-22.75-32.63a11.94,11.94,0,1,1,19.75-13.41c7.32,10.78,14.86,21.59,22.41,32.14q6.06,8.46,11.74,16.18l.09.13a11.94,11.94,0,0,1-19.32,14Q235,1720,228.83,1711.38Zm-55.14-82.33a6.9,6.9,0,0,1-.42-.63c-10.68-17.07-21.06-34.41-30.87-51.55A11.94,11.94,0,0,1,163.13,1565c9.65,16.87,19.87,33.94,30.38,50.75a11.94,11.94,0,0,1-19.82,13.29Zm-59.14-103.5a11.43,11.43,0,0,1-.9-1.48c-9.32-18-18.21-36.19-26.42-54a11.94,11.94,0,1,1,21.69-10c8.06,17.51,16.79,35.37,25.93,53a11.94,11.94,0,0,1-20.3,12.45Zm-49.73-108.3a11.88,11.88,0,0,1-1.38-2.53c-7.57-18.93-14.56-38-20.79-56.58a11.94,11.94,0,0,1,22.64-7.58c6.09,18.18,12.92,36.79,20.32,55.3a11.94,11.94,0,0,1-20.79,11.39Zm-37.67-113a11.91,11.91,0,0,1-1.83-3.91c-5.23-19.8-9.71-39.64-13.32-58.95A11.94,11.94,0,1,1,35.47,1237c3.5,18.74,7.86,38,12.94,57.25a11.94,11.94,0,0,1-21.26,10Zm-21.66-117a11.79,11.79,0,0,1-2.16-5.73C1.25,1161,.13,1140.65,0,1120.89a11.94,11.94,0,1,1,23.88-.16c.12,19,1.2,38.64,3.2,58.31a11.94,11.94,0,0,1-21.59,8.15Zm-.57-118.87a11.89,11.89,0,0,1-2.17-8.13,532.1,532.1,0,0,1,9.44-60.12,11.94,11.94,0,0,1,23.33,5.08,506.6,506.6,0,0,0-9,57.4,11.94,11.94,0,0,1-21.59,5.77Zm25.36-116a11.93,11.93,0,0,1-1.57-10.89A494.58,494.58,0,0,1,52.32,885.3a11.94,11.94,0,0,1,21.4,10.59q-3.19,6.43-6.18,13s0,.06,0,.08a557.65,557.65,0,0,0,19.26,55A11.94,11.94,0,0,1,64.73,973c-4-9.78-7.78-19.75-11.28-29.83q-1.12,3.06-2.19,6.13a11.95,11.95,0,0,1-21,3Zm92.82,127.41,0,0A515,515,0,0,1,90.85,1028a11.94,11.94,0,1,1,21-11.43,493,493,0,0,0,30.73,49.34,11.94,11.94,0,0,1-19.44,13.86Zm37.59,46.13a11.94,11.94,0,0,1,18.42-15.11,343.65,343.65,0,0,0,42.59,38.61,11.94,11.94,0,0,1-14.42,19,367.44,367.44,0,0,1-45.58-41.3A11.78,11.78,0,0,1,160.69,1125.88Zm95,70.64a11.94,11.94,0,0,1,14.6-17.85c18,8.12,36,13.18,53.44,15a11.94,11.94,0,0,1-2.53,23.75c-20-2.13-40.38-7.85-60.72-17A11.8,11.8,0,0,1,255.7,1196.52ZM32.68,861.3a11.76,11.76,0,0,1-2-4.81,582.21,582.21,0,0,1-7.76-60.29,11.94,11.94,0,0,1,23.81-1.8,553.8,553.8,0,0,0,7.44,57.81,11.94,11.94,0,0,1-21.46,9.09ZM82.9,845.94a11.93,11.93,0,0,1-.27-13.5,422.67,422.67,0,0,1,37-48.78,11.94,11.94,0,0,1,17.85,15.86,398.17,398.17,0,0,0-34.92,46A11.94,11.94,0,0,1,86.06,849,11.72,11.72,0,0,1,82.9,845.94ZM23.77,742.73a11.87,11.87,0,0,1-2.22-7.32,562,562,0,0,1,5.21-60.6,11.94,11.94,0,0,1,23.64,3.34,539.62,539.62,0,0,0-5,58,11.94,11.94,0,0,1-21.64,6.56ZM371.6,1207a11.93,11.93,0,0,1,6.16-18.36,138.5,138.5,0,0,0,39.55-19.9c2.79-2,5.58-4.13,8.29-6.35a11.94,11.94,0,1,1,15.12,18.48c-3.1,2.54-6.31,5-9.51,7.29a162.31,162.31,0,0,1-46.36,23.28A11.93,11.93,0,0,1,371.6,1207Zm-331.18-582a11.91,11.91,0,0,1-1.86-9.91,555.46,555.46,0,0,1,18.27-58,11.94,11.94,0,0,1,22.35,8.4,534.67,534.67,0,0,0-17.49,55.52,11.94,11.94,0,0,1-21.27,4ZM162.54,758.19a11.93,11.93,0,0,1,2.63-16.56l2.66-1.93a211.23,211.23,0,0,1,52.66-27.82,11.94,11.94,0,1,1,7.92,22.52,187.19,187.19,0,0,0-46.68,24.72c-.81.57-1.61,1.15-2.41,1.74a11.94,11.94,0,0,1-16.69-2.54Zm301,376.69a12,12,0,0,1-.13-13.71A199.63,199.63,0,0,0,488.25,1071a11.94,11.94,0,0,1,22.66,7.52,223.31,223.31,0,0,1-27.83,56.16,12,12,0,0,1-19.55.19ZM81.74,513.55a11.92,11.92,0,0,1-1.13-12c8.51-18.29,17.53-36.42,26.81-53.88a11.94,11.94,0,1,1,21.08,11.2c-9.08,17.09-17.91,34.84-26.24,52.75a11.93,11.93,0,0,1-20.52,1.92ZM273.17,720.74a11.94,11.94,0,0,1,10-18.87,182.81,182.81,0,0,1,62,12.86,11.94,11.94,0,1,1-8.7,22.23,159.06,159.06,0,0,0-53.95-11.22A11.94,11.94,0,0,1,273.17,720.74Zm228,302.68a11.83,11.83,0,0,1-2.2-7.75,265.27,265.27,0,0,0-2.45-56.84,11.94,11.94,0,1,1,23.61-3.52,288.45,288.45,0,0,1,2.66,62,11.93,11.93,0,0,1-21.62,6.14ZM484.21,906.29a12.15,12.15,0,0,1-1.56-3A322.88,322.88,0,0,0,459,851a11.94,11.94,0,0,1,20.78-11.76,347.13,347.13,0,0,1,25.46,56.12,11.94,11.94,0,0,1-21,10.9ZM382.74,762.17a11.94,11.94,0,0,1,16.94-16.45,285.5,285.5,0,0,1,44.85,42.88A11.94,11.94,0,1,1,426.3,804a261.42,261.42,0,0,0-41.08-39.3A12,12,0,0,1,382.74,762.17ZM137.66,408.46a11.93,11.93,0,0,1-.5-13.15c10.46-17.26,21.48-34.27,32.74-50.58a11.94,11.94,0,1,1,19.65,13.57c-11,15.92-21.76,32.54-32,49.39a11.95,11.95,0,0,1-19.91.77Zm67.71-97.91a12,12,0,0,1,.34-14.34c12.49-15.85,25.57-31.37,38.88-46.14a11.94,11.94,0,0,1,17.74,16c-13,14.37-25.7,29.49-37.87,44.93a11.93,11.93,0,0,1-16.76,2A12.14,12.14,0,0,1,205.37,310.55Zm79.74-88.37a11.94,11.94,0,0,1,1.43-15.53c14.56-14.06,29.7-27.64,45-40.36a11.94,11.94,0,1,1,15.28,18.35C332,197,317.27,210.17,303.12,223.83a11.94,11.94,0,0,1-16.88-.3A13,13,0,0,1,285.11,222.18Zm91.54-76.07,0-.05a11.94,11.94,0,0,1,2.85-16.64c16.76-11.87,33.88-22.93,50.88-32.88a11.94,11.94,0,0,1,12.06,20.61c-16.41,9.6-32.94,20.28-49.15,31.76A11.94,11.94,0,0,1,376.65,146.11Z"></path><path class="cls-1" d="M480,86.13a12.47,12.47,0,0,1-1.19-2.08,11.94,11.94,0,0,1,6-15.78,296.66,296.66,0,0,1,29-11.56A11.94,11.94,0,0,1,521,79.48a282.64,282.64,0,0,0-26.4,10.58A12,12,0,0,1,480,86.13Z"></path></g></g></svg>