<svg xmlns="http://www.w3.org/2000/svg" viewBox="0 0 637.14 1306.75"><defs><style>.cls-1{fill:#8cbd46;}</style></defs><g id="Camada_2" data-name="Camada 2"><g id="Layer_1" data-name="Layer 1"><path class="cls-1" d="M115.9,1173.61l-96,35.6A30.43,30.43,0,0,0,0,1237.07H0a30.42,30.42,0,0,0,18.59,28.71L113,1305.62A14.07,14.07,0,0,0,132.51,1293h0a14.05,14.05,0,0,0-4.38-10.52L105.49,1261a28.81,28.81,0,0,1,.78-42.51l23.83-21a14.1,14.1,0,0,0,4.77-10.25v-.06A14.08,14.08,0,0,0,115.9,1173.61Z"></path><path class="cls-1" d="M108.9,347.47a12,12,0,0,1-4.85-1.89C88.47,335.14,79.39,328,79,327.67A11.94,11.94,0,0,1,93.83,309c.2.16,8.9,7,23.51,16.8a11.94,11.94,0,0,1-8.44,21.72Z"></path><path class="cls-1" d="M229.29,1246.85a11.94,11.94,0,0,1,0-23.61c19.74-3,39.34-6.84,58.25-11.48a11.94,11.94,0,0,1,5.7,23.18c-19.62,4.82-39.93,8.82-60.38,11.91A11.93,11.93,0,0,1,229.29,1246.85Zm117.25-29a11.93,11.93,0,0,1-2.23-23,510.19,510.19,0,0,0,54.41-22.89,11.94,11.94,0,0,1,10.55,21.42,533,533,0,0,1-57,24A11.7,11.7,0,0,1,346.54,1217.87Zm108-53.61a11.94,11.94,0,0,1-4.88-21.71,384.35,384.35,0,0,0,45.95-36.22,11.94,11.94,0,1,1,16.2,17.54A408.61,408.61,0,0,1,463,1162.36,11.94,11.94,0,0,1,454.5,1164.26Zm88.16-81.78a11.78,11.78,0,0,1-5.51-2.36,11.93,11.93,0,0,1-2.13-16.75,347.36,347.36,0,0,0,31.64-48.92,11.94,11.94,0,1,1,21.07,11.23A371,371,0,0,1,553.9,1078,11.93,11.93,0,0,1,542.66,1082.48Zm56.72-105.92a11.47,11.47,0,0,1-2.1-.51,11.94,11.94,0,0,1-7.42-15.16,415.55,415.55,0,0,0,14.94-56.67,11.94,11.94,0,0,1,23.45,4.48,439.6,439.6,0,0,1-15.8,59.93A11.94,11.94,0,0,1,599.38,976.56Zm23-118.14a11.94,11.94,0,0,1-10.11-12.59,458.36,458.36,0,0,0,.13-58.71,11.94,11.94,0,0,1,23.83-1.51,482.85,482.85,0,0,1-.13,61.8,11.94,11.94,0,0,1-12.7,11.12C623,858.51,622.71,858.47,622.37,858.42Zm-7.61-120a12,12,0,0,1-9.93-9.49,465.66,465.66,0,0,0-15.07-56.83,11.94,11.94,0,0,1,22.65-7.55,490.29,490.29,0,0,1,15.85,59.75,11.94,11.94,0,0,1-9.4,14A11.81,11.81,0,0,1,614.76,738.4ZM576.9,624.08a11.9,11.9,0,0,1-9-6.76c-8-17.25-17.36-34.86-27.69-52.34a11.94,11.94,0,0,1,20.56-12.15c10.72,18.15,20.4,36.45,28.77,54.4a11.94,11.94,0,0,1-12.6,16.85ZM515.84,520a11.94,11.94,0,0,1-8-4.94C497,499.53,485.24,483.9,472,467.25a11.94,11.94,0,1,1,18.7-14.84c13.5,17,25.49,33,36.66,48.93A11.94,11.94,0,0,1,515.84,520ZM287.61,423.27c-4.82-.73-9.77-1.61-14.72-2.62a11.93,11.93,0,1,1,4.74-23.39c4.6.93,9.15,1.82,13.66,2.42a229.11,229.11,0,0,0,43.51,2.57,11.94,11.94,0,1,1,1,23.85,251.52,251.52,0,0,1-48.08-2.82Zm-72-19.65a12.65,12.65,0,0,1-2.5-.66,513.74,513.74,0,0,1-56.2-25.74,11.94,11.94,0,1,1,11.18-21.1,488.84,488.84,0,0,0,53.57,24.54,11.94,11.94,0,0,1-6,23Zm225.43,21.45a11.88,11.88,0,0,1-7.27-4q-7.47-8.7-15-17.32a177,177,0,0,1-20.21,9.49A11.94,11.94,0,1,1,389.81,391q6.51-2.56,12.77-5.73l-8.49-9.6A11.94,11.94,0,1,1,412,359.86q5.68,6.42,11.31,12.81A164,164,0,0,0,437,361.62a12,12,0,0,1,16.93.8,11.83,11.83,0,0,1-.74,16.75l-.32.29q-6.66,6-13.77,11.23c4.28,4.92,8.55,9.84,12.8,14.81a11.93,11.93,0,0,1-10.85,19.57Zm-79.66-91a11.93,11.93,0,0,1-7.27-4c-15.91-18.56-28.18-33.67-38.58-47.55a11.94,11.94,0,1,1,19.1-14.32c10.09,13.45,22,28.17,37.6,46.32a11.94,11.94,0,0,1-10.85,19.58Zm121.35,2.45a11.93,11.93,0,0,1-8.21-18.32,191.3,191.3,0,0,0,23.61-51.49,11.94,11.94,0,0,1,23,6.6,215,215,0,0,1-26.56,57.92A11.92,11.92,0,0,1,482.74,336.55Zm-192-100.15a11.89,11.89,0,0,1-8.85-6.37c-7.54-14.73-12.67-28.4-15.68-41.78-1.44-6.4-2.68-12.76-3.68-18.92A11.93,11.93,0,1,1,286,165.5c.93,5.68,2.08,11.58,3.41,17.51,2.57,11.4,7,23.22,13.64,36.15a11.93,11.93,0,0,1-12.4,17.24Zm225.19-14.21a11.94,11.94,0,0,1-10.14-11.73A228.42,228.42,0,0,0,498,153.72a11.94,11.94,0,1,1,23.09-6.09,252.21,252.21,0,0,1,8.5,62.68,11.94,11.94,0,0,1-11.87,12A11.6,11.6,0,0,1,515.88,222.19ZM270.51,119a11.94,11.94,0,0,1-10.05-13.28c.18-1.49.39-3,.61-4.44,3.34-22.1,10.82-41.31,22.22-57.11a11.94,11.94,0,1,1,19.37,14c-9.16,12.69-15.21,28.41-18,46.71-.19,1.26-.37,2.54-.53,3.83a11.94,11.94,0,0,1-13.32,10.37Zm215.21-12.67a11.9,11.9,0,0,1-8.74-6.16c-9.57-17.85-21.08-33.77-33.26-46a11.94,11.94,0,1,1,16.94-16.83c13.79,13.87,26.71,31.7,37.36,51.56a11.93,11.93,0,0,1-12.3,17.45Zm-146.34-78a11.94,11.94,0,0,1-1.78-23.2C358.35-1.3,381.78-1.71,403.79,4a11.94,11.94,0,0,1-6,23.11c-17.73-4.61-36.54-4.3-53.07.87A11.89,11.89,0,0,1,339.38,28.39Z"></path><path class="cls-1" d="M138.74,1254a11.94,11.94,0,0,1,2.11-23.73c.1,0,10.88.25,28.84-.77a11.94,11.94,0,0,1,1.35,23.84c-19,1.08-30.33.81-30.8.8A12.29,12.29,0,0,1,138.74,1254Z"></path></g></g></svg>