<svg xmlns="http://www.w3.org/2000/svg" viewBox="0 0 28.52 28.55"><defs><style>.cls-1{fill:#0d1419;}.cls-2{fill:#231f20;}.cls-3{fill:#94c747;}</style></defs><g id="Camada_2" data-name="Camada 2"><g id="Discount"><path class="cls-1" d="M13.11,28.53c-4.88,0-4.76.08-5-.2s-.23.16,1-7.87A.57.57,0,0,1,9.69,20H12a.58.58,0,0,1,.57.49l1.14,7.42A.57.57,0,0,1,13.11,28.53ZM9.22,27.39h3.23l-1-6.28h-1.3Z"></path><path class="cls-1" d="M10.36,18c-1.54-2-1.81-2.29-1.81-2.62,0-1.46-.08-1.68.24-1.91a.6.6,0,0,1,.52-.07,4.53,4.53,0,0,0,3,0,.57.57,0,0,1,.76.54c0,1.54,0,1.56-.08,1.74s.15-.18-1.76,2.33A.57.57,0,0,1,10.36,18Zm.46-1.28C12.16,15,12,15.41,12,14.72a5.47,5.47,0,0,1-2.28,0C9.69,15.43,9.51,15,10.82,16.75Z"></path><path class="cls-1" d="M16,6.28H5.7a.57.57,0,0,0-.57.57V9.13a5.7,5.7,0,0,0,11.29,1.13,16.22,16.22,0,0,0,.12-3.41A.58.58,0,0,0,16,6.28Zm-3.62,7.15a4.56,4.56,0,0,1-6.08-4.3V7.42H15.4V9.13A4.56,4.56,0,0,1,12.35,13.43Z"></path><path class="cls-1" d="M5.7,10.27H5.41a2,2,0,1,1,0-4H5.7a.57.57,0,0,1,.57.57V9.7A.57.57,0,0,1,5.7,10.27Zm-.57-2.8a.85.85,0,0,0,0,1.61Z"></path><path class="cls-2" d="M17.09,6.47c-.65-.31-1.69-.34-1.69.38V9.7a.56.56,0,0,0,.57.57h.28A2,2,0,0,0,17.09,6.47Zm-.55,2.61V7.47A.85.85,0,0,1,16.54,9.08Z"></path><path class="cls-1" d="M21.1,28.53c-22.27,0-20.72.1-21-.2s-.19-.09.74-5.17A10.17,10.17,0,0,1,9.1,15c.45-.08.52.17,1.72,1.77C12,15.24,12.09,14.91,12.56,15a10.15,10.15,0,0,1,8.25,8.19c.91,5,1,4.87.73,5.16A.57.57,0,0,1,21.1,28.53ZM1.25,27.39H20.42l-.73-4a9,9,0,0,0-7-7.2L11.27,18a.55.55,0,0,1-.46.22c-.37,0-.35-.1-1.85-2.09a9,9,0,0,0-7,7.2Z"></path><path class="cls-1" d="M11.12,21.11h-.57c-1.8,0-2.42-2.19-1.74-2.67,1.72-1.24,1.92-1.52,2.35-1.21C13,18.54,13,18.5,13.09,18.8A2,2,0,0,1,11.12,21.11ZM9.7,19.2a.84.84,0,0,0,.85.77h.57A.86.86,0,0,0,12,19.2l-1.14-.81Z"></path><path class="cls-1" d="M6.84,21.11a.57.57,0,0,1-.57-.57V16.28a.59.59,0,0,1,.33-.52A10.4,10.4,0,0,1,9.1,15c.46-.08.47.11,2.13,2.31a.58.58,0,0,1-.07.87C6.82,21.26,7.1,21.11,6.84,21.11Zm.57-4.45v2.77L10,17.57l-1-1.4A8.26,8.26,0,0,0,7.41,16.66Z"></path><path class="cls-1" d="M14.83,21.11c-.26,0,0,.13-4.29-2.93a.57.57,0,0,1-.18-.84c1.66-2.16,1.73-2.43,2.2-2.36a10.4,10.4,0,0,1,2.5.78c.46.21.34.19.34,4.78A.57.57,0,0,1,14.83,21.11Zm-3.2-3.55,2.63,1.87V16.66a9.72,9.72,0,0,0-1.56-.49Z"></path><path class="cls-1" d="M13.69,9.7H8C5.33,9.7,4.39,6.28,5.7,6.28H16C17.25,6.28,16.33,9.7,13.69,9.7ZM6.37,7.42A1.71,1.71,0,0,0,8,8.56h5.71A1.71,1.71,0,0,0,15.3,7.42Z"></path><path class="cls-1" d="M13.69,6.28H12.54v.57a.57.57,0,0,1-.57.57h1.8A7.12,7.12,0,0,1,13.69,6.28Zm1.66-4.69A5.69,5.69,0,0,0,11.4,0a13.2,13.2,0,0,0-2,.06A5.71,5.71,0,0,0,4.56,5.71c0,.68,0,1.25.61,1.58.35.19-.39.13,10.8.13a1.14,1.14,0,0,0,1.14-1.14A5.84,5.84,0,0,0,15.35,1.59ZM5.7,6.28V5.71A4.57,4.57,0,0,1,9.12,1.29a8.29,8.29,0,0,1,2.28-.15A4.56,4.56,0,0,1,14.83,2.7,4.76,4.76,0,0,1,16,6.28Z"></path><path class="cls-1" d="M12,7.42H9.69a.58.58,0,0,1-.57-.57V.57A.58.58,0,0,1,9.69,0H12a.57.57,0,0,1,.57.57V6.85A.57.57,0,0,1,12,7.42ZM10.26,6.28H11.4V1.14H10.26Z"></path><path class="cls-1" d="M6.84,4V1.71A.57.57,0,0,1,8,1.71V4A.57.57,0,0,1,6.84,4Z"></path><path class="cls-2" d="M13.69,4V1.71a.57.57,0,0,1,1.14,0V4A.57.57,0,0,1,13.69,4Z"></path><path class="cls-2" d="M28,10.84H18.82a.58.58,0,0,0-.57.57c0,9.08,0,8.41.1,8.61,1.31,2,1.36,3.48,2.07,7.37.12.65.13,1.14.68,1.14H28a.57.57,0,0,0,.57-.57V11.41A.58.58,0,0,0,28,10.84Zm-.57,16.55h-5.8c-.84-4.58-.88-5.41-1.7-7-.69-1.43-.49.7-.49-8.42h8Z"></path><path class="cls-3" d="M24,4.57V9.13a.57.57,0,0,1-1.14,0V4.57A.57.57,0,0,1,24,4.57Z"></path><path class="cls-3" d="M25.1,14.84H21.67a.57.57,0,0,1,0-1.14H25.1A.57.57,0,0,1,25.1,14.84Z"></path><path class="cls-3" d="M25.1,17.69H21.67a.57.57,0,0,1,0-1.14H25.1A.57.57,0,0,1,25.1,17.69Z"></path><path class="cls-3" d="M25.1,20.54H21.67a.57.57,0,0,1,0-1.14H25.1A.57.57,0,0,1,25.1,20.54Z"></path><path class="cls-3" d="M25.1,23.4H21.67a.57.57,0,0,1,0-1.14H25.1A.57.57,0,0,1,25.1,23.4Z"></path><path class="cls-2" d="M26.24,8.56H20.53a.58.58,0,0,0-.57.57v2.28a.57.57,0,0,0,.57.57h5.71a.57.57,0,0,0,.57-.57V9.13A.58.58,0,0,0,26.24,8.56ZM21.1,10.84V9.7h4.57v1.14Z"></path></g></g></svg>