<svg xmlns="http://www.w3.org/2000/svg" viewBox="0 0 32 32"><defs><style>.cls-1,.cls-2{fill:none;stroke-linecap:round;stroke-linejoin:round;stroke-width:2px;}.cls-1{stroke:#0d1419;}.cls-2{stroke:#94c748;}</style></defs><g id="Camada_2" data-name="Camada 2"><g id="Searching"><path class="cls-1" d="M12,23a11,11,0,1,0-4-.75"></path><line class="cls-1" x1="22" y1="22" x2="19.78" y2="19.78"></line><path class="cls-1" d="M23.29,20.71l-2.58,2.58a1,1,0,0,0,0,1.42l5.46,5.46a2.83,2.83,0,0,0,2,.83h0A2.83,2.83,0,0,0,31,28.17h0a2.83,2.83,0,0,0-.83-2l-5.46-5.46A1,1,0,0,0,23.29,20.71Z"></path><polyline class="cls-2" points="6 12 12 8 18 12"></polyline><polyline class="cls-2" points="16 10.67 16 17 8 17 8 7"></polyline><line class="cls-2" x1="12" y1="17" x2="12" y2="15"></line></g></g></svg>