<svg xmlns="http://www.w3.org/2000/svg" viewBox="0 0 46 37.66"><defs><style>.cls-1{fill:#bec6c6;}.cls-2{fill:#0d1419;}.cls-3{fill:#94c748;}.cls-4{fill:#f8f9f9;}</style></defs><g id="Camada_2" data-name="Camada 2"><g id="Packaging"><polygon class="cls-1" points="15 14.66 5 14.66 1 8.66 11 8.66 15 14.66"></polygon><path class="cls-2" d="M15,15.66H5a1,1,0,0,1-.83-.45l-4-6A1,1,0,0,1,1,7.66H11a1,1,0,0,1,.83.45l4,6A1,1,0,0,1,15,15.66Zm-9.46-2h7.59l-2.66-4H2.87Z"></path><path class="cls-3" d="M30,11.66v-4L27.87,6.59a2.23,2.23,0,0,1-.95-.94c-.46-.8-.34-1.06-.19-3.65L23.27,0l-2,1.33a2.4,2.4,0,0,1-2.52,0L16.73,0,13.27,2l.14,2.38a2.36,2.36,0,0,1-.33,1.29c-.47.8-.77.84-3.08,2v4l2.14,1.07a2.24,2.24,0,0,1,.94.94c.47.8.34,1.06.19,3.65l3.46,2c2.25-1.48,2.33-1.68,3.34-1.68a2.15,2.15,0,0,1,1.19.35l2,1.33,3.46-2-.14-2.38a2.31,2.31,0,0,1,.34-1.29C27.39,12.85,27.7,12.81,30,11.66Z"></path><circle class="cls-4" cx="20" cy="9.66" r="5"></circle><rect class="cls-4" x="5" y="14.66" width="26" height="22" transform="translate(36 51.32) rotate(-180)"></rect><rect class="cls-1" x="31" y="14.66" width="10" height="22" transform="translate(72 51.32) rotate(-180)"></rect><polygon class="cls-1" points="31 14.66 41 14.66 45 8.66 35 8.66 31 14.66"></polygon><path class="cls-2" d="M45,7.66H35a1,1,0,0,0-.83.45l-3.7,5.55H5a1,1,0,0,0-1,1v22a1,1,0,0,0,1,1H41a1,1,0,0,0,1-1V15l3.83-5.75A1,1,0,0,0,45,7.66Zm-39,8H30v20H6Zm34,20H32v-20h8Zm.47-22h-7.6l2.67-4h7.59Z"></path><rect class="cls-1" x="22" y="29.66" width="6" height="4" rx="1" transform="translate(50 63.32) rotate(-180)"></rect><polygon class="cls-4" points="34 35.66 38 35.66 38 31.66 36 32.66 34 31.66 34 35.66"></polygon><polygon class="cls-1" points="8 31.66 10 29.66 12 31.66 8 31.66"></polygon><rect class="cls-1" x="9" y="31.66" width="2" height="2"></rect></g></g></svg>