<svg xmlns="http://www.w3.org/2000/svg" viewBox="0 0 46 46"><defs><style>.cls-1{fill:#f8f9f9;}.cls-2{fill:#bec6c6;}.cls-3{fill:#0d1419;}.cls-4{fill:#94c748;}</style></defs><g id="Camada_2" data-name="Camada 2"><g id="Balance"><path class="cls-1" d="M28,6a5,5,0,1,1-5-5A5,5,0,0,1,28,6Z"></path><path class="cls-2" d="M26,10v5H20V10A5,5,0,0,0,26,10Z"></path><path class="cls-2" d="M18.41,8H4V4H18.41A5.05,5.05,0,0,0,18.41,8Z"></path><path class="cls-2" d="M42,4V8H27.59a5.05,5.05,0,0,0,0-4Z"></path><polygon class="cls-1" points="28 37 18 37 19 33 27 33 28 37"></polygon><rect class="cls-1" x="21" y="15" width="4" height="18"></rect><path class="cls-1" d="M34,41H12l.62-2.49A2,2,0,0,1,14.56,37H31.44a2,2,0,0,1,1.94,1.51Z"></path><path class="cls-2" d="M10,41H36a3,3,0,0,1,3,3v1a0,0,0,0,1,0,0H7a0,0,0,0,1,0,0V44A3,3,0,0,1,10,41Z"></path><circle class="cls-2" cx="23" cy="6" r="2"></circle><path class="cls-3" d="M44.94,24.66,39.41,9H42a1,1,0,0,0,1-1V4a1,1,0,0,0-1-1H28.19A6,6,0,0,0,17.81,3H4A1,1,0,0,0,3,4V8A1,1,0,0,0,4,9H6.59L1.06,24.66a1,1,0,1,0,1.88.67L8,11l5.06,14.33a1,1,0,1,0,1.88-.67L9.41,9h8.4A6,6,0,0,0,19,10.46V15a1,1,0,0,0,1,1V32H18a1,1,0,0,0-.27,1.94L17.22,36H14.56a3,3,0,0,0-2.91,2.27L11.22,40H10a4,4,0,0,0-4,4v1a1,1,0,0,0,1,1H39a1,1,0,0,0,1-1V44a4,4,0,0,0-4-4H34.78l-.43-1.73A3,3,0,0,0,31.44,36H28.78l-.51-2.06A1,1,0,0,0,28,32H26V16a1,1,0,0,0,1-1V10.46A6,6,0,0,0,28.19,9h8.4L31.06,24.66a1,1,0,1,0,1.88.67L38,11l5.06,14.33a1,1,0,1,0,1.88-.67ZM23,2a4,4,0,1,1-4,4A4,4,0,0,1,23,2ZM5,7V5H17.09a5.6,5.6,0,0,0,0,2ZM38,44H8a2,2,0,0,1,2-2H36A2,2,0,0,1,38,44Zm-5.59-5.25L32.72,40H13.28l.31-1.24a1,1,0,0,1,1-.76H31.44A1,1,0,0,1,32.41,38.75ZM26.72,36H19.28l.5-2h6.44ZM24,32H22V16h2Zm1-18H21V11.65a5.91,5.91,0,0,0,4,0Zm3.91-9H41V7H28.91A5.6,5.6,0,0,0,28.91,5Z"></path><path class="cls-4" d="M0,24H16a0,0,0,0,1,0,0v3a3,3,0,0,1-3,3H3a3,3,0,0,1-3-3V24A0,0,0,0,1,0,24Z"></path><path class="cls-4" d="M33,24H43a3,3,0,0,1,3,3v3a0,0,0,0,1,0,0H30a0,0,0,0,1,0,0V27A3,3,0,0,1,33,24Z" transform="translate(76 54) rotate(-180)"></path></g></g></svg>