<svg xmlns="http://www.w3.org/2000/svg" viewBox="0 0 46 46"><defs><style>.cls-1{fill:#bec6c6;}.cls-2{fill:#f8f9f9;}.cls-3{fill:#414141;}.cls-4{fill:#94c748;}</style></defs><g id="Camada_2" data-name="Camada 2"><g id="Medal"><polygon class="cls-1" points="33 21 27 23 19 23 13 21 13 17 33 17 33 21"></polygon><polygon class="cls-2" points="45 1 33 17 27 17 23 11.67 31 1 45 1"></polygon><path class="cls-2" d="M27,17H13L1,1H15C34,26.32,11-4.29,27,17Z"></path><polygon class="cls-1" points="22 17 18 17 6 1 10 1 22 17"></polygon><polygon class="cls-1" points="40 1 28 17 27 17 25.5 15 36 1 40 1"></polygon><rect class="cls-2" x="19" y="17" width="8" height="6"></rect><path class="cls-2" d="M25.35,21.76a4,4,0,0,0,2.35.77,4,4,0,0,1,3.8,2.76,4,4,0,0,0,1.46,2,4,4,0,0,1,1.45,4.47,4,4,0,0,0,0,2.48A4,4,0,0,1,33,38.71a3.93,3.93,0,0,0-1.45,2,4,4,0,0,1-3.81,2.76,4,4,0,0,0-2.35.77,4,4,0,0,1-4.7,0,4,4,0,0,0-2.35-.77,4,4,0,0,1-3.81-2.76,4,4,0,0,0-1.45-2,4,4,0,0,1-1.45-4.47,4.12,4.12,0,0,0,0-2.48A4,4,0,0,1,13,27.29a4,4,0,0,0,1.45-2,4,4,0,0,1,3.81-2.76,4,4,0,0,0,2.35-.77A4,4,0,0,1,25.35,21.76Z"></path><path class="cls-3" d="M34,21V17.33L45.8,1.6A1,1,0,0,0,45,0H31a1,1,0,0,0-.8.4L23,10,15.8.4A1,1,0,0,0,15,0H1A1,1,0,0,0,.2,1.6L12,17.33V21a1,1,0,0,0,.68.95l2.35.78c-1.8,1.56-1.13,2.72-2.58,3.75a5,5,0,0,0-1.81,5.59,3.11,3.11,0,0,1,0,1.86,5,5,0,0,0,1.81,5.59A2.89,2.89,0,0,1,13.54,41a5,5,0,0,0,4.76,3.45,3,3,0,0,1,1.76.57,5,5,0,0,0,5.88,0,3,3,0,0,1,1.76-.58A5,5,0,0,0,32.46,41a2.89,2.89,0,0,1,1.09-1.5,5,5,0,0,0,1.81-5.59,3.11,3.11,0,0,1,0-1.86,5,5,0,0,0-1.81-5.59c-1.43-1-.81-2.22-2.58-3.75L33.32,22A1,1,0,0,0,34,21ZM31.5,2H43L32.5,16h-5l-3.25-4.33ZM3,2H14.5c5.15,6.87,7.7,10.17,7.7,10.27L25,16H13.5ZM30.56,25.6a4.89,4.89,0,0,0,1.81,2.5,3,3,0,0,1,1.09,3.36,4.91,4.91,0,0,0,0,3.08,3,3,0,0,1-1.09,3.36,4.89,4.89,0,0,0-1.81,2.5,3,3,0,0,1-2.86,2.07,5,5,0,0,0-2.94,1,3,3,0,0,1-3.52,0,5,5,0,0,0-2.94-1,3,3,0,0,1-2.86-2.07,4.89,4.89,0,0,0-1.81-2.5,3,3,0,0,1-1.09-3.36,4.91,4.91,0,0,0,0-3.08,3,3,0,0,1,1.09-3.36,4.89,4.89,0,0,0,1.81-2.5,3,3,0,0,1,2.22-2c.72-.22,1.94.16,3.58-1a3,3,0,0,1,3.52,0c1.62,1.19,2.93.84,3.58,1A3,3,0,0,1,30.56,25.6ZM32,20.28c-4.64,1.55-3.53,1.25-4.3,1.25A3,3,0,0,1,25.94,21a5,5,0,0,0-5.88,0,3.63,3.63,0,0,1-2.23.61L14,20.28V18H32Z"></path><path class="cls-4" d="M24.76,24.57a3,3,0,0,0,1.77.58,3,3,0,0,1,2.85,2.07,3,3,0,0,0,1.09,1.5,3,3,0,0,1,1.09,3.35,3,3,0,0,0,0,1.86,3,3,0,0,1-1.09,3.35,3,3,0,0,0-1.09,1.5,3,3,0,0,1-2.85,2.07,3,3,0,0,0-1.77.58,3,3,0,0,1-3.52,0,3,3,0,0,0-1.77-.58,3,3,0,0,1-2.85-2.07,3.12,3.12,0,0,0-1.09-1.5,3,3,0,0,1-1.09-3.35,3,3,0,0,0,0-1.86,3,3,0,0,1,1.09-3.35,3,3,0,0,0,1.09-1.5,3,3,0,0,1,2.85-2.07,3,3,0,0,0,1.77-.58A3,3,0,0,1,24.76,24.57Z"></path><polygon class="cls-2" points="23 29.2 24.32 31.58 27 32.1 25.14 34.1 25.47 36.8 23 35.66 20.53 36.8 20.86 34.1 19 32.1 21.67 31.58 23 29.2"></polygon></g></g></svg>