<svg xmlns="http://www.w3.org/2000/svg" viewBox="0 0 29.53 29.17"><defs><style>.cls-1{fill:#0d1419;}.cls-2{fill:#ededed;}.cls-3{fill:#94c747;}.cls-4{fill:#94c748;}.cls-5{fill:#777;}</style></defs><g id="Camada_2" data-name="Camada 2"><g id="Discount"><path class="cls-1" d="M29,29.16c-22,0-20.49.09-20.74-.21s-.19-.09.72-5.1a10.08,10.08,0,0,1,8.15-8.09c.45-.08.52.17,1.7,1.75C20,16,20.07,15.69,20.53,15.76a10.05,10.05,0,0,1,8.16,8.09c.9,4.95,1,4.82.72,5.1A.56.56,0,0,1,29,29.16ZM9.35,28h19l-.72-4a8.91,8.91,0,0,0-6.91-7.11l-1.41,1.84a.55.55,0,0,1-.45.22c-.38,0-.36-.09-1.84-2.06a8.94,8.94,0,0,0-6.9,7.11Z"></path><rect class="cls-2" x="0.33" y="17.6" width="12.14" height="9.21" rx="0.73"></rect><polygon class="cls-3" points="18.12 18.64 15.97 28.03 21.29 27.97 20.14 19.29 18.12 18.64"></polygon><path class="cls-1" d="M21.29,29.06c-5.1,0-5,.08-5.22-.19s-.23.15,1.06-7.56a.57.57,0,0,1,.58-.46H20.1a.57.57,0,0,1,.58.46l1.19,7.12A.56.56,0,0,1,21.29,29.06ZM17.22,28h3.37l-1-6H18.23Z"></path><path class="cls-1" d="M20.49,14a4.68,4.68,0,0,1-3.18,0,.6.6,0,0,0-.79.57c0,2.12-.37,1.22,1.89,4.23a.6.6,0,0,0,1-.07s.34-.45,1.43-1.87c.54-.72.44-.42.44-2.29A.6.6,0,0,0,20.49,14Zm-1.6,3.45c-1.37-1.82-1.18-1.38-1.18-2.11a6.39,6.39,0,0,0,2.39,0C20.1,16.09,20.29,15.66,18.89,17.48Z"></path><path class="cls-1" d="M24.3,6.57c-.06,0-1.17,0-4.2,0a3,3,0,0,1-3-3,.6.6,0,0,0-1.19,0,3,3,0,0,1-2.38,2.92c-.51.11-.58,0-.93.16A.59.59,0,0,0,13,7.75V9.54a6,6,0,0,0,11.79,1.18,17.75,17.75,0,0,0,.12-3.56A.59.59,0,0,0,24.3,6.57Zm-.63,3a4.77,4.77,0,0,1-9.53,0v-2a4.29,4.29,0,0,0,2-1.29c.51-.6.32-.66.5-.4A4.12,4.12,0,0,0,20.1,7.75h3.57Z"></path><path class="cls-1" d="M13.55,10.73h-.3a2.09,2.09,0,0,1,0-4.17h.3a.59.59,0,0,1,.59.6v3A.59.59,0,0,1,13.55,10.73ZM13,7.81a.89.89,0,0,0,0,1.68Z"></path><path class="cls-1" d="M24.26,6.56a.6.6,0,0,0-.59.6v3a.59.59,0,0,0,.59.59h.48A2.09,2.09,0,1,0,24.26,6.56Zm.6,2.93V7.81A.89.89,0,0,1,24.86,9.49Z"></path><path class="cls-1" d="M12.36,7.16v-3c0-3.8,4.76-5.06,4.76-3.57v3C17.12,7.4,12.36,8.66,12.36,7.16Zm3.57-5.89a3,3,0,0,0-2.38,2.91V6.5a3,3,0,0,0,2.38-2.91Z"></path><path class="cls-1" d="M20.69,0a29,29,0,0,0-4.27.06.59.59,0,0,0-.49.58c0,2.88-.17,3.83.59,5.07a4.3,4.3,0,0,0,3.58,2h4.76a.59.59,0,0,0,.59-.59V4.78A4.77,4.77,0,0,0,20.69,0ZM20.1,6.56a3,3,0,0,1-3-3V1.21h3.57a3.57,3.57,0,0,1,3.57,3.57V6.56Z"></path><path class="cls-1" d="M19.2,22h-.59c-1.88,0-2.52-2.29-1.82-2.8,1.8-1.28,2-1.58,2.46-1.26,1.93,1.38,1.95,1.33,2,1.65A2.08,2.08,0,0,1,19.2,22Zm-1.48-2a.9.9,0,0,0,.89.81h.59a.89.89,0,0,0,.89-.81L18.9,19.2Z"></path><path class="cls-1" d="M14.74,22a.6.6,0,0,1-.6-.6V17a.58.58,0,0,1,.35-.54,10.87,10.87,0,0,1,2.61-.82c.47-.08.49.11,2.22,2.41a.6.6,0,0,1-.07.9C14.72,22.18,15,22,14.74,22Zm.59-4.65v2.9l2.72-1.94L17,16.88A10.21,10.21,0,0,0,15.33,17.39Z"></path><path class="cls-1" d="M23.4,16.5a10.48,10.48,0,0,0-2.25-.76c-1.19-.29-.73,0-2.73,2.36a.6.6,0,0,0,.18.88l0,0,.28.19h0C23,22.13,22.8,22,23.07,22a.6.6,0,0,0,.6-.6C23.67,16.58,23.76,16.74,23.4,16.5Zm-.92,3.79-2.74-2,1.11-1.45a9.24,9.24,0,0,1,1.63.51Z"></path><polygon class="cls-4" points="7.49 21.38 8.88 20.27 9.43 21.1 10.27 20.82 10.54 19.43 11.38 19.99 11.38 22.21 7.49 22.21 7.49 21.38"></polygon><path class="cls-4" d="M6.66,25.82H6.1a.28.28,0,0,1,0-.56h.56a.28.28,0,0,1,0,.56Z"></path><path class="cls-5" d="M11.37,22.49H7.49a.29.29,0,0,1-.28-.28V18.88a.28.28,0,0,1,.56,0v3.05h3.6a.28.28,0,1,1,0,.56Z"></path><path class="cls-1" d="M11.65,17.49H1.11A1.11,1.11,0,0,0,0,18.6v7.22a1.11,1.11,0,0,0,1.11,1.11H4.44a2.57,2.57,0,0,1-.68,1.66H3.33a.28.28,0,0,0-.28.28.29.29,0,0,0,.28.28h6.1a.28.28,0,0,0,.28-.28.27.27,0,0,0-.28-.28H9a2.51,2.51,0,0,1-.67-1.66h3.32a1.11,1.11,0,0,0,1.11-1.11V18.6A1.11,1.11,0,0,0,11.65,17.49Zm.56,1.11v5.55H6.66v-6.1h5A.56.56,0,0,1,12.21,18.6Zm-11.1-.55h5v6.1H.55V18.6A.56.56,0,0,1,1.11,18.05ZM8.29,28.59H4.47A3,3,0,0,0,5,26.93H7.77A3,3,0,0,0,8.29,28.59Zm3.36-2.22H1.11a.56.56,0,0,1-.56-.55V24.71H12.21v1.11A.56.56,0,0,1,11.65,26.37Z"></path><path class="cls-5" d="M8.05,23.6H7.49a.28.28,0,0,1,0-.56h.56a.28.28,0,0,1,0,.56Z"></path><path class="cls-5" d="M11.37,23.6H9.16a.28.28,0,0,1,0-.56h2.21a.28.28,0,0,1,0,.56Z"></path><rect class="cls-5" x="1.11" y="18.6" width="4.44" height="1.11" rx="0.28"></rect><rect class="cls-5" x="1.11" y="20.27" width="2.22" height="3.33" rx="0.28"></rect><rect class="cls-5" x="3.88" y="20.27" width="1.66" height="1.66" rx="0.28"></rect><rect class="cls-5" x="3.88" y="22.49" width="1.66" height="1.11" rx="0.28"></rect></g></g></svg>