<svg xmlns="http://www.w3.org/2000/svg" viewBox="0 0 32 32"><defs><style>.cls-1,.cls-2{fill:none;stroke-linecap:round;stroke-linejoin:round;stroke-width:2px;}.cls-1{stroke:#0d1419;}.cls-2{stroke:#94c748;}</style></defs><g id="Camada_2" data-name="Camada 2"><g id="Target"><path class="cls-1" d="M12,27.32A12,12,0,1,0,8.06,25"></path><polyline class="cls-2" points="10 16 16 12 22 16"></polyline><polyline class="cls-2" points="20 14.67 20 21 12 21 12 11"></polyline><line class="cls-2" x1="16" y1="21" x2="16" y2="19"></line><line class="cls-1" x1="16" y1="2" x2="16" y2="6"></line><line class="cls-1" x1="2" y1="16" x2="6" y2="16"></line><line class="cls-1" x1="16" y1="30" x2="16" y2="26"></line><line class="cls-1" x1="30" y1="16" x2="26" y2="16"></line><path class="cls-1" d="M6,1H3A2,2,0,0,0,1,3V6"></path><path class="cls-1" d="M31,6V3a2,2,0,0,0-2-2H26"></path><path class="cls-1" d="M26,31h3a2,2,0,0,0,2-2V26"></path><path class="cls-1" d="M1,26v3a2,2,0,0,0,2,2H6"></path></g></g></svg>