<svg xmlns="http://www.w3.org/2000/svg" viewBox="0 0 30.48 30.48"><defs><style>.cls-1{fill:#94c747;}.cls-2{fill:#0d1419;}.cls-3{fill:#bec6c6;}.cls-4{fill:#94c748;}</style></defs><g id="Camada_2" data-name="Camada 2"><g id="Discount"><path class="cls-1" d="M20.54,16.56,17.89,21.2l-2.65-4.64c1.38.46,2.42,1,3.94.46Z"></path><polygon class="cls-2" points="13.91 19.21 14.58 17.89 13.25 17.23 13.82 14.95 14.95 14.75 17.89 21.2 13.91 19.21"></polygon><polygon class="cls-2" points="21.86 19.21 21.2 17.89 22.53 17.23 21.96 14.95 20.82 14.75 17.89 21.2 21.86 19.21"></polygon><line class="cls-3" x1="21.86" y1="6.63" x2="21.86" y2="6.63"></line><path class="cls-2" d="M23.85,21.2h-2a.66.66,0,0,1,0-1.32h2a.66.66,0,0,1,0,1.32Z"></path><path class="cls-4" d="M5.3,19.88H6.63a2.65,2.65,0,0,1,2.65,2.65v.66a0,0,0,0,1,0,0H2.65a0,0,0,0,1,0,0v-.66A2.65,2.65,0,0,1,5.3,19.88Z"></path><path class="cls-2" d="M29.81,22.53h-2V18.11a3.32,3.32,0,0,0-2.65-3.24V7.29a7.29,7.29,0,1,0-14.58,0v7.58A3.3,3.3,0,0,0,8,18.11v1.38a3.22,3.22,0,0,0-1.32-.28.67.67,0,0,0-1.33,0A3.32,3.32,0,0,0,2,22.53H.66a.66.66,0,0,0-.66.66v2.65a.67.67,0,0,0,.66.66v3.31a.67.67,0,1,0,1.33,0V26.5h26.5v3.31a.66.66,0,1,0,1.32,0V26.5a.67.67,0,0,0,.67-.66V23.19A.66.66,0,0,0,29.81,22.53ZM11.93,7.29a6,6,0,0,1,11.92,0v7.33L20.54,14v-.94a4.64,4.64,0,0,0,2-3.8V6.63A.67.67,0,0,0,21.86,6H21.5c-.83,0-1.21-.53-1.82-1.13a.65.65,0,0,0-.83-.08C16.8,6.1,16.4,6,13.91,6a.67.67,0,0,0-.66.67V9.28a4.64,4.64,0,0,0,2,3.8V14l-3.31.6Zm2.65,2v-2h.88a6.49,6.49,0,0,0,3.67-1.14l.26.26a3,3,0,0,0,1.81.86v2a3.31,3.31,0,0,1-1.58,2.82.46.46,0,0,0-.15.09A3.32,3.32,0,0,1,14.58,9.28Zm-5.3,8.83a2,2,0,0,1,1.63-2L16,15.23a.67.67,0,0,0,.54-.65v-.86a4.6,4.6,0,0,0,2.65,0v.86a.66.66,0,0,0,.55.65l5.11.93a2,2,0,0,1,1.63,1.95v4.42H9.94a3.32,3.32,0,0,0-.66-2Zm-4,2.43a.67.67,0,0,0,1.33,0,2,2,0,0,1,2,2H3.31A2,2,0,0,1,5.3,20.54Zm-4,4.64V23.85H29.15v1.33Z"></path></g></g></svg>