<svg xmlns="http://www.w3.org/2000/svg" viewBox="0 0 28.53 28.56"><defs><style>.cls-1{fill:#94c748;}.cls-2{fill:#0d1419;}.cls-3{fill:#231f20;}.cls-4{fill:#94c747;}</style></defs><g id="Camada_2" data-name="Camada 2"><g id="Discount"><path class="cls-1" d="M23.4,28.55H21.11a.58.58,0,0,1-.57-.57V24a.58.58,0,0,1,.57-.57H23.4A.58.58,0,0,1,24,24v4A.58.58,0,0,1,23.4,28.55Zm-1.72-1.14h1.14V24.55H21.68Z"></path><path class="cls-2" d="M17.56,19.58c-1.81,1.47-1.83,1.48,0,0Zm1.55-.46A10.28,10.28,0,0,0,12.56,15c-.45-.08-.55.23-1.73,1.77C9.68,15.24,9.57,14.91,9.11,15A10.16,10.16,0,0,0,.87,23.18L0,27.88a.57.57,0,0,0,.56.67H18.26a.58.58,0,0,0,.57-.57V21.13a.58.58,0,0,0-.57-.57c-.12,0-.25.13.71-.64A.57.57,0,0,0,19.11,19.12Zm-1.42,8.29H1.26l.73-4a9.06,9.06,0,0,1,7-7.19c2.13,2.82,1.58,2.81,3.74,0a9,9,0,0,1,5.14,3.17c-.38.29-.05,0-1.66,1.33a.57.57,0,0,0,.36,1h1.14Z"></path><path class="cls-3" d="M13.12,28.55c-4.89,0-4.76.08-5-.2s-.23.15,1-7.88A.57.57,0,0,1,9.7,20H12a.59.59,0,0,1,.57.48l1.14,7.42A.58.58,0,0,1,13.12,28.55Zm-3.9-1.14h3.24l-1-6.28h-1.3Z"></path><path class="cls-3" d="M12.36,13.45a4.45,4.45,0,0,1-3,0,.57.57,0,0,0-.75.55c0,2-.36,1.17,1.81,4.06a.57.57,0,0,0,1-.07s.33-.43,1.38-1.79c.52-.69.41-.41.41-2.2A.57.57,0,0,0,12.36,13.45Zm-1.53,3.32C9.51,15,9.7,15.44,9.7,14.74a6,6,0,0,0,2.28,0C12,15.43,12.17,15,10.83,16.77Z"></path><path class="cls-2" d="M16,6.3c-.06,0-1.12,0-4,0A2.85,2.85,0,0,1,9.13,3.44.57.57,0,0,0,8,3.44a2.86,2.86,0,0,1-2.28,2.8c-.49.1-.56,0-.89.15a.57.57,0,0,0,.32,1.05V9.15a5.7,5.7,0,0,0,11.29,1.13,16.28,16.28,0,0,0,.12-3.41A.57.57,0,0,0,16,6.3Zm-.61,2.85a4.57,4.57,0,0,1-9.13,0V7.27A4.18,4.18,0,0,0,8.18,6c.49-.57.31-.63.48-.39A3.94,3.94,0,0,0,12,7.44h3.43Z"></path><path class="cls-2" d="M5.71,10.29H5.42a2,2,0,0,1,0-4h.29a.58.58,0,0,1,.57.58V9.72A.58.58,0,0,1,5.71,10.29ZM5.14,7.48a.86.86,0,0,0,0,1.62Z"></path><path class="cls-3" d="M16,6.29a.58.58,0,0,0-.57.58V9.72a.57.57,0,0,0,.57.57h.45A2,2,0,1,0,16,6.29Zm.57,2.81V7.49A.85.85,0,0,1,16.55,9.1Z"></path><path class="cls-2" d="M4.56,6.87V4C4.56.36,9.13-.85,9.13.59V3.44C9.13,7.09,4.56,8.3,4.56,6.87ZM8,1.22A2.84,2.84,0,0,0,5.71,4V6.24A2.86,2.86,0,0,0,8,3.44Z"></path><path class="cls-3" d="M12.55,0A30.92,30.92,0,0,0,8.46.07.58.58,0,0,0,8,.63c0,2.77-.16,3.68.57,4.86a4.09,4.09,0,0,0,3.42,2h4.57a.58.58,0,0,0,.57-.57V4.58A4.57,4.57,0,0,0,12.55,0ZM12,6.29A2.85,2.85,0,0,1,9.13,3.44V1.16h3.42A3.43,3.43,0,0,1,16,4.58V6.29Z"></path><path class="cls-3" d="M8.56,1.2C7.77,1.2,7.85,0,8.56,0h.57a.57.57,0,0,1,0,1.14A5,5,0,0,0,8.56,1.2Z"></path><path class="cls-3" d="M11.13,21.13h-.57c-1.8,0-2.42-2.19-1.74-2.68,1.72-1.23,1.92-1.51,2.35-1.21,1.85,1.32,1.88,1.27,1.93,1.58A2,2,0,0,1,11.13,21.13ZM9.7,19.22a.87.87,0,0,0,.86.77h.57a.86.86,0,0,0,.85-.77l-1.14-.81Z"></path><path class="cls-2" d="M6.85,21.13a.57.57,0,0,1-.57-.57V16.3a.56.56,0,0,1,.33-.52A10.4,10.4,0,0,1,9.11,15c.45-.08.47.1,2.13,2.31a.57.57,0,0,1-.07.86C6.83,21.27,7.1,21.13,6.85,21.13Zm.57-4.46v2.78L10,17.59l-1-1.4A9.05,9.05,0,0,0,7.42,16.67Z"></path><path class="cls-3" d="M15.15,15.82A10.39,10.39,0,0,0,13,15.09c-1.14-.28-.7,0-2.62,2.27a.57.57,0,0,0,.18.84h0l.27.19h0c3.94,2.81,3.73,2.72,4,2.72a.57.57,0,0,0,.57-.57C15.41,15.89,15.5,16.05,15.15,15.82Zm-.88,3.63-2.63-1.87,1.07-1.39a8.74,8.74,0,0,1,1.56.48Z"></path><path class="cls-4" d="M26.25,28.55h-8a.57.57,0,0,1-.57-.57V21.13a.57.57,0,0,1,.57-.57h8a.58.58,0,0,1,.57.57V28A.58.58,0,0,1,26.25,28.55Zm-7.42-1.14h6.85V21.7H18.83Z"></path><path class="cls-4" d="M28.31,20.69l-5.7-4.57a.59.59,0,0,0-.71,0c-6.17,4.93-6.07,4.69-5.89,5.2s-.3.38,12,.38A.57.57,0,0,0,28.31,20.69Zm-10.14-.13,4.08-3.26c2.3,1.83,1.37,1.08,4.08,3.26Z"></path></g></g></svg>