<svg xmlns="http://www.w3.org/2000/svg" viewBox="0 0 46 46"><defs><style>.cls-1{fill:#f8f9f9;}.cls-2{fill:#bec6c6;}.cls-3{fill:#0d1419;}.cls-4{fill:#94c748;}</style></defs><g id="Camada_2" data-name="Camada 2"><g id="Office"><rect class="cls-1" x="11" y="1" width="26" height="44"></rect><rect class="cls-2" x="1" y="15" width="10" height="30"></rect><rect class="cls-2" x="37" y="19" width="8" height="26"></rect><rect class="cls-1" x="1" y="11" width="6" height="4"></rect><rect class="cls-2" x="11" y="31" width="26" height="4"></rect><path class="cls-3" d="M45,18H42V17a1,1,0,0,0-2,0v1H38V1a1,1,0,0,0-1-1H11a1,1,0,0,0-1,1V14H8V11a1,1,0,0,0-1-1H1a1,1,0,0,0-1,1V45a1,1,0,0,0,1,1H45a1,1,0,0,0,1-1V19A1,1,0,0,0,45,18ZM12,32H36v2H12ZM12,2H36V30H12ZM2,12H6v2H2Zm0,4h8V44H2ZM12,36H36v8H12Zm32,8H38V20h6Z"></path><rect class="cls-4" x="21" y="38" width="6" height="6"></rect><rect class="cls-2" x="15" y="21" width="4" height="6"></rect><rect class="cls-2" x="22" y="21" width="4" height="6"></rect><rect class="cls-2" x="29" y="21" width="4" height="6"></rect><rect class="cls-2" x="15" y="13" width="4" height="6"></rect><rect class="cls-2" x="22" y="13" width="4" height="6"></rect><rect class="cls-2" x="29" y="13" width="4" height="6"></rect><rect class="cls-2" x="15" y="5" width="4" height="6"></rect><rect class="cls-2" x="22" y="5" width="4" height="6"></rect><rect class="cls-2" x="29" y="5" width="4" height="6"></rect><rect class="cls-1" x="40" y="26" width="4" height="2"></rect><rect class="cls-1" x="40" y="22" width="4" height="2"></rect><rect class="cls-1" x="40" y="30" width="4" height="2"></rect><rect class="cls-1" x="40" y="34" width="4" height="2"></rect><rect class="cls-1" x="40" y="38" width="4" height="1.25"></rect><rect class="cls-1" x="4" y="18" width="4" height="4"></rect><rect class="cls-1" x="4" y="24" width="4" height="4"></rect><rect class="cls-1" x="4" y="30" width="4" height="4"></rect><rect class="cls-1" x="4" y="36" width="4" height="4"></rect></g></g></svg>