<svg xmlns="http://www.w3.org/2000/svg" xmlns:xlink="http://www.w3.org/1999/xlink" id="Camada_1" x="0px" y="0px" viewBox="0 0 533 40" style="enable-background:new 0 0 533 40;" xml:space="preserve">
<style type="text/css">
	.st0{fill-rule:evenodd;clip-rule:evenodd;fill:#FFFFFF;}
	.st1{fill:#FFFFFF;}
</style>
<path class="st0" d="M146.7,9.6h4.3l4.5,20.3h-5.2c0,0-0.5-2.3-0.7-3h-7.2c-0.2,0.5-1.2,3-1.2,3h-5.9l8.3-18.6  C144.4,9.9,145.4,9.6,146.7,9.6z M146.4,17c0,0-1.8,4.5-2.2,5.7h4.6c-0.2-1-1.3-5.9-1.3-5.9l-0.4-1.7c-0.2,0.5-0.4,1.1-0.6,1.5  C146.4,16.8,146.4,17,146.4,17z"></path>
<path class="st1" d="M116.4,29.9h-5.6l3.5-20.3h5.6L116.4,29.9z"></path>
<path class="st1" d="M136.7,10.1c-1.1-0.4-2.9-0.9-5-0.9c-5.5,0-9.4,2.8-9.4,6.7c0,2.9,2.8,4.5,4.9,5.5c2.2,1,2.9,1.6,2.9,2.5  c0,1.4-1.7,2-3.4,2c-2.2,0-3.4-0.3-5.2-1.1l-0.7-0.3l-0.8,4.6c1.3,0.6,3.7,1.1,6.2,1.1c5.9,0,9.7-2.7,9.7-6.9c0-2.3-1.5-4.1-4.7-5.5  c-2-0.9-3.2-1.6-3.2-2.5c0-0.9,1-1.7,3.2-1.7c1.8,0,3.2,0.4,4.2,0.8l0.5,0.2L136.7,10.1z"></path>
<path class="st0" d="M86.6,9.6h9c1.2,0,2.2,0.4,2.5,1.7l2,9.3c0,0,0,0,0,0l0.6,2.8l5.5-13.8h5.9l-8.8,20.3h-5.9l-5-17.6  c-1.7-0.9-3.7-1.7-5.9-2.2L86.6,9.6z"></path>
<path class="st1" d="M195.8,11.8c0.8-0.3,1.6-0.4,2.5-0.4c3.8,0,7,2.7,7.7,6.2l5.4-1.1c-1.2-6-6.6-10.5-13.1-10.5  c-1.5,0-2.9,0.2-4.2,0.7L195.8,11.8z"></path>
<path class="st1" d="M189.4,29.2l3.2-4.2c-1.4-1.5-2.4-3.6-2.4-6c0-2.4,0.9-4.5,2.4-6l-3.2-4.2c-2.5,2.5-4,6.1-4,10.1  C185.4,23.1,186.9,26.8,189.4,29.2z"></path>
<path class="st1" d="M206.1,20.5c-0.7,3.5-3.9,6.2-7.7,6.2c-0.9,0-1.7-0.1-2.5-0.4l-1.8,5.1c1.3,0.4,2.8,0.7,4.3,0.7  c6.5,0,11.9-4.5,13.1-10.5L206.1,20.5z"></path>
<path class="st1" d="M228.5,23.3c-0.9,0.8-2,1.3-3.3,1.3c-0.9,0-1.7-0.3-2.4-0.7l-1.7,2.7c1.2,0.7,2.6,1.2,4.1,1.2  c2.2,0,4.2-0.8,5.7-2.2L228.5,23.3z"></path>
<path class="st1" d="M237.5,8.9v14.9l2.7,1.1l-1.3,2.9l-2.6-1.1c-0.6-0.2-1-0.6-1.3-1.1c-0.3-0.4-0.5-1-0.5-1.8V8.9H237.5z"></path>
<path class="st1" d="M247.1,15.8c0.5-0.2,1-0.2,1.5-0.2c2.3,0,4.2,1.6,4.6,3.6l3.2-0.6c-0.7-3.5-3.9-6.2-7.8-6.2  c-0.9,0-1.7,0.1-2.5,0.4L247.1,15.8z"></path>
<path class="st1" d="M243.3,25.9l2.2-2.4c-1-0.8-1.6-2-1.6-3.4c0-1.3,0.6-2.6,1.6-3.4l-2.2-2.4c-1.6,1.4-2.7,3.5-2.7,5.8  C240.6,22.4,241.6,24.4,243.3,25.9z"></path>
<path class="st1" d="M253.1,21c-0.4,2.1-2.3,3.6-4.6,3.6c-0.5,0-1-0.1-1.5-0.2l-1,3c0.8,0.3,1.6,0.4,2.5,0.4c3.8,0,7.1-2.6,7.8-6.1  L253.1,21z"></path>
<path class="st0" d="M416.9,14.1c-0.8,0-1.6,0.3-2.2,0.9c-0.6,0.6-0.9,1.4-0.9,2.2V30c0,0.6-0.5,1.1-1.1,1.1s-1.1-0.5-1.1-1.1V17.2  c0-1.4,0.6-2.8,1.6-3.8c1-1,2.4-1.6,3.8-1.6h0l3.7,0c1.4,0,2.8,0.6,3.8,1.6c1,1,1.6,2.4,1.6,3.8c0,0,0,0,0,0v2.7  c0,1.4-0.6,2.8-1.6,3.8c-1,1-2.4,1.6-3.8,1.6h-5.3c-0.6,0-1.1-0.5-1.1-1.1c0-0.6,0.5-1.1,1.1-1.1h5.3l0,0c0.8,0,1.6-0.3,2.2-0.9  c0.6-0.6,0.9-1.4,0.9-2.2v-2.7c0-0.8-0.3-1.6-0.9-2.2c-0.6-0.6-1.3-0.9-2.2-0.9L416.9,14.1L416.9,14.1z"></path>
<path class="st0" d="M424.8,13c0-0.6,0.5-1.1,1.1-1.1h1.6c0.8,0,1.5,0.3,2,0.8c0.5,0.5,0.8,1.3,0.8,2v9.5c0,0.6-0.5,1.1-1.1,1.1  c-0.6,0-1.1-0.5-1.1-1.1v-9.5c0-0.2-0.1-0.3-0.2-0.4c-0.1-0.1-0.3-0.2-0.4-0.2h-1.6C425.3,14.1,424.8,13.6,424.8,13z"></path>
<path class="st1" d="M428.9,11.5l-0.7-0.7c0,0-0.1-0.1-0.1-0.2c0-0.1,0-0.1,0-0.2c0-0.1,0-0.1,0-0.2c0-0.1,0.1-0.1,0.1-0.2l0.7-0.7  c0.1-0.1,0.2-0.1,0.3-0.1c0.1,0,0.2,0,0.3,0.1l0.7,0.7c0,0,0.1,0.1,0.1,0.2c0,0.1,0,0.1,0,0.2c0,0.1,0,0.1,0,0.2  c0,0.1-0.1,0.1-0.1,0.2l-0.7,0.7c0,0-0.1,0.1-0.2,0.1c-0.1,0-0.1,0-0.2,0c-0.1,0-0.1,0-0.2,0C429,11.6,428.9,11.6,428.9,11.5"></path>
<path class="st0" d="M435.4,14.7c-0.4-0.4-0.9-0.6-1.4-0.6h-1.6c-0.6,0-1.1-0.5-1.1-1.1s0.5-1.1,1.1-1.1h1.6c1.1,0,2.2,0.5,3,1.3  l3.8,3.8c0,0,0,0,0,0c0,0,0,0,0,0c0,0,0,0,0,0c0,0,0,0,0,0l3.7-3.8c0.4-0.4,0.9-0.7,1.4-0.9c0.5-0.2,1.1-0.3,1.6-0.3l0,0h1.3  c0.6,0,1.1,0.5,1.1,1.1c0,0.6-0.5,1.1-1.1,1.1h-1.3c-0.3,0-0.5,0.1-0.8,0.2c-0.2,0.1-0.5,0.2-0.6,0.4l0,0l-3.7,3.8  c-0.2,0.2-0.5,0.4-0.8,0.5c-0.3,0.1-0.6,0.2-0.9,0.2c-0.3,0-0.6-0.1-0.9-0.2c-0.3-0.1-0.6-0.3-0.8-0.5L435.4,14.7z"></path>
<path class="st0" d="M440.7,20.3L440.7,20.3l-3.8,3.8c-0.8,0.8-1.9,1.3-3,1.3l0,0h-1.6c-0.6,0-1.1-0.5-1.1-1.1  c0-0.6,0.5-1.1,1.1-1.1h1.6c0.5,0,1-0.2,1.4-0.6l3.8-3.8c0.4-0.5,1.1-0.7,1.7-0.7c0.6,0,1.2,0.3,1.7,0.7l3.7,3.8c0,0,0,0,0,0  c0.4,0.4,0.9,0.6,1.4,0.6h1.3c0.6,0,1.1,0.5,1.1,1.1c0,0.6-0.5,1.1-1.1,1.1h-1.3l0,0c-1.1,0-2.2-0.5-3-1.3l-3.7-3.8c0,0,0,0,0,0  C440.8,20.2,440.8,20.2,440.7,20.3C440.8,20.2,440.7,20.2,440.7,20.3z"></path>
<path class="st1" d="M403.2,26.6c-0.4,0-0.8-0.1-1.2-0.2c-0.4-0.2-0.7-0.4-1-0.7l-3.1-3.1c-0.1-0.1-0.3-0.2-0.4-0.2  s-0.3,0.1-0.4,0.2l-3.1,3.1c-0.3,0.3-0.6,0.5-1,0.7c-0.4,0.2-0.8,0.2-1.2,0.2h-0.6l3.9,3.9c0.6,0.6,1.4,0.9,2.2,0.9  c0.8,0,1.6-0.3,2.2-0.9l3.9-3.9L403.2,26.6z"></path>
<path class="st1" d="M391.9,15.6c0.4,0,0.8,0.1,1.2,0.2c0.4,0.2,0.7,0.4,1,0.7l3.1,3.1c0.1,0.1,0.3,0.2,0.4,0.2  c0.2,0,0.3-0.1,0.4-0.2l3.1-3.1c0.3-0.3,0.6-0.5,1-0.7c0.4-0.2,0.8-0.2,1.2-0.2h0.4l-3.9-3.9c-0.3-0.3-0.6-0.5-1-0.7  c-0.4-0.2-0.8-0.2-1.2-0.2c-0.4,0-0.8,0.1-1.2,0.2c-0.4,0.2-0.7,0.4-1,0.7l-3.9,3.9H391.9z"></path>
<path class="st1" d="M406.8,18.9l-2.4-2.4c-0.1,0-0.1,0-0.2,0h-1.1c-0.6,0-1.1,0.2-1.5,0.6l-3.1,3.1c-0.3,0.3-0.7,0.4-1,0.4  s-0.8-0.2-1-0.4l-3.1-3.1c-0.4-0.4-0.9-0.6-1.5-0.6h-1.3c-0.1,0-0.1,0-0.2,0l-2.4,2.4c-0.6,0.6-0.9,1.4-0.9,2.2s0.3,1.6,0.9,2.2  l2.4,2.4c0,0,0.1,0,0.2,0h1.3c0.6,0,1.1-0.2,1.5-0.6l3.1-3.1c0.6-0.6,1.5-0.6,2.1,0l3.1,3.1c0.4,0.4,0.9,0.6,1.5,0.6h1.1  c0.1,0,0.1,0,0.2,0l2.4-2.4c0.3-0.3,0.5-0.6,0.7-1c0.2-0.4,0.2-0.8,0.2-1.2s-0.1-0.8-0.2-1.2C407.3,19.5,407.1,19.2,406.8,18.9"></path>
<path class="st1" d="M495.5,4.3h0.8v20.7h-0.8V4.3z M500.6,4.3h0.8v20.7h-0.8V4.3z M504.4,4.3h0.8v20.7h-0.8V4.3z M505.9,4.3h0.8  v20.7h-0.8V4.3z M509.8,4.3h0.8v20.7h-0.8V4.3z M519.7,4.3h0.8v20.7h-0.8V4.3z M529.8,4.3h0.8v20.7h-0.8V4.3z M531.8,4.3h0.8v20.7  h-0.8V4.3z M485.4,4.3h0.8v20.7h-0.8V4.3z M486.9,4.3h1.4v20.7h-1.4V4.3z M493.4,4.3h1.4v20.7h-1.4V4.3z M496.7,4.3h1.4v20.7h-1.4  V4.3z M502,4.3h1.4v20.7H502V4.3z M511.9,4.3h2.2v20.7h-2.2V4.3z M514.8,4.3h1.7v20.7h-1.7V4.3z M517.8,4.3h1.4v20.7h-1.4V4.3z   M521.8,4.3h2.3v20.7h-2.3V4.3z M526.4,4.3h2.3v20.7h-2.3V4.3z M481.8,4.3h2.8v20.7h-2.8V4.3z M489.1,4.3h2.2v20.7h-2.2V4.3z"></path>
<path class="st1" d="M487.9,33.3c0.7-0.4,1.1-1,1.1-1.8c0-1.3-1.1-2.2-3.2-2.2h-4.1v8.4h4.3c2.2,0,3.4-0.8,3.4-2.3  C489.4,34.3,488.8,33.6,487.9,33.3z M485.6,30.7c0.9,0,1.5,0.3,1.5,1s-0.5,1-1.5,1h-1.9v-2H485.6z M485.9,36.2h-2.3v-2.1h2.3  c1,0,1.5,0.3,1.5,1C487.5,35.9,486.9,36.2,485.9,36.2z"></path>
<path class="st1" d="M495,37.8c2.6,0,4.6-1.8,4.6-4.3c0-2.5-2-4.3-4.6-4.3c-2.7,0-4.6,1.8-4.6,4.3C490.4,36,492.3,37.8,495,37.8z   M495,36.2c-1.5,0-2.6-1.1-2.6-2.7c0-1.6,1.1-2.7,2.6-2.7s2.6,1.1,2.6,2.7C497.6,35.1,496.5,36.2,495,36.2z"></path>
<path class="st1" d="M501,37.7h6.2v-1.6H503v-6.8H501V37.7z"></path>
<path class="st1" d="M510.2,36.1v-1.9h3.9v-1.5h-3.9v-1.8h4.4v-1.6h-6.3v8.4h6.5v-1.6H510.2z"></path>
<path class="st1" d="M518,37.7h1.9v-6.8h2.7v-1.6h-7.3v1.6h2.7V37.7z"></path>
<path class="st1" d="M527.7,37.8c2.6,0,4.6-1.8,4.6-4.3c0-2.5-2-4.3-4.6-4.3c-2.7,0-4.6,1.8-4.6,4.3C523.1,36,525,37.8,527.7,37.8z   M527.7,36.2c-1.5,0-2.6-1.1-2.6-2.7c0-1.6,1.1-2.7,2.6-2.7s2.6,1.1,2.6,2.7C530.3,35.1,529.2,36.2,527.7,36.2z"></path>
<path class="st0" d="M289.1,10h5.6c1.9,0,3.3,0.5,4,1.4c0.7,0.8,1,2.1,0.7,3.6c-0.6,3.5-2.7,5.3-6.3,5.3h-1.8  c-0.4,0-0.7,0.3-0.8,0.7l-0.6,3.9c-0.1,0.4-0.4,0.7-0.8,0.7h-2.7c-0.3,0-0.5-0.3-0.5-0.5l2.2-14.3C288.4,10.3,288.7,10,289.1,10z   M292,17.3c1.5,0,3,0,3.3-2c0.1-0.7,0-1.2-0.3-1.6c-0.5-0.6-1.4-0.6-2.4-0.6h-0.4c-0.2,0-0.4,0.2-0.5,0.4l-0.6,3.7H292z"></path>
<path class="st0" d="M308.8,15.1h2.7c0.3,0,0.5,0.3,0.5,0.5l-1.4,9.1c-0.1,0.4-0.4,0.7-0.8,0.7h-2.4c-0.3,0-0.5-0.3-0.5-0.5l0.1-0.7  c0,0-1.3,1.5-3.7,1.5c-1.4,0-2.5-0.4-3.3-1.4c-0.9-1-1.2-2.5-1-4.1c0.5-3.1,3-5.4,5.9-5.4c1.3,0,2.6,0.3,3.1,1.1l0.2,0.3l0.1-0.7  C308.3,15.3,308.5,15.1,308.8,15.1z M304.7,22.8c1.5,0,2.7-1,3-2.5c0.1-0.7,0-1.4-0.4-1.9c-0.4-0.5-1-0.7-1.8-0.7  c-1.5,0-2.7,1.1-3,2.6c-0.1,0.7,0,1.4,0.4,1.9C303.3,22.6,303.9,22.8,304.7,22.8z"></path>
<path class="st0" d="M325.4,15.3h-2.7c-0.3,0-0.5,0.1-0.6,0.3l-3.7,5.5l-1.6-5.2c-0.1-0.3-0.4-0.6-0.7-0.6h-2.6  c-0.3,0-0.5,0.3-0.4,0.6l2.9,8.7l-2.8,3.9c-0.2,0.3,0,0.7,0.4,0.7h2.7c0.3,0,0.5-0.1,0.6-0.3l8.9-12.9  C326,15.7,325.7,15.3,325.4,15.3z"></path>
<path class="st0" d="M328.7,10h5.6c1.9,0,3.3,0.5,4,1.4c0.7,0.8,1,2.1,0.7,3.6c-0.6,3.5-2.7,5.3-6.3,5.3H331c-0.4,0-0.7,0.3-0.8,0.7  l-0.6,4.1c0,0.3-0.3,0.5-0.5,0.5h-2.8c-0.3,0-0.5-0.3-0.5-0.5l2.2-14.3C328,10.3,328.3,10,328.7,10z M331.6,17.3c1.5,0,3,0,3.3-2  c0.1-0.7,0-1.2-0.3-1.6c-0.5-0.6-1.4-0.6-2.4-0.6h-0.4c-0.2,0-0.4,0.2-0.5,0.4l-0.6,3.7H331.6z"></path>
<path class="st0" d="M348.4,15.1h2.7c0.3,0,0.5,0.3,0.5,0.5l-1.4,9.1c-0.1,0.4-0.4,0.7-0.8,0.7h-2.4c-0.3,0-0.5-0.3-0.5-0.5l0.1-0.7  c0,0-1.3,1.5-3.7,1.5c-1.4,0-2.5-0.4-3.4-1.4c-0.9-1-1.2-2.5-1-4.1c0.5-3.1,3-5.4,5.9-5.4c1.3,0,2.6,0.3,3.1,1.1l0.2,0.3l0.1-0.7  C347.9,15.3,348.1,15.1,348.4,15.1z M344.3,22.8c1.5,0,2.7-1,3-2.5c0.1-0.7,0-1.4-0.5-1.9c-0.4-0.5-1-0.7-1.8-0.7  c-1.5,0-2.7,1.1-3,2.6c-0.1,0.7,0,1.4,0.4,1.9C342.9,22.6,343.5,22.8,344.3,22.8z"></path>
<path class="st0" d="M353.9,10.4L351.7,25c0,0.3,0.2,0.5,0.5,0.5h2.3c0.4,0,0.7-0.3,0.8-0.7l2.2-14.3c0-0.3-0.2-0.5-0.5-0.5h-2.6  C354.2,10,354,10.2,353.9,10.4z"></path>
<path class="st0" d="M217.2,20c0.1-4.2,3.7-7.6,8.1-7.6c3.7,0.1,6.8,2.6,7.6,5.9l-14.4,6C217.7,23.1,217.2,21.6,217.2,20z M220.5,20  c0,0.2,0,0.4,0,0.5l8.2-3.4c-0.8-1-2.1-1.6-3.5-1.6C222.7,15.5,220.6,17.5,220.5,20z"></path>
<path class="st0" d="M13.9,35.5v2.1v2.1h-0.9v-0.5c-0.3,0.4-0.7,0.6-1.4,0.6c-1.2,0-2.2-0.9-2.2-2.2c0-1.3,0.9-2.2,2.2-2.2  c0.6,0,1.1,0.2,1.4,0.6v-0.5H13.9z M11.7,36.3c-0.8,0-1.3,0.6-1.3,1.4s0.5,1.4,1.3,1.4c0.8,0,1.3-0.6,1.3-1.4  C13,36.9,12.5,36.3,11.7,36.3z M45.6,37.7c0-0.8,0.5-1.4,1.3-1.4c0.8,0,1.3,0.6,1.3,1.4c0,0.8-0.5,1.4-1.3,1.4  C46,39.1,45.6,38.4,45.6,37.7z M49,33.8v3.9v2.1h-0.9v-0.5c-0.3,0.4-0.7,0.6-1.4,0.6c-1.2,0-2.2-0.9-2.2-2.2c0-1.3,0.9-2.2,2.2-2.2  c0.6,0,1.1,0.2,1.4,0.6v-2.2H49z M25.5,36.3c0.6,0,1,0.4,1.1,1h-2.2C24.5,36.7,24.8,36.3,25.5,36.3z M23.4,37.7  c0-1.3,0.9-2.2,2.1-2.2c1.2,0,2,0.9,2,2.2c0,0.1,0,0.2,0,0.4h-3.2c0.1,0.8,0.7,1,1.3,1c0.4,0,0.9-0.2,1.3-0.4l0.5,0.7  c-0.5,0.4-1.1,0.6-1.8,0.6C24.3,39.9,23.4,39,23.4,37.7z M36.8,37.7c0-0.8,0.5-1.4,1.3-1.4c0.8,0,1.3,0.6,1.3,1.4  c0,0.8-0.5,1.4-1.3,1.4C37.3,39.1,36.8,38.4,36.8,37.7z M40.3,35.5v2.1v2.1h-0.9v-0.5c-0.3,0.4-0.7,0.6-1.4,0.6  c-1.2,0-2.2-0.9-2.2-2.2c0-1.3,0.9-2.2,2.2-2.2c0.6,0,1.1,0.2,1.4,0.6v-0.5H40.3z M31.6,37.7c0,1.3,0.9,2.2,2.3,2.2  c0.6,0,1.1-0.1,1.6-0.5L35,38.7c-0.4,0.3-0.7,0.4-1.1,0.4c-0.7,0-1.3-0.5-1.3-1.4s0.6-1.4,1.3-1.4c0.4,0,0.8,0.1,1.1,0.4l0.5-0.8  c-0.5-0.4-0.9-0.5-1.6-0.5C32.5,35.4,31.6,36.4,31.6,37.7z M42.5,36.1c0.2-0.4,0.6-0.6,1.1-0.6c0.2,0,0.5,0,0.7,0.1L44,36.4  c-0.2-0.1-0.4-0.1-0.6-0.1c-0.6,0-0.9,0.4-0.9,1.1v2.4h-0.9v-4.3h0.9V36.1z M18.5,35.9c-0.5-0.3-1.1-0.4-1.8-0.4  c-1.1,0-1.8,0.5-1.8,1.4c0,0.7,0.5,1.1,1.5,1.3l0.4,0.1c0.5,0.1,0.8,0.2,0.8,0.4c0,0.3-0.3,0.5-1,0.5c-0.6,0-1.1-0.2-1.4-0.4  l-0.4,0.7c0.5,0.4,1.2,0.6,1.9,0.6c1.2,0,2-0.6,2-1.4c0-0.8-0.6-1.1-1.5-1.3l-0.4-0.1c-0.4-0.1-0.7-0.1-0.7-0.4  c0-0.3,0.3-0.5,0.8-0.5c0.6,0,1.1,0.2,1.3,0.4L18.5,35.9z M29.5,36.1c0.2-0.4,0.6-0.6,1.1-0.6c0.2,0,0.5,0,0.7,0.1L31,36.4  c-0.2-0.1-0.4-0.1-0.6-0.1c-0.6,0-0.9,0.4-0.9,1.1v2.4h-0.9v-4.3h0.9V36.1z M22.6,35.5h-1.5v-1.3h-0.9v1.3h-0.9v0.9h0.9v2  c0,1,0.4,1.6,1.5,1.6c0.4,0,0.9-0.1,1.2-0.3l-0.3-0.8C22.2,39,21.9,39,21.7,39c-0.5,0-0.6-0.3-0.6-0.7v-1.9h1.5V35.5z M8.6,37.1v2.7  H7.6v-2.4c0-0.7-0.3-1.1-0.9-1.1c-0.6,0-1.1,0.4-1.1,1.1v2.4H4.7v-2.4c0-0.7-0.3-1.1-0.9-1.1c-0.6,0-1.1,0.4-1.1,1.1v2.4H1.7v-4.3  h0.9v0.5C3,35.6,3.5,35.4,4,35.4c0.7,0,1.1,0.3,1.4,0.8c0.4-0.6,1-0.8,1.5-0.8C7.9,35.4,8.6,36.1,8.6,37.1z"></path>
<path class="st1" d="M24.1,27.5c0.1,0.1,0.2,0.2,0.4,0.3c-2.4,1.6-5.3,2.5-8.4,2.5c-8.4,0-15.2-6.7-15.2-15c0-8.3,6.8-15,15.2-15  c3.1,0,6,0.9,8.4,2.5c-0.1,0.1-0.2,0.2-0.4,0.3c-3.6,3.1-5.6,7.5-5.6,12.2S20.5,24.4,24.1,27.5z M34.8,0.3c-3.1,0-6,0.9-8.4,2.5  c0.1,0.1,0.2,0.2,0.4,0.3c3.6,3.1,5.6,7.5,5.6,12.2s-2,9.1-5.6,12.2c-0.1,0.1-0.2,0.2-0.4,0.3c2.4,1.6,5.3,2.5,8.4,2.5  c8.4,0,15.2-6.7,15.2-15C49.9,7,43.1,0.3,34.8,0.3z M25.4,3.5c-0.2,0.2-0.4,0.3-0.6,0.5c-3.2,2.8-5.2,6.8-5.2,11.3s2,8.6,5.2,11.3  c0.2,0.2,0.4,0.3,0.6,0.5c0.2-0.2,0.4-0.3,0.6-0.5c3.2-2.8,5.2-6.8,5.2-11.3s-2-8.6-5.2-11.3C25.8,3.8,25.6,3.6,25.4,3.5z"></path>
</svg>